<?xml version="1.0" encoding="UTF-8" standalone="no"?>
<!DOCTYPE svg PUBLIC "-//W3C//DTD SVG 1.1//EN"
 "http://www.w3.org/Graphics/SVG/1.1/DTD/svg11.dtd">
<!-- Generated by graphviz version 2.48.0 (20210717.1556)
 -->
<!-- Pages: 1 -->
<svg width="343pt" height="111pt"
 viewBox="0.00 0.00 343.25 111.50" xmlns="http://www.w3.org/2000/svg" xmlns:xlink="http://www.w3.org/1999/xlink">
<g id="graph0" class="graph" transform="scale(1 1) rotate(0) translate(4 107.5)">
<polygon fill="white" stroke="transparent" points="-4,4 -4,-107.5 339.25,-107.5 339.25,4 -4,4"/>
<!-- fly.y_mid -->
<g id="node1" class="node">
<title>fly.y_mid</title>
<polygon fill="lightgray" stroke="black" points="194,-103.5 141,-103.5 141,-85.5 194,-85.5 194,-103.5"/>
<text text-anchor="middle" x="167.5" y="-92.3" font-family="Times New Roman,serif" font-size="9.00">fly.y_mid</text>
</g>
<!-- flap -->
<g id="node4" class="node">
<title>flap</title>
<ellipse fill="lightblue" stroke="black" cx="167.5" cy="-24.75" rx="21.84" ry="21.84"/>
<text text-anchor="middle" x="167.5" y="-22.55" font-family="Times New Roman,serif" font-size="9.00">flap</text>
</g>
<!-- fly.y_mid&#45;&gt;flap -->
<g id="edge1" class="edge">
<title>fly.y_mid&#45;&gt;flap</title>
<path fill="none" stroke="green" stroke-width="0.72" d="M167.5,-85.46C167.5,-78.36 167.5,-67.54 167.5,-57.05"/>
<polygon fill="green" stroke="green" stroke-width="0.72" points="171,-56.81 167.5,-46.81 164,-56.81 171,-56.81"/>
</g>
<!-- abs(wasp.y_mid &#45; fly.y_mid) -->
<g id="node2" class="node">
<title>abs(wasp.y_mid &#45; fly.y_mid)</title>
<polygon fill="lightgray" stroke="black" points="123,-103.5 0,-103.5 0,-85.5 123,-85.5 123,-103.5"/>
<text text-anchor="middle" x="61.5" y="-92.3" font-family="Times New Roman,serif" font-size="9.00">abs(wasp.y_mid &#45; fly.y_mid)</text>
</g>
<!-- abs(wasp.y_mid &#45; fly.y_mid)&#45;&gt;flap -->
<g id="edge3" class="edge">
<title>abs(wasp.y_mid &#45; fly.y_mid)&#45;&gt;flap</title>
<path fill="none" stroke="red" stroke-width="0.59" d="M74.08,-85.46C90.39,-75.03 119.29,-56.56 140.64,-42.92"/>
<polygon fill="red" stroke="red" stroke-width="0.59" points="142.73,-45.74 149.27,-37.4 138.96,-39.84 142.73,-45.74"/>
</g>
<!-- 8973 -->
<g id="node7" class="node">
<title>8973</title>
<ellipse fill="white" stroke="black" cx="61.5" cy="-24.75" rx="25" ry="25"/>
<text text-anchor="middle" x="61.5" y="-22.55" font-family="Times New Roman,serif" font-size="9.00">8973</text>
</g>
<!-- abs(wasp.y_mid &#45; fly.y_mid)&#45;&gt;8973 -->
<g id="edge5" class="edge">
<title>abs(wasp.y_mid &#45; fly.y_mid)&#45;&gt;8973</title>
<path fill="none" stroke="red" stroke-width="0.17" stroke-dasharray="1,5" d="M61.5,-85.46C61.5,-79.02 61.5,-69.53 61.5,-59.99"/>
<polygon fill="red" stroke="red" stroke-width="0.17" points="65,-59.77 61.5,-49.77 58,-59.77 65,-59.77"/>
</g>
<!-- wasp.x_mid &#45; fly.x -->
<g id="node3" class="node">
<title>wasp.x_mid &#45; fly.x</title>
<polygon fill="lightgray" stroke="black" points="296.5,-103.5 212.5,-103.5 212.5,-85.5 296.5,-85.5 296.5,-103.5"/>
<text text-anchor="middle" x="254.5" y="-92.3" font-family="Times New Roman,serif" font-size="9.00">wasp.x_mid &#45; fly.x</text>
</g>
<!-- wasp.x_mid &#45; fly.x&#45;&gt;flap -->
<g id="edge2" class="edge">
<title>wasp.x_mid &#45; fly.x&#45;&gt;flap</title>
<path fill="none" stroke="red" stroke-width="0.84" d="M244.18,-85.46C231.49,-75.58 209.53,-58.48 192.36,-45.11"/>
<polygon fill="red" stroke="red" stroke-width="0.84" points="194.41,-42.27 184.37,-38.89 190.11,-47.79 194.41,-42.27"/>
</g>
<!-- 8754 -->
<g id="node5" class="node">
<title>8754</title>
<ellipse fill="white" stroke="black" cx="243.5" cy="-24.75" rx="25" ry="25"/>
<text text-anchor="middle" x="243.5" y="-22.55" font-family="Times New Roman,serif" font-size="9.00">8754</text>
</g>
<!-- wasp.x_mid &#45; fly.x&#45;&gt;8754 -->
<g id="edge4" class="edge">
<title>wasp.x_mid &#45; fly.x&#45;&gt;8754</title>
<path fill="none" stroke="red" stroke-width="0.21" stroke-dasharray="1,5" d="M253.19,-85.46C252.13,-78.9 250.55,-69.17 248.97,-59.45"/>
<polygon fill="red" stroke="red" stroke-width="0.21" points="252.41,-58.78 247.35,-49.47 245.5,-59.9 252.41,-58.78"/>
</g>
<!-- 9018 -->
<g id="node6" class="node">
<title>9018</title>
<ellipse fill="white" stroke="black" cx="310.5" cy="-24.75" rx="25" ry="25"/>
<text text-anchor="middle" x="310.5" y="-22.55" font-family="Times New Roman,serif" font-size="9.00">9018</text>
</g>
<!-- wasp.x_mid &#45; fly.x&#45;&gt;9018 -->
<g id="edge6" class="edge">
<title>wasp.x_mid &#45; fly.x&#45;&gt;9018</title>
<path fill="none" stroke="red" stroke-width="0.31" stroke-dasharray="1,5" d="M261.14,-85.46C267.92,-77.26 278.82,-64.08 288.64,-52.19"/>
<polygon fill="red" stroke="red" stroke-width="0.31" points="291.54,-54.18 295.22,-44.24 286.15,-49.72 291.54,-54.18"/>
</g>
</g>
</svg>
