<?xml version="1.0" encoding="utf-8" standalone="no"?>
<!DOCTYPE svg PUBLIC "-//W3C//DTD SVG 1.1//EN"
  "http://www.w3.org/Graphics/SVG/1.1/DTD/svg11.dtd">
<svg height="345.6pt" version="1.1" viewBox="0 0 460.8 345.6" width="460.8pt" xmlns="http://www.w3.org/2000/svg" xmlns:xlink="http://www.w3.org/1999/xlink">
 <metadata>
  <rdf:RDF xmlns:cc="http://creativecommons.org/ns#" xmlns:dc="http://purl.org/dc/elements/1.1/" xmlns:rdf="http://www.w3.org/1999/02/22-rdf-syntax-ns#">
   <cc:Work>
    <dc:type rdf:resource="http://purl.org/dc/dcmitype/StillImage"/>
    <dc:date>2021-09-03T18:44:21.455828</dc:date>
    <dc:format>image/svg+xml</dc:format>
    <dc:creator>
     <cc:Agent>
      <dc:title>Matplotlib v3.4.2, https://matplotlib.org/</dc:title>
     </cc:Agent>
    </dc:creator>
   </cc:Work>
  </rdf:RDF>
 </metadata>
 <defs>
  <style type="text/css">*{stroke-linecap:butt;stroke-linejoin:round;}</style>
 </defs>
 <g id="figure_1">
  <g id="patch_1">
   <path d="M 0 345.6 
L 460.8 345.6 
L 460.8 0 
L 0 0 
z
" style="fill:#ffffff;"/>
  </g>
  <g id="axes_1">
   <g id="patch_2">
    <path d="M 57.6 307.584 
L 414.72 307.584 
L 414.72 41.472 
L 57.6 41.472 
z
" style="fill:#ffffff;"/>
   </g>
   <g id="matplotlib.axis_1">
    <g id="xtick_1">
     <g id="line2d_1">
      <path clip-path="url(#p8d4453bd06)" d="M 73.832727 307.584 
L 73.832727 41.472 
" style="fill:none;stroke:#b0b0b0;stroke-linecap:square;stroke-width:0.8;"/>
     </g>
     <g id="line2d_2">
      <defs>
       <path d="M 0 0 
L 0 3.5 
" id="m457a60ba75" style="stroke:#000000;stroke-width:0.8;"/>
      </defs>
      <g>
       <use style="stroke:#000000;stroke-width:0.8;" x="73.832727" xlink:href="#m457a60ba75" y="307.584"/>
      </g>
     </g>
     <g id="text_1">
      <!-- 0 -->
      <g transform="translate(70.651477 322.182437)scale(0.1 -0.1)">
       <defs>
        <path d="M 2034 4250 
Q 1547 4250 1301 3770 
Q 1056 3291 1056 2328 
Q 1056 1369 1301 889 
Q 1547 409 2034 409 
Q 2525 409 2770 889 
Q 3016 1369 3016 2328 
Q 3016 3291 2770 3770 
Q 2525 4250 2034 4250 
z
M 2034 4750 
Q 2819 4750 3233 4129 
Q 3647 3509 3647 2328 
Q 3647 1150 3233 529 
Q 2819 -91 2034 -91 
Q 1250 -91 836 529 
Q 422 1150 422 2328 
Q 422 3509 836 4129 
Q 1250 4750 2034 4750 
z
" id="DejaVuSans-30" transform="scale(0.015625)"/>
       </defs>
       <use xlink:href="#DejaVuSans-30"/>
      </g>
     </g>
    </g>
    <g id="xtick_2">
     <g id="line2d_3">
      <path clip-path="url(#p8d4453bd06)" d="M 138.893758 307.584 
L 138.893758 41.472 
" style="fill:none;stroke:#b0b0b0;stroke-linecap:square;stroke-width:0.8;"/>
     </g>
     <g id="line2d_4">
      <g>
       <use style="stroke:#000000;stroke-width:0.8;" x="138.893758" xlink:href="#m457a60ba75" y="307.584"/>
      </g>
     </g>
     <g id="text_2">
      <!-- 100 -->
      <g transform="translate(129.350008 322.182437)scale(0.1 -0.1)">
       <defs>
        <path d="M 794 531 
L 1825 531 
L 1825 4091 
L 703 3866 
L 703 4441 
L 1819 4666 
L 2450 4666 
L 2450 531 
L 3481 531 
L 3481 0 
L 794 0 
L 794 531 
z
" id="DejaVuSans-31" transform="scale(0.015625)"/>
       </defs>
       <use xlink:href="#DejaVuSans-31"/>
       <use x="63.623047" xlink:href="#DejaVuSans-30"/>
       <use x="127.246094" xlink:href="#DejaVuSans-30"/>
      </g>
     </g>
    </g>
    <g id="xtick_3">
     <g id="line2d_5">
      <path clip-path="url(#p8d4453bd06)" d="M 203.95479 307.584 
L 203.95479 41.472 
" style="fill:none;stroke:#b0b0b0;stroke-linecap:square;stroke-width:0.8;"/>
     </g>
     <g id="line2d_6">
      <g>
       <use style="stroke:#000000;stroke-width:0.8;" x="203.95479" xlink:href="#m457a60ba75" y="307.584"/>
      </g>
     </g>
     <g id="text_3">
      <!-- 200 -->
      <g transform="translate(194.41104 322.182437)scale(0.1 -0.1)">
       <defs>
        <path d="M 1228 531 
L 3431 531 
L 3431 0 
L 469 0 
L 469 531 
Q 828 903 1448 1529 
Q 2069 2156 2228 2338 
Q 2531 2678 2651 2914 
Q 2772 3150 2772 3378 
Q 2772 3750 2511 3984 
Q 2250 4219 1831 4219 
Q 1534 4219 1204 4116 
Q 875 4013 500 3803 
L 500 4441 
Q 881 4594 1212 4672 
Q 1544 4750 1819 4750 
Q 2544 4750 2975 4387 
Q 3406 4025 3406 3419 
Q 3406 3131 3298 2873 
Q 3191 2616 2906 2266 
Q 2828 2175 2409 1742 
Q 1991 1309 1228 531 
z
" id="DejaVuSans-32" transform="scale(0.015625)"/>
       </defs>
       <use xlink:href="#DejaVuSans-32"/>
       <use x="63.623047" xlink:href="#DejaVuSans-30"/>
       <use x="127.246094" xlink:href="#DejaVuSans-30"/>
      </g>
     </g>
    </g>
    <g id="xtick_4">
     <g id="line2d_7">
      <path clip-path="url(#p8d4453bd06)" d="M 269.015821 307.584 
L 269.015821 41.472 
" style="fill:none;stroke:#b0b0b0;stroke-linecap:square;stroke-width:0.8;"/>
     </g>
     <g id="line2d_8">
      <g>
       <use style="stroke:#000000;stroke-width:0.8;" x="269.015821" xlink:href="#m457a60ba75" y="307.584"/>
      </g>
     </g>
     <g id="text_4">
      <!-- 300 -->
      <g transform="translate(259.472071 322.182437)scale(0.1 -0.1)">
       <defs>
        <path d="M 2597 2516 
Q 3050 2419 3304 2112 
Q 3559 1806 3559 1356 
Q 3559 666 3084 287 
Q 2609 -91 1734 -91 
Q 1441 -91 1130 -33 
Q 819 25 488 141 
L 488 750 
Q 750 597 1062 519 
Q 1375 441 1716 441 
Q 2309 441 2620 675 
Q 2931 909 2931 1356 
Q 2931 1769 2642 2001 
Q 2353 2234 1838 2234 
L 1294 2234 
L 1294 2753 
L 1863 2753 
Q 2328 2753 2575 2939 
Q 2822 3125 2822 3475 
Q 2822 3834 2567 4026 
Q 2313 4219 1838 4219 
Q 1578 4219 1281 4162 
Q 984 4106 628 3988 
L 628 4550 
Q 988 4650 1302 4700 
Q 1616 4750 1894 4750 
Q 2613 4750 3031 4423 
Q 3450 4097 3450 3541 
Q 3450 3153 3228 2886 
Q 3006 2619 2597 2516 
z
" id="DejaVuSans-33" transform="scale(0.015625)"/>
       </defs>
       <use xlink:href="#DejaVuSans-33"/>
       <use x="63.623047" xlink:href="#DejaVuSans-30"/>
       <use x="127.246094" xlink:href="#DejaVuSans-30"/>
      </g>
     </g>
    </g>
    <g id="xtick_5">
     <g id="line2d_9">
      <path clip-path="url(#p8d4453bd06)" d="M 334.076852 307.584 
L 334.076852 41.472 
" style="fill:none;stroke:#b0b0b0;stroke-linecap:square;stroke-width:0.8;"/>
     </g>
     <g id="line2d_10">
      <g>
       <use style="stroke:#000000;stroke-width:0.8;" x="334.076852" xlink:href="#m457a60ba75" y="307.584"/>
      </g>
     </g>
     <g id="text_5">
      <!-- 400 -->
      <g transform="translate(324.533102 322.182437)scale(0.1 -0.1)">
       <defs>
        <path d="M 2419 4116 
L 825 1625 
L 2419 1625 
L 2419 4116 
z
M 2253 4666 
L 3047 4666 
L 3047 1625 
L 3713 1625 
L 3713 1100 
L 3047 1100 
L 3047 0 
L 2419 0 
L 2419 1100 
L 313 1100 
L 313 1709 
L 2253 4666 
z
" id="DejaVuSans-34" transform="scale(0.015625)"/>
       </defs>
       <use xlink:href="#DejaVuSans-34"/>
       <use x="63.623047" xlink:href="#DejaVuSans-30"/>
       <use x="127.246094" xlink:href="#DejaVuSans-30"/>
      </g>
     </g>
    </g>
    <g id="xtick_6">
     <g id="line2d_11">
      <path clip-path="url(#p8d4453bd06)" d="M 399.137883 307.584 
L 399.137883 41.472 
" style="fill:none;stroke:#b0b0b0;stroke-linecap:square;stroke-width:0.8;"/>
     </g>
     <g id="line2d_12">
      <g>
       <use style="stroke:#000000;stroke-width:0.8;" x="399.137883" xlink:href="#m457a60ba75" y="307.584"/>
      </g>
     </g>
     <g id="text_6">
      <!-- 500 -->
      <g transform="translate(389.594133 322.182437)scale(0.1 -0.1)">
       <defs>
        <path d="M 691 4666 
L 3169 4666 
L 3169 4134 
L 1269 4134 
L 1269 2991 
Q 1406 3038 1543 3061 
Q 1681 3084 1819 3084 
Q 2600 3084 3056 2656 
Q 3513 2228 3513 1497 
Q 3513 744 3044 326 
Q 2575 -91 1722 -91 
Q 1428 -91 1123 -41 
Q 819 9 494 109 
L 494 744 
Q 775 591 1075 516 
Q 1375 441 1709 441 
Q 2250 441 2565 725 
Q 2881 1009 2881 1497 
Q 2881 1984 2565 2268 
Q 2250 2553 1709 2553 
Q 1456 2553 1204 2497 
Q 953 2441 691 2322 
L 691 4666 
z
" id="DejaVuSans-35" transform="scale(0.015625)"/>
       </defs>
       <use xlink:href="#DejaVuSans-35"/>
       <use x="63.623047" xlink:href="#DejaVuSans-30"/>
       <use x="127.246094" xlink:href="#DejaVuSans-30"/>
      </g>
     </g>
    </g>
    <g id="text_7">
     <!-- Generations -->
     <g transform="translate(205.662344 335.860562)scale(0.1 -0.1)">
      <defs>
       <path d="M 3809 666 
L 3809 1919 
L 2778 1919 
L 2778 2438 
L 4434 2438 
L 4434 434 
Q 4069 175 3628 42 
Q 3188 -91 2688 -91 
Q 1594 -91 976 548 
Q 359 1188 359 2328 
Q 359 3472 976 4111 
Q 1594 4750 2688 4750 
Q 3144 4750 3555 4637 
Q 3966 4525 4313 4306 
L 4313 3634 
Q 3963 3931 3569 4081 
Q 3175 4231 2741 4231 
Q 1884 4231 1454 3753 
Q 1025 3275 1025 2328 
Q 1025 1384 1454 906 
Q 1884 428 2741 428 
Q 3075 428 3337 486 
Q 3600 544 3809 666 
z
" id="DejaVuSans-47" transform="scale(0.015625)"/>
       <path d="M 3597 1894 
L 3597 1613 
L 953 1613 
Q 991 1019 1311 708 
Q 1631 397 2203 397 
Q 2534 397 2845 478 
Q 3156 559 3463 722 
L 3463 178 
Q 3153 47 2828 -22 
Q 2503 -91 2169 -91 
Q 1331 -91 842 396 
Q 353 884 353 1716 
Q 353 2575 817 3079 
Q 1281 3584 2069 3584 
Q 2775 3584 3186 3129 
Q 3597 2675 3597 1894 
z
M 3022 2063 
Q 3016 2534 2758 2815 
Q 2500 3097 2075 3097 
Q 1594 3097 1305 2825 
Q 1016 2553 972 2059 
L 3022 2063 
z
" id="DejaVuSans-65" transform="scale(0.015625)"/>
       <path d="M 3513 2113 
L 3513 0 
L 2938 0 
L 2938 2094 
Q 2938 2591 2744 2837 
Q 2550 3084 2163 3084 
Q 1697 3084 1428 2787 
Q 1159 2491 1159 1978 
L 1159 0 
L 581 0 
L 581 3500 
L 1159 3500 
L 1159 2956 
Q 1366 3272 1645 3428 
Q 1925 3584 2291 3584 
Q 2894 3584 3203 3211 
Q 3513 2838 3513 2113 
z
" id="DejaVuSans-6e" transform="scale(0.015625)"/>
       <path d="M 2631 2963 
Q 2534 3019 2420 3045 
Q 2306 3072 2169 3072 
Q 1681 3072 1420 2755 
Q 1159 2438 1159 1844 
L 1159 0 
L 581 0 
L 581 3500 
L 1159 3500 
L 1159 2956 
Q 1341 3275 1631 3429 
Q 1922 3584 2338 3584 
Q 2397 3584 2469 3576 
Q 2541 3569 2628 3553 
L 2631 2963 
z
" id="DejaVuSans-72" transform="scale(0.015625)"/>
       <path d="M 2194 1759 
Q 1497 1759 1228 1600 
Q 959 1441 959 1056 
Q 959 750 1161 570 
Q 1363 391 1709 391 
Q 2188 391 2477 730 
Q 2766 1069 2766 1631 
L 2766 1759 
L 2194 1759 
z
M 3341 1997 
L 3341 0 
L 2766 0 
L 2766 531 
Q 2569 213 2275 61 
Q 1981 -91 1556 -91 
Q 1019 -91 701 211 
Q 384 513 384 1019 
Q 384 1609 779 1909 
Q 1175 2209 1959 2209 
L 2766 2209 
L 2766 2266 
Q 2766 2663 2505 2880 
Q 2244 3097 1772 3097 
Q 1472 3097 1187 3025 
Q 903 2953 641 2809 
L 641 3341 
Q 956 3463 1253 3523 
Q 1550 3584 1831 3584 
Q 2591 3584 2966 3190 
Q 3341 2797 3341 1997 
z
" id="DejaVuSans-61" transform="scale(0.015625)"/>
       <path d="M 1172 4494 
L 1172 3500 
L 2356 3500 
L 2356 3053 
L 1172 3053 
L 1172 1153 
Q 1172 725 1289 603 
Q 1406 481 1766 481 
L 2356 481 
L 2356 0 
L 1766 0 
Q 1100 0 847 248 
Q 594 497 594 1153 
L 594 3053 
L 172 3053 
L 172 3500 
L 594 3500 
L 594 4494 
L 1172 4494 
z
" id="DejaVuSans-74" transform="scale(0.015625)"/>
       <path d="M 603 3500 
L 1178 3500 
L 1178 0 
L 603 0 
L 603 3500 
z
M 603 4863 
L 1178 4863 
L 1178 4134 
L 603 4134 
L 603 4863 
z
" id="DejaVuSans-69" transform="scale(0.015625)"/>
       <path d="M 1959 3097 
Q 1497 3097 1228 2736 
Q 959 2375 959 1747 
Q 959 1119 1226 758 
Q 1494 397 1959 397 
Q 2419 397 2687 759 
Q 2956 1122 2956 1747 
Q 2956 2369 2687 2733 
Q 2419 3097 1959 3097 
z
M 1959 3584 
Q 2709 3584 3137 3096 
Q 3566 2609 3566 1747 
Q 3566 888 3137 398 
Q 2709 -91 1959 -91 
Q 1206 -91 779 398 
Q 353 888 353 1747 
Q 353 2609 779 3096 
Q 1206 3584 1959 3584 
z
" id="DejaVuSans-6f" transform="scale(0.015625)"/>
       <path d="M 2834 3397 
L 2834 2853 
Q 2591 2978 2328 3040 
Q 2066 3103 1784 3103 
Q 1356 3103 1142 2972 
Q 928 2841 928 2578 
Q 928 2378 1081 2264 
Q 1234 2150 1697 2047 
L 1894 2003 
Q 2506 1872 2764 1633 
Q 3022 1394 3022 966 
Q 3022 478 2636 193 
Q 2250 -91 1575 -91 
Q 1294 -91 989 -36 
Q 684 19 347 128 
L 347 722 
Q 666 556 975 473 
Q 1284 391 1588 391 
Q 1994 391 2212 530 
Q 2431 669 2431 922 
Q 2431 1156 2273 1281 
Q 2116 1406 1581 1522 
L 1381 1569 
Q 847 1681 609 1914 
Q 372 2147 372 2553 
Q 372 3047 722 3315 
Q 1072 3584 1716 3584 
Q 2034 3584 2315 3537 
Q 2597 3491 2834 3397 
z
" id="DejaVuSans-73" transform="scale(0.015625)"/>
      </defs>
      <use xlink:href="#DejaVuSans-47"/>
      <use x="77.490234" xlink:href="#DejaVuSans-65"/>
      <use x="139.013672" xlink:href="#DejaVuSans-6e"/>
      <use x="202.392578" xlink:href="#DejaVuSans-65"/>
      <use x="263.916016" xlink:href="#DejaVuSans-72"/>
      <use x="305.029297" xlink:href="#DejaVuSans-61"/>
      <use x="366.308594" xlink:href="#DejaVuSans-74"/>
      <use x="405.517578" xlink:href="#DejaVuSans-69"/>
      <use x="433.300781" xlink:href="#DejaVuSans-6f"/>
      <use x="494.482422" xlink:href="#DejaVuSans-6e"/>
      <use x="557.861328" xlink:href="#DejaVuSans-73"/>
     </g>
    </g>
   </g>
   <g id="matplotlib.axis_2">
    <g id="ytick_1">
     <g id="line2d_13">
      <path clip-path="url(#p8d4453bd06)" d="M 57.6 280.37618 
L 414.72 280.37618 
" style="fill:none;stroke:#b0b0b0;stroke-linecap:square;stroke-width:0.8;"/>
     </g>
     <g id="line2d_14">
      <defs>
       <path d="M 0 0 
L -3.5 0 
" id="m637c902f82" style="stroke:#000000;stroke-width:0.8;"/>
      </defs>
      <g>
       <use style="stroke:#000000;stroke-width:0.8;" x="57.6" xlink:href="#m637c902f82" y="280.37618"/>
      </g>
     </g>
     <g id="text_8">
      <!-- 0 -->
      <g transform="translate(44.2375 284.175398)scale(0.1 -0.1)">
       <use xlink:href="#DejaVuSans-30"/>
      </g>
     </g>
    </g>
    <g id="ytick_2">
     <g id="line2d_15">
      <path clip-path="url(#p8d4453bd06)" d="M 57.6 244.011232 
L 414.72 244.011232 
" style="fill:none;stroke:#b0b0b0;stroke-linecap:square;stroke-width:0.8;"/>
     </g>
     <g id="line2d_16">
      <g>
       <use style="stroke:#000000;stroke-width:0.8;" x="57.6" xlink:href="#m637c902f82" y="244.011232"/>
      </g>
     </g>
     <g id="text_9">
      <!-- 200 -->
      <g transform="translate(31.5125 247.810451)scale(0.1 -0.1)">
       <use xlink:href="#DejaVuSans-32"/>
       <use x="63.623047" xlink:href="#DejaVuSans-30"/>
       <use x="127.246094" xlink:href="#DejaVuSans-30"/>
      </g>
     </g>
    </g>
    <g id="ytick_3">
     <g id="line2d_17">
      <path clip-path="url(#p8d4453bd06)" d="M 57.6 207.646284 
L 414.72 207.646284 
" style="fill:none;stroke:#b0b0b0;stroke-linecap:square;stroke-width:0.8;"/>
     </g>
     <g id="line2d_18">
      <g>
       <use style="stroke:#000000;stroke-width:0.8;" x="57.6" xlink:href="#m637c902f82" y="207.646284"/>
      </g>
     </g>
     <g id="text_10">
      <!-- 400 -->
      <g transform="translate(31.5125 211.445503)scale(0.1 -0.1)">
       <use xlink:href="#DejaVuSans-34"/>
       <use x="63.623047" xlink:href="#DejaVuSans-30"/>
       <use x="127.246094" xlink:href="#DejaVuSans-30"/>
      </g>
     </g>
    </g>
    <g id="ytick_4">
     <g id="line2d_19">
      <path clip-path="url(#p8d4453bd06)" d="M 57.6 171.281336 
L 414.72 171.281336 
" style="fill:none;stroke:#b0b0b0;stroke-linecap:square;stroke-width:0.8;"/>
     </g>
     <g id="line2d_20">
      <g>
       <use style="stroke:#000000;stroke-width:0.8;" x="57.6" xlink:href="#m637c902f82" y="171.281336"/>
      </g>
     </g>
     <g id="text_11">
      <!-- 600 -->
      <g transform="translate(31.5125 175.080555)scale(0.1 -0.1)">
       <defs>
        <path d="M 2113 2584 
Q 1688 2584 1439 2293 
Q 1191 2003 1191 1497 
Q 1191 994 1439 701 
Q 1688 409 2113 409 
Q 2538 409 2786 701 
Q 3034 994 3034 1497 
Q 3034 2003 2786 2293 
Q 2538 2584 2113 2584 
z
M 3366 4563 
L 3366 3988 
Q 3128 4100 2886 4159 
Q 2644 4219 2406 4219 
Q 1781 4219 1451 3797 
Q 1122 3375 1075 2522 
Q 1259 2794 1537 2939 
Q 1816 3084 2150 3084 
Q 2853 3084 3261 2657 
Q 3669 2231 3669 1497 
Q 3669 778 3244 343 
Q 2819 -91 2113 -91 
Q 1303 -91 875 529 
Q 447 1150 447 2328 
Q 447 3434 972 4092 
Q 1497 4750 2381 4750 
Q 2619 4750 2861 4703 
Q 3103 4656 3366 4563 
z
" id="DejaVuSans-36" transform="scale(0.015625)"/>
       </defs>
       <use xlink:href="#DejaVuSans-36"/>
       <use x="63.623047" xlink:href="#DejaVuSans-30"/>
       <use x="127.246094" xlink:href="#DejaVuSans-30"/>
      </g>
     </g>
    </g>
    <g id="ytick_5">
     <g id="line2d_21">
      <path clip-path="url(#p8d4453bd06)" d="M 57.6 134.916388 
L 414.72 134.916388 
" style="fill:none;stroke:#b0b0b0;stroke-linecap:square;stroke-width:0.8;"/>
     </g>
     <g id="line2d_22">
      <g>
       <use style="stroke:#000000;stroke-width:0.8;" x="57.6" xlink:href="#m637c902f82" y="134.916388"/>
      </g>
     </g>
     <g id="text_12">
      <!-- 800 -->
      <g transform="translate(31.5125 138.715607)scale(0.1 -0.1)">
       <defs>
        <path d="M 2034 2216 
Q 1584 2216 1326 1975 
Q 1069 1734 1069 1313 
Q 1069 891 1326 650 
Q 1584 409 2034 409 
Q 2484 409 2743 651 
Q 3003 894 3003 1313 
Q 3003 1734 2745 1975 
Q 2488 2216 2034 2216 
z
M 1403 2484 
Q 997 2584 770 2862 
Q 544 3141 544 3541 
Q 544 4100 942 4425 
Q 1341 4750 2034 4750 
Q 2731 4750 3128 4425 
Q 3525 4100 3525 3541 
Q 3525 3141 3298 2862 
Q 3072 2584 2669 2484 
Q 3125 2378 3379 2068 
Q 3634 1759 3634 1313 
Q 3634 634 3220 271 
Q 2806 -91 2034 -91 
Q 1263 -91 848 271 
Q 434 634 434 1313 
Q 434 1759 690 2068 
Q 947 2378 1403 2484 
z
M 1172 3481 
Q 1172 3119 1398 2916 
Q 1625 2713 2034 2713 
Q 2441 2713 2670 2916 
Q 2900 3119 2900 3481 
Q 2900 3844 2670 4047 
Q 2441 4250 2034 4250 
Q 1625 4250 1398 4047 
Q 1172 3844 1172 3481 
z
" id="DejaVuSans-38" transform="scale(0.015625)"/>
       </defs>
       <use xlink:href="#DejaVuSans-38"/>
       <use x="63.623047" xlink:href="#DejaVuSans-30"/>
       <use x="127.246094" xlink:href="#DejaVuSans-30"/>
      </g>
     </g>
    </g>
    <g id="ytick_6">
     <g id="line2d_23">
      <path clip-path="url(#p8d4453bd06)" d="M 57.6 98.55144 
L 414.72 98.55144 
" style="fill:none;stroke:#b0b0b0;stroke-linecap:square;stroke-width:0.8;"/>
     </g>
     <g id="line2d_24">
      <g>
       <use style="stroke:#000000;stroke-width:0.8;" x="57.6" xlink:href="#m637c902f82" y="98.55144"/>
      </g>
     </g>
     <g id="text_13">
      <!-- 1000 -->
      <g transform="translate(25.15 102.350659)scale(0.1 -0.1)">
       <use xlink:href="#DejaVuSans-31"/>
       <use x="63.623047" xlink:href="#DejaVuSans-30"/>
       <use x="127.246094" xlink:href="#DejaVuSans-30"/>
       <use x="190.869141" xlink:href="#DejaVuSans-30"/>
      </g>
     </g>
    </g>
    <g id="ytick_7">
     <g id="line2d_25">
      <path clip-path="url(#p8d4453bd06)" d="M 57.6 62.186493 
L 414.72 62.186493 
" style="fill:none;stroke:#b0b0b0;stroke-linecap:square;stroke-width:0.8;"/>
     </g>
     <g id="line2d_26">
      <g>
       <use style="stroke:#000000;stroke-width:0.8;" x="57.6" xlink:href="#m637c902f82" y="62.186493"/>
      </g>
     </g>
     <g id="text_14">
      <!-- 1200 -->
      <g transform="translate(25.15 65.985711)scale(0.1 -0.1)">
       <use xlink:href="#DejaVuSans-31"/>
       <use x="63.623047" xlink:href="#DejaVuSans-32"/>
       <use x="127.246094" xlink:href="#DejaVuSans-30"/>
       <use x="190.869141" xlink:href="#DejaVuSans-30"/>
      </g>
     </g>
    </g>
    <g id="text_15">
     <!-- Fitness -->
     <g transform="translate(19.070312 191.845187)rotate(-90)scale(0.1 -0.1)">
      <defs>
       <path d="M 628 4666 
L 3309 4666 
L 3309 4134 
L 1259 4134 
L 1259 2759 
L 3109 2759 
L 3109 2228 
L 1259 2228 
L 1259 0 
L 628 0 
L 628 4666 
z
" id="DejaVuSans-46" transform="scale(0.015625)"/>
      </defs>
      <use xlink:href="#DejaVuSans-46"/>
      <use x="50.269531" xlink:href="#DejaVuSans-69"/>
      <use x="78.052734" xlink:href="#DejaVuSans-74"/>
      <use x="117.261719" xlink:href="#DejaVuSans-6e"/>
      <use x="180.640625" xlink:href="#DejaVuSans-65"/>
      <use x="242.164062" xlink:href="#DejaVuSans-73"/>
      <use x="294.263672" xlink:href="#DejaVuSans-73"/>
     </g>
    </g>
   </g>
   <g id="line2d_27">
    <path clip-path="url(#p8d4453bd06)" d="M 73.832727 278.1761 
L 74.483338 276.558587 
L 75.133948 273.123009 
L 75.784558 276.95842 
L 76.435169 273.471385 
L 77.085779 276.836598 
L 77.736389 273.786488 
L 78.386999 273.283378 
L 79.03761 269.61561 
L 79.68822 271.160938 
L 80.33883 275.033805 
L 80.989441 270.790379 
L 81.640051 261.797691 
L 82.290661 273.23174 
L 82.941272 271.773324 
L 83.591882 277.282977 
L 84.242492 276.149118 
L 84.893103 275.732376 
L 85.543713 276.167664 
L 86.194323 259.175233 
L 86.844934 267.006607 
L 87.495544 272.784997 
L 88.146154 270.865291 
L 88.796764 260.275455 
L 89.447375 277.897909 
L 90.097985 258.09374 
L 90.748595 274.427238 
L 91.399206 263.683396 
L 92.049816 273.489931 
L 92.700426 258.200653 
L 93.351037 276.589861 
L 94.001647 274.440329 
L 94.652257 275.88329 
L 95.302868 273.987404 
L 95.953478 275.119263 
L 96.604088 272.990459 
L 97.254698 274.483967 
L 97.905309 275.029441 
L 98.555919 248.941988 
L 99.206529 275.665828 
L 99.85714 276.406037 
L 100.50775 277.511167 
L 101.15836 276.152209 
L 101.808971 275.769468 
L 102.459581 261.627867 
L 103.110191 263.774861 
L 103.760802 270.471232 
L 104.411412 275.796951 
L 105.062022 241.394228 
L 105.712633 272.214431 
L 106.363243 267.764338 
L 107.013853 265.801182 
L 107.664463 276.300734 
L 108.315074 277.095988 
L 108.965684 244.003491 
L 109.616294 260.517678 
L 110.266905 274.20116 
L 110.917515 254.758165 
L 111.568125 276.531964 
L 112.218736 273.852712 
L 112.869346 265.313378 
L 113.519956 273.66521 
L 114.170567 267.86976 
L 114.821177 275.45075 
L 115.471787 267.247883 
L 116.122398 276.073297 
L 116.773008 275.99402 
L 117.423618 254.655252 
L 118.074228 264.753394 
L 118.724839 269.696823 
L 119.375449 263.190501 
L 120.026059 265.182541 
L 120.67667 270.803557 
L 121.32728 267.917405 
L 121.97789 269.682703 
L 122.628501 267.794088 
L 123.279111 254.903443 
L 123.929721 273.808266 
L 124.580332 265.785472 
L 125.230942 275.617826 
L 125.881552 276.430216 
L 126.532163 272.792452 
L 127.182773 261.200151 
L 127.833383 270.864766 
L 128.483993 272.526078 
L 129.785214 266.45495 
L 130.435824 268.430294 
L 131.086435 268.309381 
L 131.737045 269.796551 
L 132.387655 274.113045 
L 133.038266 262.011336 
L 133.688876 274.202866 
L 134.339486 259.762891 
L 134.990097 274.110136 
L 135.640707 273.004823 
L 136.291317 275.475733 
L 136.941927 269.838977 
L 137.592538 271.984241 
L 138.243148 276.396036 
L 138.893758 262.591902 
L 139.544369 270.261684 
L 140.194979 276.500612 
L 140.845589 270.221813 
L 141.4962 247.971375 
L 142.14681 277.603262 
L 142.79742 272.695721 
L 143.448031 268.911221 
L 144.098641 270.487074 
L 144.749251 269.876543 
L 145.399862 267.268453 
L 146.050472 274.450346 
L 146.701082 259.820623 
L 147.351692 256.054575 
L 148.002303 275.737489 
L 148.652913 277.07897 
L 149.303523 273.894938 
L 149.954134 259.392514 
L 150.604744 258.26574 
L 151.255354 273.35629 
L 151.905965 276.880644 
L 152.556575 270.615282 
L 153.207185 276.26262 
L 153.857796 275.459711 
L 154.508406 270.823402 
L 155.159016 273.188702 
L 155.809627 270.207676 
L 156.460237 273.271923 
L 157.110847 260.317456 
L 157.761457 267.925731 
L 158.412068 264.522715 
L 159.062678 276.250411 
L 159.713288 274.121045 
L 160.363899 272.901023 
L 161.014509 275.198399 
L 161.665119 276.070934 
L 162.31573 273.654301 
L 162.96634 267.247161 
L 163.61695 270.8522 
L 164.267561 273.377382 
L 165.568781 271.178939 
L 166.219392 274.009405 
L 166.870002 275.428365 
L 167.520612 276.059732 
L 168.171222 277.650445 
L 168.821833 267.622735 
L 169.472443 253.514302 
L 170.123053 274.677535 
L 170.773664 275.522377 
L 171.424274 271.933875 
L 172.074884 273.066105 
L 172.725495 254.474155 
L 173.376105 267.93496 
L 174.026715 275.30903 
L 174.677326 276.861562 
L 175.327936 276.134083 
L 175.978546 271.015266 
L 176.629156 276.394218 
L 177.279767 276.854 
L 177.930377 268.395384 
L 178.580987 267.875639 
L 179.231598 269.286671 
L 179.882208 272.564917 
L 180.532818 266.790841 
L 181.183429 270.680999 
L 181.834039 273.340454 
L 182.484649 258.529667 
L 183.13526 272.924855 
L 183.78587 269.037552 
L 184.43648 267.383503 
L 185.087091 277.289934 
L 185.737701 269.669641 
L 186.388311 276.431318 
L 187.038921 275.137445 
L 187.689532 270.048 
L 188.340142 273.258011 
L 188.990752 263.223016 
L 189.641363 265.851352 
L 190.291973 273.898627 
L 190.942583 272.51559 
L 191.593194 265.640557 
L 192.243804 266.937695 
L 192.894414 275.981782 
L 193.545025 267.388673 
L 194.195635 273.812488 
L 194.846245 272.955526 
L 195.496856 270.0759 
L 196.147466 260.173815 
L 196.798076 269.444695 
L 197.448686 270.451276 
L 198.099297 276.200639 
L 198.749907 278.023661 
L 199.400517 271.475951 
L 200.051128 271.924057 
L 200.701738 275.754013 
L 201.352348 271.250598 
L 202.002959 269.175594 
L 202.653569 275.624554 
L 203.304179 274.302315 
L 203.95479 273.477567 
L 204.6054 275.573068 
L 205.25601 266.961738 
L 205.906621 264.994716 
L 206.557231 271.433157 
L 207.207841 263.774126 
L 207.858451 275.5536 
L 208.509062 265.693832 
L 209.159672 266.55659 
L 209.810282 268.219196 
L 210.460893 273.535751 
L 211.111503 275.348362 
L 211.762113 266.894603 
L 212.412724 270.436185 
L 213.063334 266.402221 
L 213.713944 272.616082 
L 214.364555 275.556915 
L 215.015165 275.737467 
L 216.316385 265.202178 
L 216.966996 275.565279 
L 217.617606 260.098761 
L 218.268216 277.971548 
L 218.918827 275.705121 
L 219.569437 275.315634 
L 220.220047 262.465708 
L 220.870658 268.628832 
L 221.521268 271.724231 
L 222.171878 273.409383 
L 222.822489 278.352289 
L 223.473099 276.075935 
L 224.123709 272.884091 
L 224.77432 275.891109 
L 225.42493 254.437972 
L 226.07554 266.702232 
L 226.72615 273.789033 
L 227.376761 273.897525 
L 228.027371 273.365018 
L 228.677981 265.460733 
L 229.328592 271.778441 
L 229.979202 276.726775 
L 230.629812 276.913612 
L 231.280423 266.899694 
L 231.931033 270.351818 
L 232.581643 272.141155 
L 233.232254 259.948352 
L 233.882864 276.397854 
L 234.533474 271.41222 
L 235.184085 271.423922 
L 235.834695 274.79128 
L 236.485305 274.732052 
L 237.135915 266.989879 
L 237.786526 272.309161 
L 238.437136 273.595572 
L 239.087746 264.021772 
L 239.738357 275.965293 
L 240.388967 277.094693 
L 241.039577 276.016527 
L 241.690188 267.643856 
L 242.340798 265.117227 
L 243.642019 271.738232 
L 244.292629 274.933376 
L 244.943239 276.063661 
L 245.59385 258.908259 
L 246.24446 277.355707 
L 246.89507 267.221523 
L 247.54568 266.384039 
L 248.196291 266.077776 
L 248.846901 269.954531 
L 249.497511 270.871473 
L 250.148122 274.652925 
L 250.798732 261.526409 
L 251.449342 270.759833 
L 252.099953 269.597064 
L 252.750563 276.148391 
L 253.401173 274.794706 
L 254.051784 265.790745 
L 254.702394 267.145703 
L 255.353004 276.303489 
L 256.003615 273.527205 
L 256.654225 274.551242 
L 257.304835 271.139483 
L 257.955445 275.337453 
L 258.606056 264.964715 
L 259.256666 276.841507 
L 259.907276 267.844675 
L 261.208497 269.331418 
L 261.859107 259.947988 
L 262.509718 262.574629 
L 263.160328 267.994642 
L 263.810938 267.560596 
L 264.461549 266.600885 
L 265.762769 276.685137 
L 266.413379 273.925902 
L 267.06399 266.678716 
L 267.7146 264.7196 
L 268.36521 270.943476 
L 269.015821 271.836963 
L 269.666431 259.835678 
L 270.317041 269.181653 
L 270.967652 267.688773 
L 271.618262 267.424985 
L 272.268872 270.218658 
L 272.919483 257.801108 
L 273.570093 264.328146 
L 274.220703 268.750851 
L 274.871314 269.879492 
L 275.521924 256.767798 
L 276.172534 259.716569 
L 276.823144 263.510481 
L 277.473755 262.764893 
L 278.124365 258.913119 
L 278.774975 274.727135 
L 279.425586 276.756247 
L 280.076196 262.228798 
L 280.726806 251.165585 
L 281.377417 267.926586 
L 282.028027 259.427606 
L 282.678637 273.191785 
L 283.329248 256.815259 
L 283.979858 257.388185 
L 284.630468 276.809741 
L 285.281079 266.461996 
L 285.931689 250.867494 
L 286.582299 272.525351 
L 287.232909 270.743693 
L 287.88352 261.334722 
L 288.53413 272.175527 
L 289.18474 271.50203 
L 289.835351 265.753905 
L 290.485961 267.73633 
L 291.136571 276.675954 
L 291.787182 274.538878 
L 292.437792 276.941345 
L 293.088402 251.109958 
L 293.739013 260.856203 
L 294.389623 259.516155 
L 295.040233 270.507137 
L 295.690844 278.146396 
L 296.341454 257.728018 
L 296.992064 262.128067 
L 297.642674 274.590192 
L 298.293285 265.932635 
L 298.943895 269.70234 
L 299.594505 275.237994 
L 300.245116 270.676921 
L 300.895726 253.925181 
L 301.546336 265.39473 
L 302.196947 273.736122 
L 302.847557 275.973475 
L 303.498167 273.354108 
L 304.148778 276.679017 
L 304.799388 267.090552 
L 305.449998 267.622704 
L 306.100608 275.871701 
L 306.751219 263.862086 
L 307.401829 272.926324 
L 308.052439 261.549054 
L 308.70305 268.263412 
L 309.35366 268.98783 
L 310.00427 274.198502 
L 311.305491 260.058459 
L 311.956101 275.354756 
L 312.606712 273.790344 
L 313.257322 274.909196 
L 313.907932 267.066791 
L 314.558543 273.760305 
L 315.209153 266.718778 
L 315.859763 273.344337 
L 316.510373 269.228303 
L 317.160984 276.768152 
L 317.811594 260.288587 
L 319.112815 271.773688 
L 319.763425 261.996086 
L 320.414035 271.144574 
L 321.064646 275.769286 
L 321.715256 253.920135 
L 322.365866 267.372772 
L 323.016477 273.995404 
L 323.667087 276.222835 
L 324.317697 270.796176 
L 324.968308 260.628558 
L 325.618918 268.103928 
L 326.269528 262.832456 
L 326.920138 261.916605 
L 327.570749 267.972672 
L 328.221359 277.124217 
L 328.871969 275.918413 
L 329.52258 266.216713 
L 330.17319 263.816937 
L 330.8238 270.193812 
L 331.474411 274.900046 
L 332.125021 265.718765 
L 332.775631 263.248835 
L 333.426242 268.372992 
L 334.076852 270.521099 
L 334.727462 271.086896 
L 335.378073 274.8918 
L 336.028683 264.269235 
L 336.679293 268.157197 
L 337.329903 269.736937 
L 337.980514 262.021062 
L 338.631124 267.573881 
L 339.281734 271.722424 
L 339.932345 263.512591 
L 340.582955 258.310937 
L 341.233565 260.496491 
L 341.884176 261.598879 
L 342.534786 268.472114 
L 343.185396 269.318326 
L 343.836007 263.456842 
L 344.486617 269.85018 
L 345.137227 273.614663 
L 345.787837 272.212429 
L 346.438448 267.461042 
L 347.089058 263.979369 
L 347.739668 243.134153 
L 348.390279 270.185533 
L 349.040889 266.290763 
L 349.691499 275.760586 
L 350.34211 265.54075 
L 350.99272 267.603901 
L 351.64333 257.263015 
L 352.293941 257.603441 
L 352.944551 268.499167 
L 354.245772 270.698696 
L 354.896382 249.108688 
L 355.546992 261.813692 
L 356.197602 263.955042 
L 356.848213 277.160942 
L 357.498823 251.981816 
L 358.149433 259.554007 
L 358.800044 261.621685 
L 359.450654 275.350544 
L 360.101264 261.347411 
L 360.751875 273.630664 
L 361.402485 276.013826 
L 362.053095 265.12072 
L 362.703706 268.944858 
L 363.354316 273.793389 
L 364.004926 266.5815 
L 364.655537 260.898205 
L 365.306147 259.110426 
L 365.956757 272.614964 
L 366.607367 276.40224 
L 367.257978 274.64348 
L 367.908588 267.291999 
L 368.559198 266.520778 
L 369.209809 272.398708 
L 369.860419 256.421498 
L 370.511029 274.848889 
L 371.16164 271.8506 
L 371.81225 266.196972 
L 372.46286 275.348726 
L 373.764081 268.586016 
L 374.414691 258.781161 
L 375.065302 269.018373 
L 375.715912 277.418141 
L 376.366522 272.671851 
L 377.017132 270.287731 
L 377.667743 269.639065 
L 378.318353 271.55822 
L 378.968963 277.011687 
L 379.619574 268.605937 
L 380.270184 277.089292 
L 380.920794 267.458623 
L 381.571405 276.478178 
L 382.222015 270.501983 
L 382.872625 267.849197 
L 383.523236 273.477859 
L 384.173846 247.033088 
L 384.824456 275.175101 
L 385.475066 272.729736 
L 386.125677 274.634118 
L 386.776287 273.110855 
L 387.426897 277.41618 
L 388.077508 277.392828 
L 388.728118 266.483344 
L 389.378728 257.938467 
L 390.029339 274.114318 
L 390.679949 276.47808 
L 391.330559 276.73423 
L 391.98117 271.745868 
L 392.63178 269.946641 
L 393.28239 273.914093 
L 393.933001 275.730736 
L 394.583611 274.519803 
L 395.234221 263.717468 
L 395.884831 277.812094 
L 396.535442 267.793195 
L 397.186052 255.664415 
L 397.836662 237.847373 
L 398.487273 265.79954 
L 398.487273 265.79954 
" style="fill:none;stroke:#0000ff;stroke-linecap:square;stroke-width:1.5;"/>
   </g>
   <g id="line2d_28">
    <path clip-path="url(#p8d4453bd06)" d="M 73.832727 283.190011 
L 74.483338 280.172649 
L 75.133948 281.702242 
L 76.435169 282.338613 
L 77.085779 284.805302 
L 77.736389 284.820713 
L 78.386999 279.54039 
L 79.03761 283.463781 
L 79.68822 291.820615 
L 80.33883 280.409221 
L 80.989441 281.972079 
L 81.640051 286.226534 
L 82.290661 278.812725 
L 82.941272 280.709391 
L 84.242492 279.544784 
L 84.893103 281.627534 
L 85.543713 282.265042 
L 86.194323 279.60007 
L 86.844934 281.134084 
L 87.495544 277.818686 
L 88.146154 281.220527 
L 88.796764 281.749501 
L 89.447375 283.009895 
L 90.097985 276.495022 
L 90.748595 282.764179 
L 91.399206 283.168065 
L 92.049816 279.726244 
L 92.700426 278.077144 
L 93.351037 278.643618 
L 94.001647 283.128718 
L 94.652257 282.584778 
L 95.302868 285.355703 
L 95.953478 278.560124 
L 96.604088 282.192787 
L 97.254698 279.771059 
L 97.905309 278.04643 
L 98.555919 269.208411 
L 99.206529 279.184174 
L 99.85714 279.41008 
L 100.50775 282.885579 
L 101.15836 279.891673 
L 101.808971 282.701696 
L 102.459581 276.541668 
L 103.110191 277.712641 
L 103.760802 287.724227 
L 104.411412 280.032017 
L 105.062022 279.529002 
L 105.712633 283.392972 
L 106.363243 281.553916 
L 107.013853 282.694528 
L 107.664463 281.037571 
L 108.315074 279.846447 
L 108.965684 272.596311 
L 110.266905 281.071125 
L 110.917515 279.305226 
L 111.568125 282.457793 
L 112.218736 280.574669 
L 112.869346 280.276 
L 113.519956 288.611274 
L 114.170567 283.00539 
L 114.821177 280.963388 
L 115.471787 287.476892 
L 116.122398 279.4744 
L 116.773008 283.426066 
L 117.423618 286.247059 
L 118.074228 278.146155 
L 118.724839 281.434086 
L 119.375449 283.319439 
L 120.026059 294.227398 
L 120.67667 283.68885 
L 121.32728 279.17164 
L 121.97789 282.707129 
L 122.628501 280.076852 
L 123.279111 274.952614 
L 123.929721 278.952266 
L 125.230942 282.236911 
L 125.881552 283.602325 
L 126.532163 277.805049 
L 127.182773 275.478692 
L 127.833383 285.757119 
L 128.483993 283.422509 
L 129.134604 281.979311 
L 129.785214 279.513172 
L 130.435824 285.824039 
L 131.086435 278.734326 
L 131.737045 280.463356 
L 132.387655 280.052901 
L 133.038266 287.610405 
L 133.688876 279.68065 
L 134.339486 284.141604 
L 134.990097 285.567218 
L 135.640707 282.136232 
L 136.291317 286.418866 
L 136.941927 285.572715 
L 137.592538 278.704389 
L 138.243148 282.357971 
L 138.893758 280.971431 
L 139.544369 281.265163 
L 140.194979 281.332288 
L 140.845589 279.353282 
L 141.4962 277.004491 
L 142.14681 281.068653 
L 142.79742 283.000991 
L 143.448031 281.001589 
L 144.098641 284.507683 
L 144.749251 293.217551 
L 145.399862 282.754876 
L 146.701082 277.154503 
L 147.351692 281.305069 
L 148.002303 279.762934 
L 148.652913 284.580327 
L 149.954134 274.920576 
L 150.604744 284.76113 
L 151.255354 284.646598 
L 151.905965 281.060905 
L 152.556575 285.908481 
L 153.207185 279.903518 
L 153.857796 281.211728 
L 154.508406 283.47441 
L 155.159016 279.168011 
L 155.809627 279.263282 
L 156.460237 286.112356 
L 157.110847 281.208035 
L 157.761457 280.742752 
L 158.412068 276.53896 
L 159.062678 282.096515 
L 159.713288 285.009454 
L 160.363899 283.680204 
L 161.014509 280.116627 
L 161.665119 280.632792 
L 162.31573 280.98567 
L 162.96634 288.186228 
L 163.61695 282.763702 
L 164.267561 281.650238 
L 164.918171 282.57283 
L 165.568781 279.569531 
L 166.219392 281.922789 
L 166.870002 279.788963 
L 167.520612 279.862238 
L 168.171222 282.272412 
L 168.821833 279.347842 
L 169.472443 282.016796 
L 170.123053 280.299243 
L 170.773664 284.889229 
L 171.424274 283.299193 
L 172.074884 288.774262 
L 172.725495 278.802948 
L 173.376105 278.954851 
L 174.026715 283.039264 
L 174.677326 280.233521 
L 175.327936 283.967455 
L 175.978546 283.670904 
L 176.629156 283.127333 
L 177.279767 281.392606 
L 178.580987 286.520256 
L 179.231598 284.917375 
L 179.882208 284.295254 
L 180.532818 286.297834 
L 181.834039 280.565021 
L 182.484649 280.931991 
L 183.13526 283.518768 
L 183.78587 278.777122 
L 184.43648 278.326008 
L 185.087091 278.880544 
L 185.737701 280.648416 
L 186.388311 279.120865 
L 187.038921 281.512925 
L 187.689532 290.466116 
L 188.340142 280.796602 
L 188.990752 274.911446 
L 189.641363 277.91327 
L 190.291973 285.732216 
L 190.942583 284.317024 
L 191.593194 276.454095 
L 192.243804 279.437723 
L 192.894414 281.150037 
L 193.545025 277.132956 
L 194.195635 279.824402 
L 194.846245 281.073113 
L 195.496856 278.782343 
L 196.147466 279.427397 
L 196.798076 284.289571 
L 197.448686 284.377276 
L 198.099297 279.408961 
L 199.400517 281.024553 
L 200.051128 281.101878 
L 200.701738 279.652547 
L 201.352348 279.330049 
L 202.002959 283.947593 
L 202.653569 278.997844 
L 203.304179 280.832073 
L 203.95479 279.023038 
L 204.6054 280.683456 
L 205.25601 277.317037 
L 205.906621 278.805201 
L 206.557231 282.754108 
L 207.207841 280.630496 
L 207.858451 282.302654 
L 209.159672 286.077123 
L 209.810282 279.78846 
L 210.460893 285.778348 
L 211.111503 284.049467 
L 211.762113 275.954233 
L 212.412724 280.264355 
L 213.063334 285.36591 
L 213.713944 277.430839 
L 214.364555 280.575497 
L 215.015165 282.794887 
L 215.665775 279.249286 
L 216.316385 284.268372 
L 216.966996 282.398469 
L 217.617606 284.092503 
L 218.268216 280.555896 
L 218.918827 280.837368 
L 219.569437 283.733307 
L 220.220047 280.431691 
L 220.870658 278.688661 
L 221.521268 281.692786 
L 222.171878 282.342511 
L 222.822489 281.870674 
L 223.473099 283.839501 
L 224.123709 283.819544 
L 224.77432 285.816672 
L 225.42493 279.070829 
L 226.07554 277.718581 
L 226.72615 280.078326 
L 227.376761 284.702027 
L 228.027371 286.202575 
L 229.328592 279.213701 
L 229.979202 280.099276 
L 230.629812 279.828611 
L 231.280423 284.531397 
L 231.931033 285.058134 
L 232.581643 279.227617 
L 233.232254 277.5911 
L 233.882864 279.190955 
L 234.533474 277.084499 
L 235.834695 284.203347 
L 236.485305 283.302448 
L 237.135915 285.877883 
L 237.786526 287.947381 
L 238.437136 280.695816 
L 239.087746 275.897355 
L 239.738357 280.423618 
L 240.388967 283.703481 
L 241.039577 280.189208 
L 241.690188 280.934837 
L 242.340798 276.100912 
L 243.642019 281.682022 
L 244.292629 278.916323 
L 244.943239 281.086455 
L 245.59385 284.824059 
L 246.24446 280.475255 
L 246.89507 280.860516 
L 247.54568 285.208166 
L 248.196291 275.419138 
L 248.846901 278.836308 
L 249.497511 281.598532 
L 250.148122 283.511023 
L 250.798732 292.397033 
L 251.449342 290.023838 
L 252.099953 289.895387 
L 252.750563 279.426079 
L 253.401173 285.215186 
L 254.051784 277.653172 
L 254.702394 284.308447 
L 255.353004 280.349551 
L 256.654225 283.367083 
L 257.304835 279.35602 
L 257.955445 282.530483 
L 258.606056 276.442088 
L 259.256666 279.673353 
L 259.907276 279.81405 
L 260.557887 281.539566 
L 261.208497 278.062082 
L 261.859107 280.414053 
L 262.509718 284.420836 
L 263.160328 289.212868 
L 263.810938 290.996954 
L 264.461549 278.960735 
L 265.112159 285.332428 
L 265.762769 281.588704 
L 266.413379 282.36564 
L 267.06399 288.281776 
L 267.7146 277.03454 
L 268.36521 282.193594 
L 269.015821 284.128787 
L 269.666431 282.275675 
L 270.317041 289.531513 
L 270.967652 282.05306 
L 271.618262 279.349179 
L 272.268872 284.675454 
L 272.919483 295.488 
L 273.570093 279.375229 
L 274.220703 281.013173 
L 274.871314 282.287361 
L 275.521924 275.617596 
L 276.172534 279.294058 
L 276.823144 278.943588 
L 277.473755 277.391922 
L 278.124365 280.799282 
L 278.774975 281.454377 
L 279.425586 279.641874 
L 280.076196 288.933083 
L 280.726806 277.303261 
L 281.377417 286.352776 
L 282.028027 275.670373 
L 282.678637 288.108122 
L 283.329248 276.322912 
L 283.979858 278.433708 
L 284.630468 279.073443 
L 285.281079 289.30048 
L 285.931689 276.207684 
L 286.582299 283.612392 
L 287.232909 283.441932 
L 287.88352 283.091984 
L 288.53413 281.517306 
L 289.18474 283.377168 
L 289.835351 284.531268 
L 290.485961 279.574653 
L 291.136571 279.050845 
L 291.787182 279.549171 
L 292.437792 279.441427 
L 293.088402 277.321467 
L 293.739013 279.170948 
L 294.389623 273.112278 
L 295.040233 277.907233 
L 295.690844 280.394131 
L 296.341454 275.345737 
L 296.992064 279.533442 
L 297.642674 285.524751 
L 298.293285 282.935251 
L 298.943895 282.815453 
L 299.594505 282.818316 
L 300.245116 281.579436 
L 300.895726 282.778227 
L 301.546336 287.362575 
L 302.196947 281.758042 
L 302.847557 281.542358 
L 303.498167 284.441792 
L 304.148778 284.753479 
L 304.799388 286.481932 
L 305.449998 279.193739 
L 306.100608 282.811424 
L 306.751219 276.104392 
L 307.401829 281.534841 
L 308.052439 282.531466 
L 308.70305 281.699659 
L 309.35366 282.871327 
L 310.00427 280.411616 
L 310.654881 283.476619 
L 311.305491 281.329433 
L 311.956101 281.380654 
L 312.606712 285.46359 
L 313.257322 283.399739 
L 313.907932 289.102128 
L 314.558543 282.613065 
L 315.209153 283.343894 
L 316.510373 281.941167 
L 317.160984 282.724921 
L 317.811594 283.691777 
L 318.462204 282.868114 
L 319.112815 283.902134 
L 319.763425 282.89249 
L 321.064646 282.128285 
L 321.715256 282.740043 
L 322.365866 279.904394 
L 323.016477 285.792661 
L 323.667087 280.809888 
L 324.317697 279.905604 
L 324.968308 274.335577 
L 325.618918 279.944445 
L 326.269528 275.864546 
L 326.920138 287.127327 
L 327.570749 278.559445 
L 328.221359 280.924719 
L 329.52258 277.805885 
L 330.17319 293.358641 
L 330.8238 278.064012 
L 331.474411 284.241076 
L 332.125021 279.370198 
L 332.775631 279.12011 
L 333.426242 279.446683 
L 334.076852 282.381476 
L 334.727462 281.611651 
L 335.378073 283.902833 
L 336.028683 276.761732 
L 336.679293 283.005188 
L 337.329903 277.354991 
L 337.980514 276.118019 
L 338.631124 280.830527 
L 339.281734 279.266497 
L 339.932345 282.313629 
L 340.582955 283.030977 
L 341.233565 293.456099 
L 341.884176 280.765708 
L 342.534786 281.495325 
L 343.185396 289.247636 
L 343.836007 282.518358 
L 344.486617 286.127002 
L 345.137227 281.585643 
L 345.787837 278.1512 
L 346.438448 284.182788 
L 347.089058 286.255931 
L 347.739668 274.750413 
L 348.390279 282.437204 
L 349.040889 283.821511 
L 349.691499 284.125621 
L 350.34211 279.640444 
L 350.99272 283.775291 
L 351.64333 273.757206 
L 352.293941 276.86084 
L 352.944551 284.396914 
L 353.595161 286.1914 
L 354.245772 281.293065 
L 354.896382 273.958578 
L 355.546992 283.781766 
L 356.197602 284.03271 
L 357.498823 275.32052 
L 358.149433 284.482365 
L 358.800044 279.854364 
L 359.450654 279.376782 
L 360.101264 276.600347 
L 360.751875 281.896566 
L 361.402485 281.129517 
L 362.053095 277.27038 
L 362.703706 277.299353 
L 363.354316 280.920658 
L 364.004926 286.567897 
L 364.655537 281.842894 
L 365.306147 286.855705 
L 365.956757 282.173009 
L 366.607367 279.239633 
L 367.257978 279.037678 
L 367.908588 280.018054 
L 368.559198 284.703575 
L 369.209809 284.494132 
L 369.860419 280.612055 
L 370.511029 285.022504 
L 371.16164 279.287308 
L 371.81225 287.360845 
L 372.46286 283.332499 
L 373.113471 278.5747 
L 373.764081 280.034085 
L 374.414691 278.621856 
L 375.065302 278.397512 
L 375.715912 283.276186 
L 376.366522 280.254041 
L 377.017132 281.871474 
L 377.667743 282.994549 
L 378.318353 280.116926 
L 378.968963 281.978072 
L 379.619574 285.797143 
L 380.270184 280.346116 
L 380.920794 282.1718 
L 381.571405 279.412116 
L 382.222015 279.200559 
L 382.872625 281.581177 
L 383.523236 280.654459 
L 384.173846 271.35035 
L 385.475066 288.043591 
L 386.125677 284.665193 
L 386.776287 279.906536 
L 387.426897 280.639276 
L 388.077508 280.529299 
L 388.728118 281.172061 
L 390.029339 278.332383 
L 390.679949 283.157391 
L 391.330559 280.365606 
L 391.98117 281.034602 
L 392.63178 281.936264 
L 393.28239 281.334872 
L 393.933001 280.432235 
L 394.583611 282.955928 
L 395.234221 286.4901 
L 395.884831 280.38109 
L 396.535442 281.794919 
L 397.186052 279.873954 
L 397.836662 277.606351 
L 398.487273 288.207249 
L 398.487273 288.207249 
" style="fill:none;stroke:#008000;stroke-dasharray:9.6,2.4,1.5,2.4;stroke-dashoffset:0;stroke-width:1.5;"/>
   </g>
   <g id="line2d_29">
    <path clip-path="url(#p8d4453bd06)" d="M 73.832727 273.16219 
L 74.483338 272.944526 
L 75.133948 264.543776 
L 75.784558 271.955554 
L 76.435169 264.604158 
L 77.085779 268.867893 
L 77.736389 262.752262 
L 78.386999 267.026367 
L 79.03761 255.767439 
L 79.68822 250.501261 
L 80.33883 269.65839 
L 80.989441 259.60868 
L 81.640051 237.368849 
L 82.290661 267.650755 
L 82.941272 262.837257 
L 83.591882 274.438435 
L 84.242492 272.753452 
L 84.893103 269.837218 
L 85.543713 270.070287 
L 86.194323 238.750396 
L 87.495544 267.751308 
L 88.146154 260.510055 
L 88.796764 238.801408 
L 89.447375 272.785922 
L 90.097985 239.692457 
L 90.748595 266.090297 
L 91.399206 244.198727 
L 92.049816 267.253619 
L 92.700426 238.324162 
L 93.351037 274.536104 
L 94.001647 265.75194 
L 94.652257 269.181803 
L 95.302868 262.619105 
L 95.953478 271.678401 
L 96.604088 263.788131 
L 97.254698 269.196875 
L 97.905309 272.012452 
L 98.555919 228.675566 
L 99.206529 272.147482 
L 99.85714 273.401993 
L 100.50775 272.136755 
L 101.15836 272.412745 
L 101.808971 268.83724 
L 102.459581 246.714066 
L 103.760802 253.218237 
L 104.411412 271.561886 
L 105.062022 203.259454 
L 105.712633 261.03589 
L 106.363243 253.974761 
L 107.013853 248.907836 
L 107.664463 271.563898 
L 108.315074 274.345529 
L 108.965684 215.41067 
L 109.616294 244.17197 
L 110.266905 267.331195 
L 110.917515 230.211104 
L 111.568125 270.606135 
L 112.218736 267.130755 
L 112.869346 250.350755 
L 113.519956 258.719146 
L 114.170567 252.73413 
L 114.821177 269.938111 
L 115.471787 247.018873 
L 116.122398 272.672194 
L 116.773008 268.561974 
L 117.423618 223.063446 
L 118.074228 251.360633 
L 118.724839 257.95956 
L 119.375449 243.061564 
L 120.026059 236.137683 
L 120.67667 257.918264 
L 121.32728 256.663169 
L 121.97789 256.658278 
L 122.628501 255.511324 
L 123.279111 234.854272 
L 123.929721 268.664266 
L 124.580332 250.830585 
L 125.230942 268.998741 
L 125.881552 269.258106 
L 126.532163 267.779854 
L 127.182773 246.921609 
L 127.833383 255.972412 
L 128.483993 261.629648 
L 129.134604 256.834075 
L 129.785214 253.396728 
L 130.435824 251.03655 
L 131.086435 257.884436 
L 131.737045 259.129746 
L 132.387655 268.173188 
L 133.038266 236.412266 
L 133.688876 268.725082 
L 134.339486 235.384177 
L 134.990097 262.653053 
L 135.640707 263.873414 
L 136.291317 264.5326 
L 136.941927 254.105239 
L 137.592538 265.264093 
L 138.243148 270.434102 
L 138.893758 244.212373 
L 139.544369 259.258204 
L 140.194979 271.668936 
L 140.845589 261.090345 
L 141.4962 218.938258 
L 142.14681 274.137871 
L 142.79742 262.390451 
L 143.448031 256.820852 
L 144.098641 256.466465 
L 144.749251 246.535535 
L 145.399862 251.78203 
L 146.050472 268.836847 
L 146.701082 242.486743 
L 147.351692 230.804082 
L 148.002303 271.712043 
L 148.652913 269.577613 
L 149.303523 268.14602 
L 149.954134 243.864451 
L 150.604744 231.770351 
L 151.255354 262.065982 
L 151.905965 272.700383 
L 152.556575 255.322084 
L 153.207185 272.621722 
L 153.857796 269.707694 
L 154.508406 258.172393 
L 155.159016 267.209392 
L 155.809627 261.15207 
L 156.460237 260.431491 
L 157.110847 239.426877 
L 157.761457 255.108709 
L 158.412068 252.506471 
L 159.062678 270.404307 
L 159.713288 263.232636 
L 160.363899 262.121841 
L 161.014509 270.280171 
L 161.665119 271.509075 
L 162.31573 266.322932 
L 162.96634 246.308094 
L 163.61695 258.940698 
L 164.267561 265.104526 
L 164.918171 261.777138 
L 165.568781 262.788346 
L 166.219392 266.09602 
L 166.870002 271.067767 
L 167.520612 272.257227 
L 168.171222 273.028478 
L 168.821833 255.897629 
L 169.472443 225.011807 
L 170.123053 269.055828 
L 170.773664 266.155526 
L 171.424274 260.568558 
L 172.074884 257.357949 
L 172.725495 230.145361 
L 173.376105 256.915068 
L 174.026715 267.578797 
L 174.677326 273.489602 
L 175.327936 268.30071 
L 175.978546 258.359628 
L 176.629156 269.661103 
L 177.279767 272.315395 
L 177.930377 253.01159 
L 178.580987 249.231022 
L 179.231598 253.655967 
L 179.882208 260.834579 
L 180.532818 247.283849 
L 181.183429 257.921886 
L 181.834039 266.115886 
L 182.484649 236.127344 
L 183.13526 262.330942 
L 184.43648 256.440999 
L 185.087091 275.699324 
L 185.737701 258.690867 
L 186.388311 273.74177 
L 187.038921 268.761966 
L 187.689532 249.629883 
L 188.340142 265.719421 
L 188.990752 251.534585 
L 189.641363 253.789433 
L 190.291973 262.065039 
L 190.942583 260.714156 
L 191.593194 254.82702 
L 192.243804 254.437667 
L 192.894414 270.813526 
L 193.545025 257.644389 
L 194.195635 267.800575 
L 195.496856 261.369457 
L 196.147466 240.920232 
L 196.798076 254.599818 
L 197.448686 256.525277 
L 198.099297 272.992317 
L 198.749907 275.750871 
L 199.400517 261.927348 
L 200.051128 262.746235 
L 200.701738 271.855479 
L 202.002959 254.403595 
L 202.653569 272.251263 
L 203.304179 267.772557 
L 203.95479 267.932096 
L 204.6054 270.46268 
L 205.25601 256.606439 
L 205.906621 251.18423 
L 206.557231 260.112207 
L 207.207841 246.917757 
L 207.858451 268.804546 
L 208.509062 247.033252 
L 209.159672 247.036058 
L 209.810282 256.649932 
L 211.111503 266.647257 
L 211.762113 257.834972 
L 212.412724 260.608015 
L 213.063334 247.438532 
L 213.713944 267.801325 
L 214.364555 270.538333 
L 215.015165 268.680046 
L 215.665775 261.935459 
L 216.316385 246.135984 
L 216.966996 268.732088 
L 217.617606 236.105018 
L 218.268216 275.387199 
L 218.918827 270.572873 
L 219.569437 266.89796 
L 220.220047 244.499725 
L 220.870658 258.569003 
L 222.171878 264.476255 
L 222.822489 274.833903 
L 224.123709 261.948639 
L 224.77432 265.965545 
L 225.42493 229.805114 
L 226.07554 255.685883 
L 226.72615 267.49974 
L 227.376761 263.093024 
L 228.027371 260.527461 
L 228.677981 248.154271 
L 229.328592 264.34318 
L 229.979202 273.354275 
L 230.629812 273.998614 
L 231.280423 249.267991 
L 231.931033 255.645503 
L 232.581643 265.054693 
L 233.232254 242.305605 
L 233.882864 273.604754 
L 234.533474 265.739941 
L 235.184085 262.442239 
L 235.834695 265.379213 
L 236.485305 266.161655 
L 237.135915 248.101874 
L 238.437136 266.495327 
L 239.087746 252.146188 
L 239.738357 271.506968 
L 240.388967 270.485905 
L 241.039577 271.843845 
L 241.690188 254.352876 
L 242.340798 254.133543 
L 242.991408 258.477995 
L 243.642019 261.794441 
L 244.292629 270.950428 
L 244.943239 271.040866 
L 245.59385 232.992458 
L 246.24446 274.236159 
L 246.89507 253.582531 
L 247.54568 247.559911 
L 248.196291 256.736415 
L 248.846901 261.072754 
L 249.497511 260.144414 
L 250.148122 265.794826 
L 250.798732 230.655785 
L 251.449342 251.495827 
L 252.099953 249.298741 
L 252.750563 272.870703 
L 253.401173 264.374226 
L 254.051784 253.928317 
L 254.702394 249.982958 
L 255.353004 272.257427 
L 256.003615 265.162691 
L 256.654225 265.735401 
L 257.304835 262.922946 
L 257.955445 268.144423 
L 258.606056 253.487342 
L 259.256666 274.00966 
L 259.907276 255.8753 
L 260.557887 255.726128 
L 261.208497 260.600754 
L 261.859107 239.481924 
L 262.509718 240.728421 
L 263.160328 246.776417 
L 263.810938 244.124238 
L 264.461549 254.241036 
L 265.112159 258.787109 
L 265.762769 271.781571 
L 266.413379 265.486164 
L 267.06399 245.075656 
L 268.36521 259.693358 
L 269.015821 259.545138 
L 269.666431 237.39568 
L 270.317041 248.831793 
L 270.967652 253.324487 
L 271.618262 255.500791 
L 272.268872 255.761861 
L 272.919483 220.114216 
L 273.570093 249.281064 
L 274.220703 256.488529 
L 274.871314 257.471622 
L 275.521924 237.918001 
L 276.172534 240.13908 
L 276.823144 248.077373 
L 277.473755 248.137863 
L 278.124365 237.026957 
L 278.774975 267.999892 
L 279.425586 273.870621 
L 280.076196 235.524513 
L 280.726806 225.027909 
L 281.377417 249.500395 
L 282.028027 243.184839 
L 282.678637 258.275448 
L 283.329248 237.307605 
L 283.979858 236.342661 
L 284.630468 274.546039 
L 285.281079 243.623511 
L 285.931689 225.527304 
L 286.582299 261.43831 
L 287.232909 258.045453 
L 287.88352 239.577459 
L 288.53413 262.833749 
L 289.18474 259.626893 
L 289.835351 246.976543 
L 290.485961 255.898007 
L 291.136571 274.301064 
L 291.787182 269.528586 
L 292.437792 274.441263 
L 293.088402 224.898449 
L 293.739013 242.541458 
L 294.389623 245.920031 
L 295.040233 263.107041 
L 295.690844 275.898662 
L 296.341454 240.110299 
L 296.992064 244.722692 
L 297.642674 263.655634 
L 298.293285 248.930018 
L 298.943895 256.589228 
L 299.594505 267.657673 
L 300.245116 259.774406 
L 300.895726 225.072135 
L 301.546336 243.426886 
L 302.196947 265.714202 
L 302.847557 270.404593 
L 303.498167 262.266425 
L 304.148778 268.604555 
L 304.799388 247.699172 
L 305.449998 256.05167 
L 306.100608 268.931979 
L 306.751219 251.619779 
L 307.401829 264.317807 
L 308.052439 240.566643 
L 308.70305 254.827164 
L 309.35366 255.104333 
L 310.00427 267.985389 
L 310.654881 250.803543 
L 311.305491 238.787484 
L 311.956101 269.328859 
L 312.606712 262.117097 
L 313.257322 266.418652 
L 313.907932 245.031453 
L 314.558543 264.907544 
L 315.209153 250.093662 
L 315.859763 264.054186 
L 316.510373 256.515439 
L 317.160984 270.811384 
L 317.811594 236.885396 
L 318.462204 249.367944 
L 319.112815 259.645241 
L 319.763425 241.099682 
L 320.414035 259.719038 
L 321.064646 269.410288 
L 321.715256 225.100227 
L 322.365866 254.84115 
L 323.016477 262.198148 
L 323.667087 271.635781 
L 324.317697 261.686748 
L 324.968308 246.92154 
L 325.618918 256.263411 
L 326.269528 249.800367 
L 326.920138 236.705883 
L 327.570749 257.3859 
L 328.221359 273.323715 
L 328.871969 272.499377 
L 330.17319 234.275233 
L 330.8238 262.323613 
L 331.474411 265.559016 
L 332.125021 252.067333 
L 332.775631 247.37756 
L 333.426242 257.299301 
L 334.076852 258.660722 
L 334.727462 260.562142 
L 335.378073 265.880767 
L 336.028683 251.776738 
L 336.679293 253.309206 
L 337.329903 262.118883 
L 337.980514 247.924106 
L 338.631124 254.317236 
L 339.281734 264.178351 
L 339.932345 244.711554 
L 340.582955 233.590898 
L 341.233565 227.536884 
L 342.534786 255.448903 
L 343.185396 249.389016 
L 343.836007 244.395327 
L 344.486617 253.573358 
L 345.137227 265.643683 
L 345.787837 266.273658 
L 346.438448 250.739296 
L 347.089058 241.702807 
L 347.739668 211.517892 
L 348.390279 257.933863 
L 349.040889 248.760014 
L 349.691499 267.395552 
L 350.34211 251.441056 
L 350.99272 251.432511 
L 351.64333 240.768823 
L 352.293941 238.346043 
L 352.944551 252.601421 
L 353.595161 253.234571 
L 354.245772 260.104326 
L 354.896382 224.258799 
L 355.546992 239.845619 
L 356.197602 243.877374 
L 356.848213 275.031609 
L 357.498823 228.643112 
L 358.149433 234.625648 
L 358.800044 243.389006 
L 359.450654 271.324306 
L 360.101264 246.094474 
L 360.751875 265.364762 
L 361.402485 270.898135 
L 362.053095 252.971061 
L 362.703706 260.590364 
L 363.354316 266.666121 
L 364.004926 246.595104 
L 364.655537 239.953515 
L 365.306147 231.365148 
L 365.956757 263.056918 
L 366.607367 273.564846 
L 367.257978 270.249281 
L 367.908588 254.565945 
L 368.559198 248.337981 
L 369.209809 260.303285 
L 369.860419 232.230941 
L 370.511029 264.675275 
L 371.16164 264.413891 
L 371.81225 245.0331 
L 372.46286 267.364952 
L 373.113471 265.854076 
L 373.764081 257.137946 
L 374.414691 238.940467 
L 375.065302 259.639233 
L 375.715912 271.560095 
L 377.017132 258.703988 
L 377.667743 256.283582 
L 378.318353 262.999513 
L 378.968963 272.045302 
L 379.619574 251.414731 
L 380.270184 273.832469 
L 380.920794 252.745446 
L 381.571405 273.54424 
L 382.222015 261.803408 
L 382.872625 254.117218 
L 383.523236 266.301259 
L 384.173846 222.715825 
L 384.824456 271.011318 
L 385.475066 257.415881 
L 386.125677 264.603044 
L 386.776287 266.315174 
L 387.426897 274.193083 
L 388.077508 274.256356 
L 388.728118 251.794626 
L 389.378728 236.253283 
L 390.029339 269.896252 
L 390.679949 269.798769 
L 391.330559 273.102854 
L 391.98117 262.457134 
L 392.63178 257.957017 
L 393.28239 266.493313 
L 393.933001 271.029236 
L 394.583611 266.083678 
L 395.234221 240.944837 
L 395.884831 275.243099 
L 397.186052 231.454876 
L 397.836662 198.088395 
L 398.487273 243.391831 
L 398.487273 243.391831 
" style="fill:none;stroke:#008000;stroke-dasharray:9.6,2.4,1.5,2.4;stroke-dashoffset:0;stroke-width:1.5;"/>
   </g>
   <g id="line2d_30">
    <path clip-path="url(#p8d4453bd06)" d="M 73.832727 235.683659 
L 74.483338 262.139158 
L 75.133948 231.792609 
L 75.784558 243.011196 
L 76.435169 233.792682 
L 77.085779 207.282635 
L 77.736389 224.919634 
L 78.386999 256.593504 
L 79.03761 225.137824 
L 79.68822 176.554254 
L 80.33883 262.557355 
L 80.989441 228.956143 
L 81.640051 184.845462 
L 82.290661 252.556995 
L 82.941272 245.61129 
L 83.591882 262.557355 
L 84.893103 235.829119 
L 85.543713 240.683839 
L 86.194323 207.282635 
L 86.844934 202.991571 
L 87.495544 262.302801 
L 88.146154 223.774138 
L 88.796764 201.318783 
L 89.447375 230.883486 
L 90.097985 217.082988 
L 90.748595 232.047164 
L 91.399206 197.282274 
L 92.049816 245.884027 
L 92.700426 216.810251 
L 93.351037 272.339526 
L 94.001647 241.829335 
L 94.652257 217.064806 
L 95.302868 215.101098 
L 95.953478 265.448369 
L 96.604088 218.228484 
L 97.254698 248.48412 
L 97.905309 265.430186 
L 98.555919 222.028621 
L 99.206529 266.593864 
L 99.85714 255.648015 
L 100.50775 233.538127 
L 101.15836 265.175632 
L 101.808971 241.829335 
L 102.459581 233.774499 
L 103.110191 203.227943 
L 103.760802 183.681783 
L 104.411412 261.411859 
L 105.062022 141.0257 
L 105.712633 237.538271 
L 106.363243 183.463594 
L 107.013853 205.882584 
L 107.664463 254.520702 
L 108.315074 257.393533 
L 108.965684 201.300601 
L 109.616294 215.355653 
L 110.266905 247.356807 
L 110.917515 196.37315 
L 111.568125 241.829335 
L 112.218736 245.647655 
L 112.869346 230.628931 
L 113.519956 161.808267 
L 114.170567 222.283176 
L 114.821177 255.393461 
L 115.471787 171.008599 
L 116.122398 259.702707 
L 116.773008 213.93742 
L 117.423618 144.844019 
L 118.074228 201.318783 
L 118.724839 193.2094 
L 119.375449 207.24627 
L 120.026059 129.316186 
L 120.67667 225.137824 
L 121.32728 221.101315 
L 121.97789 201.573338 
L 122.628501 219.719447 
L 123.279111 211.337326 
L 123.929721 254.484337 
L 125.230942 222.264993 
L 125.881552 226.846976 
L 126.532163 265.266544 
L 127.182773 245.61129 
L 127.833383 218.192119 
L 128.483993 215.355653 
L 129.134604 229.174333 
L 129.785214 198.445952 
L 130.435824 203.246125 
L 131.086435 234.95636 
L 131.737045 217.082988 
L 132.387655 245.865844 
L 133.038266 194.409443 
L 133.688876 251.629688 
L 134.339486 193.227582 
L 134.990097 169.881286 
L 135.640707 242.738459 
L 136.291317 199.209616 
L 136.941927 168.699425 
L 137.592538 255.666198 
L 138.243148 238.956504 
L 138.893758 199.209616 
L 139.544369 225.174189 
L 140.194979 241.847517 
L 140.845589 224.883269 
L 141.4962 180.808953 
L 142.14681 250.46601 
L 142.79742 228.028837 
L 143.448031 241.847517 
L 144.098641 213.93742 
L 144.749251 153.189775 
L 146.050472 245.884027 
L 146.701082 219.955819 
L 147.351692 142.189378 
L 148.002303 264.030136 
L 148.652913 207.282635 
L 149.303523 250.447828 
L 149.954134 235.829119 
L 150.604744 99.06055 
L 151.255354 197.500464 
L 151.905965 252.811549 
L 152.556575 211.319144 
L 153.207185 265.175632 
L 153.857796 242.738459 
L 154.508406 199.227799 
L 155.159016 250.46601 
L 155.809627 235.829119 
L 156.460237 230.628931 
L 157.761457 187.736475 
L 158.412068 240.665657 
L 159.062678 247.574997 
L 159.713288 200.355112 
L 160.363899 229.174333 
L 161.014509 248.738675 
L 161.665119 258.266291 
L 162.31573 244.483976 
L 162.96634 212.810107 
L 163.61695 215.33747 
L 164.267561 251.393316 
L 164.918171 245.865844 
L 165.568781 232.047164 
L 166.219392 249.665981 
L 166.870002 259.466335 
L 167.520612 263.448296 
L 168.171222 251.356951 
L 168.821833 234.901812 
L 169.472443 183.463594 
L 170.123053 256.575321 
L 170.773664 204.409804 
L 171.424274 191.500247 
L 172.074884 207.300817 
L 172.725495 207.282635 
L 173.376105 249.684164 
L 174.026715 242.974831 
L 174.677326 264.248325 
L 175.978546 169.881286 
L 176.629156 235.829119 
L 177.279767 237.756461 
L 177.930377 230.883486 
L 178.580987 210.1191 
L 179.231598 218.228484 
L 179.882208 237.574636 
L 180.532818 117.243024 
L 181.183429 230.665296 
L 181.834039 236.120038 
L 182.484649 210.155465 
L 183.13526 224.010511 
L 183.78587 215.137463 
L 184.43648 219.683082 
L 185.087091 274.975985 
L 185.737701 230.883486 
L 186.388311 268.10301 
L 187.038921 232.047164 
L 187.689532 182.536288 
L 188.990752 244.447611 
L 189.641363 244.447611 
L 190.291973 180.827135 
L 190.942583 230.883486 
L 191.593194 232.028982 
L 192.243804 240.465649 
L 192.894414 256.557139 
L 193.545025 228.010655 
L 194.195635 264.266508 
L 194.846245 245.647655 
L 195.496856 234.919995 
L 196.147466 173.863247 
L 196.798076 200.391477 
L 197.448686 143.171231 
L 198.099297 254.502519 
L 198.749907 261.393677 
L 199.400517 240.447467 
L 200.051128 245.865844 
L 200.701738 258.557211 
L 201.352348 247.611362 
L 202.002959 208.246306 
L 202.653569 268.048462 
L 203.304179 256.538956 
L 203.95479 266.33931 
L 204.6054 247.520449 
L 205.25601 237.829191 
L 206.557231 208.446313 
L 207.858451 245.884027 
L 208.509062 175.626947 
L 209.159672 190.336569 
L 209.810282 230.865303 
L 210.460893 228.010655 
L 211.111503 219.937636 
L 211.762113 257.357168 
L 212.412724 226.846976 
L 213.063334 215.119281 
L 213.713944 259.666342 
L 215.015165 226.628787 
L 215.665775 240.429284 
L 216.316385 214.191975 
L 216.966996 240.411102 
L 217.617606 193.463954 
L 218.268216 264.28469 
L 218.918827 257.357168 
L 219.569437 222.264993 
L 220.220047 197.518646 
L 220.870658 244.738531 
L 221.521268 222.264993 
L 222.171878 233.756317 
L 222.822489 252.52063 
L 223.473099 233.538127 
L 224.123709 241.611145 
L 224.77432 187.736475 
L 225.42493 208.191758 
L 226.72615 258.539029 
L 227.376761 233.538127 
L 228.027371 213.973785 
L 228.677981 219.937636 
L 229.328592 255.411643 
L 229.979202 262.52099 
L 230.629812 266.357492 
L 231.280423 221.119497 
L 231.931033 207.300817 
L 232.581643 242.974831 
L 233.232254 183.427229 
L 233.882864 265.448369 
L 235.184085 248.502303 
L 235.834695 200.11874 
L 236.485305 218.228484 
L 237.135915 119.806752 
L 237.786526 201.282418 
L 238.437136 254.229782 
L 239.087746 228.028837 
L 239.738357 251.393316 
L 240.388967 213.046479 
L 241.039577 250.447828 
L 241.690188 171.063146 
L 242.340798 231.828974 
L 242.991408 230.665296 
L 243.642019 211.355509 
L 244.292629 263.466479 
L 244.943239 247.574997 
L 245.59385 203.027936 
L 246.24446 265.448369 
L 246.89507 228.956143 
L 247.54568 208.42813 
L 248.196291 244.683983 
L 248.846901 240.720204 
L 249.497511 244.738531 
L 250.148122 238.738314 
L 250.798732 149.153265 
L 252.099953 197.518646 
L 252.750563 257.357168 
L 253.401173 223.955963 
L 254.051784 228.956143 
L 254.702394 173.863247 
L 255.353004 255.666198 
L 256.003615 240.665657 
L 256.654225 231.828974 
L 257.304835 247.338625 
L 257.955445 242.993013 
L 258.606056 237.792826 
L 259.256666 266.375675 
L 260.557887 202.991571 
L 261.208497 217.064806 
L 261.859107 218.228484 
L 262.509718 206.118956 
L 263.160328 169.608549 
L 263.810938 118.370337 
L 264.461549 223.737773 
L 265.112159 228.028837 
L 265.762769 254.229782 
L 266.413379 241.556598 
L 267.06399 153.189775 
L 267.7146 221.101315 
L 268.36521 232.047164 
L 269.015821 214.191975 
L 269.666431 145.116756 
L 270.317041 193.482137 
L 270.967652 228.028837 
L 271.618262 244.665801 
L 272.268872 215.355653 
L 272.919483 110.551873 
L 273.570093 225.156006 
L 274.220703 230.865303 
L 274.871314 224.919634 
L 275.521924 214.22834 
L 276.172534 159.826378 
L 276.823144 215.373835 
L 277.473755 245.647655 
L 278.124365 204.191614 
L 278.774975 259.484517 
L 279.425586 258.302656 
L 280.076196 177.917939 
L 280.726806 154.862562 
L 281.377417 213.93742 
L 282.028027 241.611145 
L 282.678637 207.300817 
L 283.329248 206.137139 
L 283.979858 227.7561 
L 284.630468 271.175848 
L 285.281079 153.171592 
L 285.931689 186.554614 
L 286.582299 236.120038 
L 287.232909 222.264993 
L 287.88352 197.500464 
L 288.53413 218.246666 
L 289.18474 227.7561 
L 289.835351 202.991571 
L 290.485961 228.028837 
L 291.136571 266.593864 
L 291.787182 259.484517 
L 292.437792 262.557355 
L 293.088402 196.336785 
L 293.739013 222.264993 
L 295.040233 257.357168 
L 295.690844 262.302801 
L 296.341454 204.373439 
L 296.992064 218.010294 
L 297.642674 204.409804 
L 298.293285 222.264993 
L 298.943895 200.11874 
L 299.594505 233.501762 
L 300.245116 221.101315 
L 300.895726 173.66324 
L 301.546336 111.715552 
L 302.196947 236.083673 
L 302.847557 237.792826 
L 303.498167 224.919634 
L 304.148778 238.683767 
L 304.799388 138.189234 
L 305.449998 234.938177 
L 306.100608 244.483976 
L 306.751219 234.919995 
L 307.401829 251.629688 
L 308.052439 158.917254 
L 308.70305 228.028837 
L 309.35366 204.409804 
L 310.00427 255.393461 
L 310.654881 201.336966 
L 311.305491 222.283176 
L 311.956101 251.611506 
L 312.606712 206.100774 
L 313.257322 235.829119 
L 313.907932 158.935436 
L 314.558543 208.446313 
L 315.209153 226.846976 
L 315.859763 214.191975 
L 316.510373 212.810107 
L 317.160984 240.665657 
L 317.811594 176.772443 
L 318.462204 223.719591 
L 319.112815 183.681783 
L 319.763425 162.953763 
L 320.414035 219.683082 
L 321.064646 250.46601 
L 321.715256 175.35421 
L 322.365866 230.865303 
L 323.016477 204.409804 
L 323.667087 255.648015 
L 324.317697 248.502303 
L 324.968308 234.683623 
L 325.618918 223.755956 
L 326.269528 220.883125 
L 326.920138 134.170907 
L 327.570749 215.373835 
L 328.221359 255.666198 
L 328.871969 266.357492 
L 329.52258 233.756317 
L 330.17319 143.389421 
L 330.8238 242.774824 
L 332.125021 201.555155 
L 332.775631 204.191614 
L 333.426242 244.483976 
L 334.076852 214.22834 
L 334.727462 230.628931 
L 335.378073 201.51879 
L 336.028683 228.919779 
L 336.679293 208.409948 
L 337.329903 252.52063 
L 338.631124 224.865087 
L 339.281734 218.228484 
L 339.932345 117.206659 
L 340.582955 53.568 
L 341.233565 165.790229 
L 341.884176 171.044964 
L 342.534786 216.846616 
L 343.185396 193.482137 
L 343.836007 182.55447 
L 344.486617 186.554614 
L 345.137227 211.319144 
L 345.787837 258.284474 
L 346.438448 182.536288 
L 347.089058 193.2094 
L 347.739668 177.717932 
L 348.390279 204.191614 
L 349.040889 194.409443 
L 349.691499 225.137824 
L 350.34211 200.11874 
L 350.99272 207.282635 
L 351.64333 190.372934 
L 352.293941 213.028296 
L 352.944551 183.681783 
L 353.595161 201.573338 
L 354.245772 225.137824 
L 354.896382 184.60909 
L 355.546992 177.972487 
L 356.197602 216.810251 
L 356.848213 268.339382 
L 357.498823 199.209616 
L 358.149433 171.026782 
L 358.800044 208.209941 
L 359.450654 262.557355 
L 360.101264 204.427986 
L 360.751875 234.66544 
L 361.402485 234.919995 
L 362.053095 228.974326 
L 362.703706 251.338769 
L 363.354316 259.42997 
L 364.004926 118.624892 
L 364.655537 208.446313 
L 365.306147 186.30006 
L 365.956757 241.611145 
L 366.607367 268.066645 
L 367.257978 265.175632 
L 367.908588 232.047164 
L 368.559198 209.919093 
L 369.209809 207.300817 
L 369.860419 177.972487 
L 370.511029 207.300817 
L 371.16164 251.411499 
L 371.81225 209.919093 
L 372.46286 244.483976 
L 373.113471 252.793367 
L 373.764081 207.300817 
L 374.414691 172.517744 
L 375.065302 229.174333 
L 375.715912 237.792826 
L 376.366522 251.611506 
L 377.017132 228.010655 
L 377.667743 191.500247 
L 378.318353 237.756461 
L 378.968963 250.484193 
L 379.619574 207.02808 
L 380.270184 254.266147 
L 380.920794 207.064445 
L 381.571405 266.5575 
L 382.222015 214.191975 
L 382.872625 199.209616 
L 383.523236 250.447828 
L 384.173846 208.464495 
L 384.824456 265.211996 
L 385.475066 169.881286 
L 386.125677 238.974687 
L 386.776287 245.865844 
L 387.426897 266.375675 
L 388.077508 259.466335 
L 388.728118 199.209616 
L 389.378728 193.463954 
L 390.029339 265.157449 
L 390.679949 228.956143 
L 391.330559 258.284474 
L 392.63178 207.046262 
L 393.28239 230.901668 
L 393.933001 247.593179 
L 394.583611 252.556995 
L 395.234221 176.517889 
L 395.884831 270.921293 
L 397.186052 182.518105 
L 397.836662 168.463053 
L 398.487273 200.409659 
L 398.487273 200.409659 
" style="fill:none;stroke:#ff0000;stroke-linecap:square;stroke-width:1.5;"/>
   </g>
   <g id="patch_3">
    <path d="M 57.6 307.584 
L 57.6 41.472 
" style="fill:none;stroke:#000000;stroke-linecap:square;stroke-linejoin:miter;stroke-width:0.8;"/>
   </g>
   <g id="patch_4">
    <path d="M 414.72 307.584 
L 414.72 41.472 
" style="fill:none;stroke:#000000;stroke-linecap:square;stroke-linejoin:miter;stroke-width:0.8;"/>
   </g>
   <g id="patch_5">
    <path d="M 57.6 307.584 
L 414.72 307.584 
" style="fill:none;stroke:#000000;stroke-linecap:square;stroke-linejoin:miter;stroke-width:0.8;"/>
   </g>
   <g id="patch_6">
    <path d="M 57.6 41.472 
L 414.72 41.472 
" style="fill:none;stroke:#000000;stroke-linecap:square;stroke-linejoin:miter;stroke-width:0.8;"/>
   </g>
   <g id="text_16">
    <!-- Population's average and best fitness -->
    <g transform="translate(123.529687 35.472)scale(0.12 -0.12)">
     <defs>
      <path d="M 1259 4147 
L 1259 2394 
L 2053 2394 
Q 2494 2394 2734 2622 
Q 2975 2850 2975 3272 
Q 2975 3691 2734 3919 
Q 2494 4147 2053 4147 
L 1259 4147 
z
M 628 4666 
L 2053 4666 
Q 2838 4666 3239 4311 
Q 3641 3956 3641 3272 
Q 3641 2581 3239 2228 
Q 2838 1875 2053 1875 
L 1259 1875 
L 1259 0 
L 628 0 
L 628 4666 
z
" id="DejaVuSans-50" transform="scale(0.015625)"/>
      <path d="M 1159 525 
L 1159 -1331 
L 581 -1331 
L 581 3500 
L 1159 3500 
L 1159 2969 
Q 1341 3281 1617 3432 
Q 1894 3584 2278 3584 
Q 2916 3584 3314 3078 
Q 3713 2572 3713 1747 
Q 3713 922 3314 415 
Q 2916 -91 2278 -91 
Q 1894 -91 1617 61 
Q 1341 213 1159 525 
z
M 3116 1747 
Q 3116 2381 2855 2742 
Q 2594 3103 2138 3103 
Q 1681 3103 1420 2742 
Q 1159 2381 1159 1747 
Q 1159 1113 1420 752 
Q 1681 391 2138 391 
Q 2594 391 2855 752 
Q 3116 1113 3116 1747 
z
" id="DejaVuSans-70" transform="scale(0.015625)"/>
      <path d="M 544 1381 
L 544 3500 
L 1119 3500 
L 1119 1403 
Q 1119 906 1312 657 
Q 1506 409 1894 409 
Q 2359 409 2629 706 
Q 2900 1003 2900 1516 
L 2900 3500 
L 3475 3500 
L 3475 0 
L 2900 0 
L 2900 538 
Q 2691 219 2414 64 
Q 2138 -91 1772 -91 
Q 1169 -91 856 284 
Q 544 659 544 1381 
z
M 1991 3584 
L 1991 3584 
z
" id="DejaVuSans-75" transform="scale(0.015625)"/>
      <path d="M 603 4863 
L 1178 4863 
L 1178 0 
L 603 0 
L 603 4863 
z
" id="DejaVuSans-6c" transform="scale(0.015625)"/>
      <path d="M 1147 4666 
L 1147 2931 
L 616 2931 
L 616 4666 
L 1147 4666 
z
" id="DejaVuSans-27" transform="scale(0.015625)"/>
      <path id="DejaVuSans-20" transform="scale(0.015625)"/>
      <path d="M 191 3500 
L 800 3500 
L 1894 563 
L 2988 3500 
L 3597 3500 
L 2284 0 
L 1503 0 
L 191 3500 
z
" id="DejaVuSans-76" transform="scale(0.015625)"/>
      <path d="M 2906 1791 
Q 2906 2416 2648 2759 
Q 2391 3103 1925 3103 
Q 1463 3103 1205 2759 
Q 947 2416 947 1791 
Q 947 1169 1205 825 
Q 1463 481 1925 481 
Q 2391 481 2648 825 
Q 2906 1169 2906 1791 
z
M 3481 434 
Q 3481 -459 3084 -895 
Q 2688 -1331 1869 -1331 
Q 1566 -1331 1297 -1286 
Q 1028 -1241 775 -1147 
L 775 -588 
Q 1028 -725 1275 -790 
Q 1522 -856 1778 -856 
Q 2344 -856 2625 -561 
Q 2906 -266 2906 331 
L 2906 616 
Q 2728 306 2450 153 
Q 2172 0 1784 0 
Q 1141 0 747 490 
Q 353 981 353 1791 
Q 353 2603 747 3093 
Q 1141 3584 1784 3584 
Q 2172 3584 2450 3431 
Q 2728 3278 2906 2969 
L 2906 3500 
L 3481 3500 
L 3481 434 
z
" id="DejaVuSans-67" transform="scale(0.015625)"/>
      <path d="M 2906 2969 
L 2906 4863 
L 3481 4863 
L 3481 0 
L 2906 0 
L 2906 525 
Q 2725 213 2448 61 
Q 2172 -91 1784 -91 
Q 1150 -91 751 415 
Q 353 922 353 1747 
Q 353 2572 751 3078 
Q 1150 3584 1784 3584 
Q 2172 3584 2448 3432 
Q 2725 3281 2906 2969 
z
M 947 1747 
Q 947 1113 1208 752 
Q 1469 391 1925 391 
Q 2381 391 2643 752 
Q 2906 1113 2906 1747 
Q 2906 2381 2643 2742 
Q 2381 3103 1925 3103 
Q 1469 3103 1208 2742 
Q 947 2381 947 1747 
z
" id="DejaVuSans-64" transform="scale(0.015625)"/>
      <path d="M 3116 1747 
Q 3116 2381 2855 2742 
Q 2594 3103 2138 3103 
Q 1681 3103 1420 2742 
Q 1159 2381 1159 1747 
Q 1159 1113 1420 752 
Q 1681 391 2138 391 
Q 2594 391 2855 752 
Q 3116 1113 3116 1747 
z
M 1159 2969 
Q 1341 3281 1617 3432 
Q 1894 3584 2278 3584 
Q 2916 3584 3314 3078 
Q 3713 2572 3713 1747 
Q 3713 922 3314 415 
Q 2916 -91 2278 -91 
Q 1894 -91 1617 61 
Q 1341 213 1159 525 
L 1159 0 
L 581 0 
L 581 4863 
L 1159 4863 
L 1159 2969 
z
" id="DejaVuSans-62" transform="scale(0.015625)"/>
      <path d="M 2375 4863 
L 2375 4384 
L 1825 4384 
Q 1516 4384 1395 4259 
Q 1275 4134 1275 3809 
L 1275 3500 
L 2222 3500 
L 2222 3053 
L 1275 3053 
L 1275 0 
L 697 0 
L 697 3053 
L 147 3053 
L 147 3500 
L 697 3500 
L 697 3744 
Q 697 4328 969 4595 
Q 1241 4863 1831 4863 
L 2375 4863 
z
" id="DejaVuSans-66" transform="scale(0.015625)"/>
     </defs>
     <use xlink:href="#DejaVuSans-50"/>
     <use x="56.677734" xlink:href="#DejaVuSans-6f"/>
     <use x="117.859375" xlink:href="#DejaVuSans-70"/>
     <use x="181.335938" xlink:href="#DejaVuSans-75"/>
     <use x="244.714844" xlink:href="#DejaVuSans-6c"/>
     <use x="272.498047" xlink:href="#DejaVuSans-61"/>
     <use x="333.777344" xlink:href="#DejaVuSans-74"/>
     <use x="372.986328" xlink:href="#DejaVuSans-69"/>
     <use x="400.769531" xlink:href="#DejaVuSans-6f"/>
     <use x="461.951172" xlink:href="#DejaVuSans-6e"/>
     <use x="525.330078" xlink:href="#DejaVuSans-27"/>
     <use x="552.820312" xlink:href="#DejaVuSans-73"/>
     <use x="604.919922" xlink:href="#DejaVuSans-20"/>
     <use x="636.707031" xlink:href="#DejaVuSans-61"/>
     <use x="697.986328" xlink:href="#DejaVuSans-76"/>
     <use x="757.166016" xlink:href="#DejaVuSans-65"/>
     <use x="818.689453" xlink:href="#DejaVuSans-72"/>
     <use x="859.802734" xlink:href="#DejaVuSans-61"/>
     <use x="921.082031" xlink:href="#DejaVuSans-67"/>
     <use x="984.558594" xlink:href="#DejaVuSans-65"/>
     <use x="1046.082031" xlink:href="#DejaVuSans-20"/>
     <use x="1077.869141" xlink:href="#DejaVuSans-61"/>
     <use x="1139.148438" xlink:href="#DejaVuSans-6e"/>
     <use x="1202.527344" xlink:href="#DejaVuSans-64"/>
     <use x="1266.003906" xlink:href="#DejaVuSans-20"/>
     <use x="1297.791016" xlink:href="#DejaVuSans-62"/>
     <use x="1361.267578" xlink:href="#DejaVuSans-65"/>
     <use x="1422.791016" xlink:href="#DejaVuSans-73"/>
     <use x="1474.890625" xlink:href="#DejaVuSans-74"/>
     <use x="1514.099609" xlink:href="#DejaVuSans-20"/>
     <use x="1545.886719" xlink:href="#DejaVuSans-66"/>
     <use x="1581.091797" xlink:href="#DejaVuSans-69"/>
     <use x="1608.875" xlink:href="#DejaVuSans-74"/>
     <use x="1648.083984" xlink:href="#DejaVuSans-6e"/>
     <use x="1711.462891" xlink:href="#DejaVuSans-65"/>
     <use x="1772.986328" xlink:href="#DejaVuSans-73"/>
     <use x="1825.085938" xlink:href="#DejaVuSans-73"/>
    </g>
   </g>
   <g id="legend_1">
    <g id="patch_7">
     <path d="M 64.6 108.1845 
L 137.540625 108.1845 
Q 139.540625 108.1845 139.540625 106.1845 
L 139.540625 48.472 
Q 139.540625 46.472 137.540625 46.472 
L 64.6 46.472 
Q 62.6 46.472 62.6 48.472 
L 62.6 106.1845 
Q 62.6 108.1845 64.6 108.1845 
z
" style="fill:#ffffff;opacity:0.8;stroke:#cccccc;stroke-linejoin:miter;"/>
    </g>
    <g id="line2d_31">
     <path d="M 66.6 54.570438 
L 86.6 54.570438 
" style="fill:none;stroke:#0000ff;stroke-linecap:square;stroke-width:1.5;"/>
    </g>
    <g id="line2d_32"/>
    <g id="text_17">
     <!-- average -->
     <g transform="translate(94.6 58.070438)scale(0.1 -0.1)">
      <use xlink:href="#DejaVuSans-61"/>
      <use x="61.279297" xlink:href="#DejaVuSans-76"/>
      <use x="120.458984" xlink:href="#DejaVuSans-65"/>
      <use x="181.982422" xlink:href="#DejaVuSans-72"/>
      <use x="223.095703" xlink:href="#DejaVuSans-61"/>
      <use x="284.375" xlink:href="#DejaVuSans-67"/>
      <use x="347.851562" xlink:href="#DejaVuSans-65"/>
     </g>
    </g>
    <g id="line2d_33">
     <path d="M 66.6 69.248563 
L 86.6 69.248563 
" style="fill:none;stroke:#008000;stroke-dasharray:9.6,2.4,1.5,2.4;stroke-dashoffset:0;stroke-width:1.5;"/>
    </g>
    <g id="line2d_34"/>
    <g id="text_18">
     <!-- -1 sd -->
     <g transform="translate(94.6 72.748563)scale(0.1 -0.1)">
      <defs>
       <path d="M 313 2009 
L 1997 2009 
L 1997 1497 
L 313 1497 
L 313 2009 
z
" id="DejaVuSans-2d" transform="scale(0.015625)"/>
      </defs>
      <use xlink:href="#DejaVuSans-2d"/>
      <use x="36.083984" xlink:href="#DejaVuSans-31"/>
      <use x="99.707031" xlink:href="#DejaVuSans-20"/>
      <use x="131.494141" xlink:href="#DejaVuSans-73"/>
      <use x="183.59375" xlink:href="#DejaVuSans-64"/>
     </g>
    </g>
    <g id="line2d_35">
     <path d="M 66.6 83.926688 
L 86.6 83.926688 
" style="fill:none;stroke:#008000;stroke-dasharray:9.6,2.4,1.5,2.4;stroke-dashoffset:0;stroke-width:1.5;"/>
    </g>
    <g id="line2d_36"/>
    <g id="text_19">
     <!-- +1 sd -->
     <g transform="translate(94.6 87.426688)scale(0.1 -0.1)">
      <defs>
       <path d="M 2944 4013 
L 2944 2272 
L 4684 2272 
L 4684 1741 
L 2944 1741 
L 2944 0 
L 2419 0 
L 2419 1741 
L 678 1741 
L 678 2272 
L 2419 2272 
L 2419 4013 
L 2944 4013 
z
" id="DejaVuSans-2b" transform="scale(0.015625)"/>
      </defs>
      <use xlink:href="#DejaVuSans-2b"/>
      <use x="83.789062" xlink:href="#DejaVuSans-31"/>
      <use x="147.412109" xlink:href="#DejaVuSans-20"/>
      <use x="179.199219" xlink:href="#DejaVuSans-73"/>
      <use x="231.298828" xlink:href="#DejaVuSans-64"/>
     </g>
    </g>
    <g id="line2d_37">
     <path d="M 66.6 98.604813 
L 86.6 98.604813 
" style="fill:none;stroke:#ff0000;stroke-linecap:square;stroke-width:1.5;"/>
    </g>
    <g id="line2d_38"/>
    <g id="text_20">
     <!-- best -->
     <g transform="translate(94.6 102.104813)scale(0.1 -0.1)">
      <use xlink:href="#DejaVuSans-62"/>
      <use x="63.476562" xlink:href="#DejaVuSans-65"/>
      <use x="125" xlink:href="#DejaVuSans-73"/>
      <use x="177.099609" xlink:href="#DejaVuSans-74"/>
     </g>
    </g>
   </g>
  </g>
 </g>
 <defs>
  <clipPath id="p8d4453bd06">
   <rect height="266.112" width="357.12" x="57.6" y="41.472"/>
  </clipPath>
 </defs>
</svg>
