<?xml version="1.0" encoding="UTF-8" standalone="no"?>
<!DOCTYPE svg PUBLIC "-//W3C//DTD SVG 1.1//EN"
 "http://www.w3.org/Graphics/SVG/1.1/DTD/svg11.dtd">
<!-- Generated by graphviz version 2.48.0 (20210717.1556)
 -->
<!-- Pages: 1 -->
<svg width="231pt" height="106pt"
 viewBox="0.00 0.00 231.00 105.84" xmlns="http://www.w3.org/2000/svg" xmlns:xlink="http://www.w3.org/1999/xlink">
<g id="graph0" class="graph" transform="scale(1 1) rotate(0) translate(4 101.84)">
<polygon fill="white" stroke="transparent" points="-4,4 -4,-101.84 227,-101.84 227,4 -4,4"/>
<!-- fly.y -->
<g id="node1" class="node">
<title>fly.y</title>
<polygon fill="lightgray" stroke="black" points="35,-97.84 0,-97.84 0,-79.84 35,-79.84 35,-97.84"/>
<text text-anchor="middle" x="17.5" y="-86.64" font-family="Times New Roman,serif" font-size="9.00">fly.y</text>
</g>
<!-- flap -->
<g id="node4" class="node">
<title>flap</title>
<ellipse fill="lightblue" stroke="black" cx="52.5" cy="-21.92" rx="21.84" ry="21.84"/>
<text text-anchor="middle" x="52.5" y="-19.72" font-family="Times New Roman,serif" font-size="9.00">flap</text>
</g>
<!-- fly.y&#45;&gt;flap -->
<g id="edge1" class="edge">
<title>fly.y&#45;&gt;flap</title>
<path fill="none" stroke="green" stroke-width="1.1" d="M21.93,-79.62C25.89,-72.28 31.91,-61.11 37.57,-50.61"/>
<polygon fill="green" stroke="green" stroke-width="1.1" points="40.72,-52.14 42.39,-41.68 34.56,-48.82 40.72,-52.14"/>
</g>
<!-- fly.y &#45; wasp.y -->
<g id="node2" class="node">
<title>fly.y &#45; wasp.y</title>
<polygon fill="lightgray" stroke="black" points="122,-97.84 53,-97.84 53,-79.84 122,-79.84 122,-97.84"/>
<text text-anchor="middle" x="87.5" y="-86.64" font-family="Times New Roman,serif" font-size="9.00">fly.y &#45; wasp.y</text>
</g>
<!-- fly.y &#45; wasp.y&#45;&gt;flap -->
<g id="edge2" class="edge">
<title>fly.y &#45; wasp.y&#45;&gt;flap</title>
<path fill="none" stroke="red" stroke-width="0.8" d="M83.07,-79.62C79.11,-72.28 73.09,-61.11 67.43,-50.61"/>
<polygon fill="red" stroke="red" stroke-width="0.8" points="70.44,-48.82 62.61,-41.68 64.28,-52.14 70.44,-48.82"/>
</g>
<!-- wasp.x_end &#45; fly.x -->
<g id="node3" class="node">
<title>wasp.x_end &#45; fly.x</title>
<polygon fill="lightgray" stroke="black" points="223,-97.84 140,-97.84 140,-79.84 223,-79.84 223,-97.84"/>
<text text-anchor="middle" x="181.5" y="-86.64" font-family="Times New Roman,serif" font-size="9.00">wasp.x_end &#45; fly.x</text>
</g>
</g>
</svg>
