<?xml version="1.0" encoding="utf-8" standalone="no"?>
<!DOCTYPE svg PUBLIC "-//W3C//DTD SVG 1.1//EN"
  "http://www.w3.org/Graphics/SVG/1.1/DTD/svg11.dtd">
<svg height="345.6pt" version="1.1" viewBox="0 0 460.8 345.6" width="460.8pt" xmlns="http://www.w3.org/2000/svg" xmlns:xlink="http://www.w3.org/1999/xlink">
 <metadata>
  <rdf:RDF xmlns:cc="http://creativecommons.org/ns#" xmlns:dc="http://purl.org/dc/elements/1.1/" xmlns:rdf="http://www.w3.org/1999/02/22-rdf-syntax-ns#">
   <cc:Work>
    <dc:type rdf:resource="http://purl.org/dc/dcmitype/StillImage"/>
    <dc:date>2021-09-04T13:25:40.477527</dc:date>
    <dc:format>image/svg+xml</dc:format>
    <dc:creator>
     <cc:Agent>
      <dc:title>Matplotlib v3.4.2, https://matplotlib.org/</dc:title>
     </cc:Agent>
    </dc:creator>
   </cc:Work>
  </rdf:RDF>
 </metadata>
 <defs>
  <style type="text/css">*{stroke-linecap:butt;stroke-linejoin:round;}</style>
 </defs>
 <g id="figure_1">
  <g id="patch_1">
   <path d="M 0 345.6 
L 460.8 345.6 
L 460.8 0 
L 0 0 
z
" style="fill:#ffffff;"/>
  </g>
  <g id="axes_1">
   <g id="patch_2">
    <path d="M 57.6 307.584 
L 414.72 307.584 
L 414.72 41.472 
L 57.6 41.472 
z
" style="fill:#ffffff;"/>
   </g>
   <g id="matplotlib.axis_1">
    <g id="xtick_1">
     <g id="line2d_1">
      <path clip-path="url(#pb60caba57d)" d="M 73.832727 307.584 
L 73.832727 41.472 
" style="fill:none;stroke:#b0b0b0;stroke-linecap:square;stroke-width:0.8;"/>
     </g>
     <g id="line2d_2">
      <defs>
       <path d="M 0 0 
L 0 3.5 
" id="m5d8a71032f" style="stroke:#000000;stroke-width:0.8;"/>
      </defs>
      <g>
       <use style="stroke:#000000;stroke-width:0.8;" x="73.832727" xlink:href="#m5d8a71032f" y="307.584"/>
      </g>
     </g>
     <g id="text_1">
      <!-- 0 -->
      <g transform="translate(70.651477 322.182437)scale(0.1 -0.1)">
       <defs>
        <path d="M 2034 4250 
Q 1547 4250 1301 3770 
Q 1056 3291 1056 2328 
Q 1056 1369 1301 889 
Q 1547 409 2034 409 
Q 2525 409 2770 889 
Q 3016 1369 3016 2328 
Q 3016 3291 2770 3770 
Q 2525 4250 2034 4250 
z
M 2034 4750 
Q 2819 4750 3233 4129 
Q 3647 3509 3647 2328 
Q 3647 1150 3233 529 
Q 2819 -91 2034 -91 
Q 1250 -91 836 529 
Q 422 1150 422 2328 
Q 422 3509 836 4129 
Q 1250 4750 2034 4750 
z
" id="DejaVuSans-30" transform="scale(0.015625)"/>
       </defs>
       <use xlink:href="#DejaVuSans-30"/>
      </g>
     </g>
    </g>
    <g id="xtick_2">
     <g id="line2d_3">
      <path clip-path="url(#pb60caba57d)" d="M 138.893758 307.584 
L 138.893758 41.472 
" style="fill:none;stroke:#b0b0b0;stroke-linecap:square;stroke-width:0.8;"/>
     </g>
     <g id="line2d_4">
      <g>
       <use style="stroke:#000000;stroke-width:0.8;" x="138.893758" xlink:href="#m5d8a71032f" y="307.584"/>
      </g>
     </g>
     <g id="text_2">
      <!-- 100 -->
      <g transform="translate(129.350008 322.182437)scale(0.1 -0.1)">
       <defs>
        <path d="M 794 531 
L 1825 531 
L 1825 4091 
L 703 3866 
L 703 4441 
L 1819 4666 
L 2450 4666 
L 2450 531 
L 3481 531 
L 3481 0 
L 794 0 
L 794 531 
z
" id="DejaVuSans-31" transform="scale(0.015625)"/>
       </defs>
       <use xlink:href="#DejaVuSans-31"/>
       <use x="63.623047" xlink:href="#DejaVuSans-30"/>
       <use x="127.246094" xlink:href="#DejaVuSans-30"/>
      </g>
     </g>
    </g>
    <g id="xtick_3">
     <g id="line2d_5">
      <path clip-path="url(#pb60caba57d)" d="M 203.95479 307.584 
L 203.95479 41.472 
" style="fill:none;stroke:#b0b0b0;stroke-linecap:square;stroke-width:0.8;"/>
     </g>
     <g id="line2d_6">
      <g>
       <use style="stroke:#000000;stroke-width:0.8;" x="203.95479" xlink:href="#m5d8a71032f" y="307.584"/>
      </g>
     </g>
     <g id="text_3">
      <!-- 200 -->
      <g transform="translate(194.41104 322.182437)scale(0.1 -0.1)">
       <defs>
        <path d="M 1228 531 
L 3431 531 
L 3431 0 
L 469 0 
L 469 531 
Q 828 903 1448 1529 
Q 2069 2156 2228 2338 
Q 2531 2678 2651 2914 
Q 2772 3150 2772 3378 
Q 2772 3750 2511 3984 
Q 2250 4219 1831 4219 
Q 1534 4219 1204 4116 
Q 875 4013 500 3803 
L 500 4441 
Q 881 4594 1212 4672 
Q 1544 4750 1819 4750 
Q 2544 4750 2975 4387 
Q 3406 4025 3406 3419 
Q 3406 3131 3298 2873 
Q 3191 2616 2906 2266 
Q 2828 2175 2409 1742 
Q 1991 1309 1228 531 
z
" id="DejaVuSans-32" transform="scale(0.015625)"/>
       </defs>
       <use xlink:href="#DejaVuSans-32"/>
       <use x="63.623047" xlink:href="#DejaVuSans-30"/>
       <use x="127.246094" xlink:href="#DejaVuSans-30"/>
      </g>
     </g>
    </g>
    <g id="xtick_4">
     <g id="line2d_7">
      <path clip-path="url(#pb60caba57d)" d="M 269.015821 307.584 
L 269.015821 41.472 
" style="fill:none;stroke:#b0b0b0;stroke-linecap:square;stroke-width:0.8;"/>
     </g>
     <g id="line2d_8">
      <g>
       <use style="stroke:#000000;stroke-width:0.8;" x="269.015821" xlink:href="#m5d8a71032f" y="307.584"/>
      </g>
     </g>
     <g id="text_4">
      <!-- 300 -->
      <g transform="translate(259.472071 322.182437)scale(0.1 -0.1)">
       <defs>
        <path d="M 2597 2516 
Q 3050 2419 3304 2112 
Q 3559 1806 3559 1356 
Q 3559 666 3084 287 
Q 2609 -91 1734 -91 
Q 1441 -91 1130 -33 
Q 819 25 488 141 
L 488 750 
Q 750 597 1062 519 
Q 1375 441 1716 441 
Q 2309 441 2620 675 
Q 2931 909 2931 1356 
Q 2931 1769 2642 2001 
Q 2353 2234 1838 2234 
L 1294 2234 
L 1294 2753 
L 1863 2753 
Q 2328 2753 2575 2939 
Q 2822 3125 2822 3475 
Q 2822 3834 2567 4026 
Q 2313 4219 1838 4219 
Q 1578 4219 1281 4162 
Q 984 4106 628 3988 
L 628 4550 
Q 988 4650 1302 4700 
Q 1616 4750 1894 4750 
Q 2613 4750 3031 4423 
Q 3450 4097 3450 3541 
Q 3450 3153 3228 2886 
Q 3006 2619 2597 2516 
z
" id="DejaVuSans-33" transform="scale(0.015625)"/>
       </defs>
       <use xlink:href="#DejaVuSans-33"/>
       <use x="63.623047" xlink:href="#DejaVuSans-30"/>
       <use x="127.246094" xlink:href="#DejaVuSans-30"/>
      </g>
     </g>
    </g>
    <g id="xtick_5">
     <g id="line2d_9">
      <path clip-path="url(#pb60caba57d)" d="M 334.076852 307.584 
L 334.076852 41.472 
" style="fill:none;stroke:#b0b0b0;stroke-linecap:square;stroke-width:0.8;"/>
     </g>
     <g id="line2d_10">
      <g>
       <use style="stroke:#000000;stroke-width:0.8;" x="334.076852" xlink:href="#m5d8a71032f" y="307.584"/>
      </g>
     </g>
     <g id="text_5">
      <!-- 400 -->
      <g transform="translate(324.533102 322.182437)scale(0.1 -0.1)">
       <defs>
        <path d="M 2419 4116 
L 825 1625 
L 2419 1625 
L 2419 4116 
z
M 2253 4666 
L 3047 4666 
L 3047 1625 
L 3713 1625 
L 3713 1100 
L 3047 1100 
L 3047 0 
L 2419 0 
L 2419 1100 
L 313 1100 
L 313 1709 
L 2253 4666 
z
" id="DejaVuSans-34" transform="scale(0.015625)"/>
       </defs>
       <use xlink:href="#DejaVuSans-34"/>
       <use x="63.623047" xlink:href="#DejaVuSans-30"/>
       <use x="127.246094" xlink:href="#DejaVuSans-30"/>
      </g>
     </g>
    </g>
    <g id="xtick_6">
     <g id="line2d_11">
      <path clip-path="url(#pb60caba57d)" d="M 399.137883 307.584 
L 399.137883 41.472 
" style="fill:none;stroke:#b0b0b0;stroke-linecap:square;stroke-width:0.8;"/>
     </g>
     <g id="line2d_12">
      <g>
       <use style="stroke:#000000;stroke-width:0.8;" x="399.137883" xlink:href="#m5d8a71032f" y="307.584"/>
      </g>
     </g>
     <g id="text_6">
      <!-- 500 -->
      <g transform="translate(389.594133 322.182437)scale(0.1 -0.1)">
       <defs>
        <path d="M 691 4666 
L 3169 4666 
L 3169 4134 
L 1269 4134 
L 1269 2991 
Q 1406 3038 1543 3061 
Q 1681 3084 1819 3084 
Q 2600 3084 3056 2656 
Q 3513 2228 3513 1497 
Q 3513 744 3044 326 
Q 2575 -91 1722 -91 
Q 1428 -91 1123 -41 
Q 819 9 494 109 
L 494 744 
Q 775 591 1075 516 
Q 1375 441 1709 441 
Q 2250 441 2565 725 
Q 2881 1009 2881 1497 
Q 2881 1984 2565 2268 
Q 2250 2553 1709 2553 
Q 1456 2553 1204 2497 
Q 953 2441 691 2322 
L 691 4666 
z
" id="DejaVuSans-35" transform="scale(0.015625)"/>
       </defs>
       <use xlink:href="#DejaVuSans-35"/>
       <use x="63.623047" xlink:href="#DejaVuSans-30"/>
       <use x="127.246094" xlink:href="#DejaVuSans-30"/>
      </g>
     </g>
    </g>
    <g id="text_7">
     <!-- Generations -->
     <g transform="translate(205.662344 335.860562)scale(0.1 -0.1)">
      <defs>
       <path d="M 3809 666 
L 3809 1919 
L 2778 1919 
L 2778 2438 
L 4434 2438 
L 4434 434 
Q 4069 175 3628 42 
Q 3188 -91 2688 -91 
Q 1594 -91 976 548 
Q 359 1188 359 2328 
Q 359 3472 976 4111 
Q 1594 4750 2688 4750 
Q 3144 4750 3555 4637 
Q 3966 4525 4313 4306 
L 4313 3634 
Q 3963 3931 3569 4081 
Q 3175 4231 2741 4231 
Q 1884 4231 1454 3753 
Q 1025 3275 1025 2328 
Q 1025 1384 1454 906 
Q 1884 428 2741 428 
Q 3075 428 3337 486 
Q 3600 544 3809 666 
z
" id="DejaVuSans-47" transform="scale(0.015625)"/>
       <path d="M 3597 1894 
L 3597 1613 
L 953 1613 
Q 991 1019 1311 708 
Q 1631 397 2203 397 
Q 2534 397 2845 478 
Q 3156 559 3463 722 
L 3463 178 
Q 3153 47 2828 -22 
Q 2503 -91 2169 -91 
Q 1331 -91 842 396 
Q 353 884 353 1716 
Q 353 2575 817 3079 
Q 1281 3584 2069 3584 
Q 2775 3584 3186 3129 
Q 3597 2675 3597 1894 
z
M 3022 2063 
Q 3016 2534 2758 2815 
Q 2500 3097 2075 3097 
Q 1594 3097 1305 2825 
Q 1016 2553 972 2059 
L 3022 2063 
z
" id="DejaVuSans-65" transform="scale(0.015625)"/>
       <path d="M 3513 2113 
L 3513 0 
L 2938 0 
L 2938 2094 
Q 2938 2591 2744 2837 
Q 2550 3084 2163 3084 
Q 1697 3084 1428 2787 
Q 1159 2491 1159 1978 
L 1159 0 
L 581 0 
L 581 3500 
L 1159 3500 
L 1159 2956 
Q 1366 3272 1645 3428 
Q 1925 3584 2291 3584 
Q 2894 3584 3203 3211 
Q 3513 2838 3513 2113 
z
" id="DejaVuSans-6e" transform="scale(0.015625)"/>
       <path d="M 2631 2963 
Q 2534 3019 2420 3045 
Q 2306 3072 2169 3072 
Q 1681 3072 1420 2755 
Q 1159 2438 1159 1844 
L 1159 0 
L 581 0 
L 581 3500 
L 1159 3500 
L 1159 2956 
Q 1341 3275 1631 3429 
Q 1922 3584 2338 3584 
Q 2397 3584 2469 3576 
Q 2541 3569 2628 3553 
L 2631 2963 
z
" id="DejaVuSans-72" transform="scale(0.015625)"/>
       <path d="M 2194 1759 
Q 1497 1759 1228 1600 
Q 959 1441 959 1056 
Q 959 750 1161 570 
Q 1363 391 1709 391 
Q 2188 391 2477 730 
Q 2766 1069 2766 1631 
L 2766 1759 
L 2194 1759 
z
M 3341 1997 
L 3341 0 
L 2766 0 
L 2766 531 
Q 2569 213 2275 61 
Q 1981 -91 1556 -91 
Q 1019 -91 701 211 
Q 384 513 384 1019 
Q 384 1609 779 1909 
Q 1175 2209 1959 2209 
L 2766 2209 
L 2766 2266 
Q 2766 2663 2505 2880 
Q 2244 3097 1772 3097 
Q 1472 3097 1187 3025 
Q 903 2953 641 2809 
L 641 3341 
Q 956 3463 1253 3523 
Q 1550 3584 1831 3584 
Q 2591 3584 2966 3190 
Q 3341 2797 3341 1997 
z
" id="DejaVuSans-61" transform="scale(0.015625)"/>
       <path d="M 1172 4494 
L 1172 3500 
L 2356 3500 
L 2356 3053 
L 1172 3053 
L 1172 1153 
Q 1172 725 1289 603 
Q 1406 481 1766 481 
L 2356 481 
L 2356 0 
L 1766 0 
Q 1100 0 847 248 
Q 594 497 594 1153 
L 594 3053 
L 172 3053 
L 172 3500 
L 594 3500 
L 594 4494 
L 1172 4494 
z
" id="DejaVuSans-74" transform="scale(0.015625)"/>
       <path d="M 603 3500 
L 1178 3500 
L 1178 0 
L 603 0 
L 603 3500 
z
M 603 4863 
L 1178 4863 
L 1178 4134 
L 603 4134 
L 603 4863 
z
" id="DejaVuSans-69" transform="scale(0.015625)"/>
       <path d="M 1959 3097 
Q 1497 3097 1228 2736 
Q 959 2375 959 1747 
Q 959 1119 1226 758 
Q 1494 397 1959 397 
Q 2419 397 2687 759 
Q 2956 1122 2956 1747 
Q 2956 2369 2687 2733 
Q 2419 3097 1959 3097 
z
M 1959 3584 
Q 2709 3584 3137 3096 
Q 3566 2609 3566 1747 
Q 3566 888 3137 398 
Q 2709 -91 1959 -91 
Q 1206 -91 779 398 
Q 353 888 353 1747 
Q 353 2609 779 3096 
Q 1206 3584 1959 3584 
z
" id="DejaVuSans-6f" transform="scale(0.015625)"/>
       <path d="M 2834 3397 
L 2834 2853 
Q 2591 2978 2328 3040 
Q 2066 3103 1784 3103 
Q 1356 3103 1142 2972 
Q 928 2841 928 2578 
Q 928 2378 1081 2264 
Q 1234 2150 1697 2047 
L 1894 2003 
Q 2506 1872 2764 1633 
Q 3022 1394 3022 966 
Q 3022 478 2636 193 
Q 2250 -91 1575 -91 
Q 1294 -91 989 -36 
Q 684 19 347 128 
L 347 722 
Q 666 556 975 473 
Q 1284 391 1588 391 
Q 1994 391 2212 530 
Q 2431 669 2431 922 
Q 2431 1156 2273 1281 
Q 2116 1406 1581 1522 
L 1381 1569 
Q 847 1681 609 1914 
Q 372 2147 372 2553 
Q 372 3047 722 3315 
Q 1072 3584 1716 3584 
Q 2034 3584 2315 3537 
Q 2597 3491 2834 3397 
z
" id="DejaVuSans-73" transform="scale(0.015625)"/>
      </defs>
      <use xlink:href="#DejaVuSans-47"/>
      <use x="77.490234" xlink:href="#DejaVuSans-65"/>
      <use x="139.013672" xlink:href="#DejaVuSans-6e"/>
      <use x="202.392578" xlink:href="#DejaVuSans-65"/>
      <use x="263.916016" xlink:href="#DejaVuSans-72"/>
      <use x="305.029297" xlink:href="#DejaVuSans-61"/>
      <use x="366.308594" xlink:href="#DejaVuSans-74"/>
      <use x="405.517578" xlink:href="#DejaVuSans-69"/>
      <use x="433.300781" xlink:href="#DejaVuSans-6f"/>
      <use x="494.482422" xlink:href="#DejaVuSans-6e"/>
      <use x="557.861328" xlink:href="#DejaVuSans-73"/>
     </g>
    </g>
   </g>
   <g id="matplotlib.axis_2">
    <g id="ytick_1">
     <g id="line2d_13">
      <path clip-path="url(#pb60caba57d)" d="M 57.6 281.793998 
L 414.72 281.793998 
" style="fill:none;stroke:#b0b0b0;stroke-linecap:square;stroke-width:0.8;"/>
     </g>
     <g id="line2d_14">
      <defs>
       <path d="M 0 0 
L -3.5 0 
" id="m50b1da388b" style="stroke:#000000;stroke-width:0.8;"/>
      </defs>
      <g>
       <use style="stroke:#000000;stroke-width:0.8;" x="57.6" xlink:href="#m50b1da388b" y="281.793998"/>
      </g>
     </g>
     <g id="text_8">
      <!-- 0 -->
      <g transform="translate(44.2375 285.593217)scale(0.1 -0.1)">
       <use xlink:href="#DejaVuSans-30"/>
      </g>
     </g>
    </g>
    <g id="ytick_2">
     <g id="line2d_15">
      <path clip-path="url(#pb60caba57d)" d="M 57.6 252.065459 
L 414.72 252.065459 
" style="fill:none;stroke:#b0b0b0;stroke-linecap:square;stroke-width:0.8;"/>
     </g>
     <g id="line2d_16">
      <g>
       <use style="stroke:#000000;stroke-width:0.8;" x="57.6" xlink:href="#m50b1da388b" y="252.065459"/>
      </g>
     </g>
     <g id="text_9">
      <!-- 100 -->
      <g transform="translate(31.5125 255.864677)scale(0.1 -0.1)">
       <use xlink:href="#DejaVuSans-31"/>
       <use x="63.623047" xlink:href="#DejaVuSans-30"/>
       <use x="127.246094" xlink:href="#DejaVuSans-30"/>
      </g>
     </g>
    </g>
    <g id="ytick_3">
     <g id="line2d_17">
      <path clip-path="url(#pb60caba57d)" d="M 57.6 222.336919 
L 414.72 222.336919 
" style="fill:none;stroke:#b0b0b0;stroke-linecap:square;stroke-width:0.8;"/>
     </g>
     <g id="line2d_18">
      <g>
       <use style="stroke:#000000;stroke-width:0.8;" x="57.6" xlink:href="#m50b1da388b" y="222.336919"/>
      </g>
     </g>
     <g id="text_10">
      <!-- 200 -->
      <g transform="translate(31.5125 226.136138)scale(0.1 -0.1)">
       <use xlink:href="#DejaVuSans-32"/>
       <use x="63.623047" xlink:href="#DejaVuSans-30"/>
       <use x="127.246094" xlink:href="#DejaVuSans-30"/>
      </g>
     </g>
    </g>
    <g id="ytick_4">
     <g id="line2d_19">
      <path clip-path="url(#pb60caba57d)" d="M 57.6 192.60838 
L 414.72 192.60838 
" style="fill:none;stroke:#b0b0b0;stroke-linecap:square;stroke-width:0.8;"/>
     </g>
     <g id="line2d_20">
      <g>
       <use style="stroke:#000000;stroke-width:0.8;" x="57.6" xlink:href="#m50b1da388b" y="192.60838"/>
      </g>
     </g>
     <g id="text_11">
      <!-- 300 -->
      <g transform="translate(31.5125 196.407598)scale(0.1 -0.1)">
       <use xlink:href="#DejaVuSans-33"/>
       <use x="63.623047" xlink:href="#DejaVuSans-30"/>
       <use x="127.246094" xlink:href="#DejaVuSans-30"/>
      </g>
     </g>
    </g>
    <g id="ytick_5">
     <g id="line2d_21">
      <path clip-path="url(#pb60caba57d)" d="M 57.6 162.87984 
L 414.72 162.87984 
" style="fill:none;stroke:#b0b0b0;stroke-linecap:square;stroke-width:0.8;"/>
     </g>
     <g id="line2d_22">
      <g>
       <use style="stroke:#000000;stroke-width:0.8;" x="57.6" xlink:href="#m50b1da388b" y="162.87984"/>
      </g>
     </g>
     <g id="text_12">
      <!-- 400 -->
      <g transform="translate(31.5125 166.679059)scale(0.1 -0.1)">
       <use xlink:href="#DejaVuSans-34"/>
       <use x="63.623047" xlink:href="#DejaVuSans-30"/>
       <use x="127.246094" xlink:href="#DejaVuSans-30"/>
      </g>
     </g>
    </g>
    <g id="ytick_6">
     <g id="line2d_23">
      <path clip-path="url(#pb60caba57d)" d="M 57.6 133.1513 
L 414.72 133.1513 
" style="fill:none;stroke:#b0b0b0;stroke-linecap:square;stroke-width:0.8;"/>
     </g>
     <g id="line2d_24">
      <g>
       <use style="stroke:#000000;stroke-width:0.8;" x="57.6" xlink:href="#m50b1da388b" y="133.1513"/>
      </g>
     </g>
     <g id="text_13">
      <!-- 500 -->
      <g transform="translate(31.5125 136.950519)scale(0.1 -0.1)">
       <use xlink:href="#DejaVuSans-35"/>
       <use x="63.623047" xlink:href="#DejaVuSans-30"/>
       <use x="127.246094" xlink:href="#DejaVuSans-30"/>
      </g>
     </g>
    </g>
    <g id="ytick_7">
     <g id="line2d_25">
      <path clip-path="url(#pb60caba57d)" d="M 57.6 103.422761 
L 414.72 103.422761 
" style="fill:none;stroke:#b0b0b0;stroke-linecap:square;stroke-width:0.8;"/>
     </g>
     <g id="line2d_26">
      <g>
       <use style="stroke:#000000;stroke-width:0.8;" x="57.6" xlink:href="#m50b1da388b" y="103.422761"/>
      </g>
     </g>
     <g id="text_14">
      <!-- 600 -->
      <g transform="translate(31.5125 107.22198)scale(0.1 -0.1)">
       <defs>
        <path d="M 2113 2584 
Q 1688 2584 1439 2293 
Q 1191 2003 1191 1497 
Q 1191 994 1439 701 
Q 1688 409 2113 409 
Q 2538 409 2786 701 
Q 3034 994 3034 1497 
Q 3034 2003 2786 2293 
Q 2538 2584 2113 2584 
z
M 3366 4563 
L 3366 3988 
Q 3128 4100 2886 4159 
Q 2644 4219 2406 4219 
Q 1781 4219 1451 3797 
Q 1122 3375 1075 2522 
Q 1259 2794 1537 2939 
Q 1816 3084 2150 3084 
Q 2853 3084 3261 2657 
Q 3669 2231 3669 1497 
Q 3669 778 3244 343 
Q 2819 -91 2113 -91 
Q 1303 -91 875 529 
Q 447 1150 447 2328 
Q 447 3434 972 4092 
Q 1497 4750 2381 4750 
Q 2619 4750 2861 4703 
Q 3103 4656 3366 4563 
z
" id="DejaVuSans-36" transform="scale(0.015625)"/>
       </defs>
       <use xlink:href="#DejaVuSans-36"/>
       <use x="63.623047" xlink:href="#DejaVuSans-30"/>
       <use x="127.246094" xlink:href="#DejaVuSans-30"/>
      </g>
     </g>
    </g>
    <g id="ytick_8">
     <g id="line2d_27">
      <path clip-path="url(#pb60caba57d)" d="M 57.6 73.694221 
L 414.72 73.694221 
" style="fill:none;stroke:#b0b0b0;stroke-linecap:square;stroke-width:0.8;"/>
     </g>
     <g id="line2d_28">
      <g>
       <use style="stroke:#000000;stroke-width:0.8;" x="57.6" xlink:href="#m50b1da388b" y="73.694221"/>
      </g>
     </g>
     <g id="text_15">
      <!-- 700 -->
      <g transform="translate(31.5125 77.49344)scale(0.1 -0.1)">
       <defs>
        <path d="M 525 4666 
L 3525 4666 
L 3525 4397 
L 1831 0 
L 1172 0 
L 2766 4134 
L 525 4134 
L 525 4666 
z
" id="DejaVuSans-37" transform="scale(0.015625)"/>
       </defs>
       <use xlink:href="#DejaVuSans-37"/>
       <use x="63.623047" xlink:href="#DejaVuSans-30"/>
       <use x="127.246094" xlink:href="#DejaVuSans-30"/>
      </g>
     </g>
    </g>
    <g id="ytick_9">
     <g id="line2d_29">
      <path clip-path="url(#pb60caba57d)" d="M 57.6 43.965682 
L 414.72 43.965682 
" style="fill:none;stroke:#b0b0b0;stroke-linecap:square;stroke-width:0.8;"/>
     </g>
     <g id="line2d_30">
      <g>
       <use style="stroke:#000000;stroke-width:0.8;" x="57.6" xlink:href="#m50b1da388b" y="43.965682"/>
      </g>
     </g>
     <g id="text_16">
      <!-- 800 -->
      <g transform="translate(31.5125 47.7649)scale(0.1 -0.1)">
       <defs>
        <path d="M 2034 2216 
Q 1584 2216 1326 1975 
Q 1069 1734 1069 1313 
Q 1069 891 1326 650 
Q 1584 409 2034 409 
Q 2484 409 2743 651 
Q 3003 894 3003 1313 
Q 3003 1734 2745 1975 
Q 2488 2216 2034 2216 
z
M 1403 2484 
Q 997 2584 770 2862 
Q 544 3141 544 3541 
Q 544 4100 942 4425 
Q 1341 4750 2034 4750 
Q 2731 4750 3128 4425 
Q 3525 4100 3525 3541 
Q 3525 3141 3298 2862 
Q 3072 2584 2669 2484 
Q 3125 2378 3379 2068 
Q 3634 1759 3634 1313 
Q 3634 634 3220 271 
Q 2806 -91 2034 -91 
Q 1263 -91 848 271 
Q 434 634 434 1313 
Q 434 1759 690 2068 
Q 947 2378 1403 2484 
z
M 1172 3481 
Q 1172 3119 1398 2916 
Q 1625 2713 2034 2713 
Q 2441 2713 2670 2916 
Q 2900 3119 2900 3481 
Q 2900 3844 2670 4047 
Q 2441 4250 2034 4250 
Q 1625 4250 1398 4047 
Q 1172 3844 1172 3481 
z
" id="DejaVuSans-38" transform="scale(0.015625)"/>
       </defs>
       <use xlink:href="#DejaVuSans-38"/>
       <use x="63.623047" xlink:href="#DejaVuSans-30"/>
       <use x="127.246094" xlink:href="#DejaVuSans-30"/>
      </g>
     </g>
    </g>
    <g id="text_17">
     <!-- Fitness -->
     <g transform="translate(25.432812 191.845187)rotate(-90)scale(0.1 -0.1)">
      <defs>
       <path d="M 628 4666 
L 3309 4666 
L 3309 4134 
L 1259 4134 
L 1259 2759 
L 3109 2759 
L 3109 2228 
L 1259 2228 
L 1259 0 
L 628 0 
L 628 4666 
z
" id="DejaVuSans-46" transform="scale(0.015625)"/>
      </defs>
      <use xlink:href="#DejaVuSans-46"/>
      <use x="50.269531" xlink:href="#DejaVuSans-69"/>
      <use x="78.052734" xlink:href="#DejaVuSans-74"/>
      <use x="117.261719" xlink:href="#DejaVuSans-6e"/>
      <use x="180.640625" xlink:href="#DejaVuSans-65"/>
      <use x="242.164062" xlink:href="#DejaVuSans-73"/>
      <use x="294.263672" xlink:href="#DejaVuSans-73"/>
     </g>
    </g>
   </g>
   <g id="line2d_31">
    <path clip-path="url(#pb60caba57d)" d="M 73.832727 278.737607 
L 74.483338 278.83809 
L 75.133948 277.766524 
L 75.784558 278.125794 
L 76.435169 276.531155 
L 77.085779 271.384253 
L 77.736389 272.285474 
L 78.386999 276.557316 
L 79.03761 277.236465 
L 79.68822 276.529817 
L 80.33883 265.772248 
L 80.989441 275.11786 
L 81.640051 276.644123 
L 82.290661 275.323284 
L 82.941272 277.467009 
L 83.591882 271.879382 
L 84.242492 272.228989 
L 84.893103 271.591312 
L 85.543713 273.588624 
L 86.194323 271.986256 
L 86.844934 274.482115 
L 87.495544 273.178816 
L 88.146154 279.27718 
L 88.796764 277.251626 
L 89.447375 273.251057 
L 90.097985 278.159833 
L 90.748595 277.861507 
L 91.399206 275.156805 
L 92.049816 278.035865 
L 92.700426 274.491331 
L 93.351037 277.946977 
L 94.001647 276.57768 
L 94.652257 277.52171 
L 95.302868 276.157764 
L 95.953478 277.225762 
L 96.604088 277.073552 
L 97.254698 277.230222 
L 97.905309 276.30284 
L 98.555919 274.043917 
L 99.206529 276.254924 
L 99.85714 276.990461 
L 100.50775 276.418484 
L 101.15836 274.144696 
L 101.808971 270.085222 
L 102.459581 276.490545 
L 103.110191 276.756662 
L 103.760802 275.73328 
L 104.411412 277.69206 
L 105.062022 270.850774 
L 106.363243 277.808293 
L 107.013853 271.461379 
L 107.664463 267.010056 
L 108.315074 273.551166 
L 108.965684 276.990737 
L 109.616294 278.06485 
L 110.266905 276.386674 
L 110.917515 270.359956 
L 111.568125 276.05594 
L 112.218736 274.956286 
L 112.869346 274.096709 
L 113.519956 254.447685 
L 114.170567 277.67029 
L 114.821177 275.627705 
L 115.471787 276.70254 
L 116.122398 272.572949 
L 116.773008 277.928099 
L 117.423618 263.322913 
L 118.074228 277.274819 
L 118.724839 267.987024 
L 119.375449 278.158495 
L 120.026059 277.353 
L 120.67667 275.10793 
L 121.32728 274.40928 
L 121.97789 274.596719 
L 122.628501 270.908299 
L 123.279111 277.100754 
L 123.929721 264.448585 
L 124.580332 275.518601 
L 125.230942 271.961059 
L 125.881552 278.649611 
L 126.532163 277.821374 
L 127.182773 278.687216 
L 127.833383 277.127212 
L 128.483993 275.221761 
L 129.134604 276.938436 
L 129.785214 277.915613 
L 131.086435 277.091538 
L 131.737045 257.914846 
L 132.387655 252.933532 
L 133.038266 279.313895 
L 133.688876 274.468143 
L 134.339486 273.663391 
L 134.990097 275.484413 
L 135.640707 275.36862 
L 136.291317 272.183207 
L 136.941927 273.41605 
L 137.592538 273.735929 
L 138.243148 264.593809 
L 138.893758 263.132056 
L 139.544369 275.70485 
L 140.194979 277.586815 
L 140.845589 276.385336 
L 141.4962 275.735471 
L 142.14681 278.432024 
L 142.79742 273.054551 
L 143.448031 277.698446 
L 144.098641 275.852645 
L 144.749251 271.424832 
L 145.399862 277.212087 
L 146.050472 275.037967 
L 146.701082 277.736936 
L 147.351692 277.364887 
L 148.002303 273.551909 
L 148.652913 273.224598 
L 149.303523 278.575516 
L 149.954134 277.864827 
L 150.604744 277.614612 
L 151.255354 278.94201 
L 151.905965 278.225384 
L 152.556575 277.193804 
L 153.207185 271.844651 
L 153.857796 276.487896 
L 154.508406 273.211518 
L 155.159016 272.889409 
L 155.809627 275.163945 
L 156.460237 277.940882 
L 157.110847 273.727754 
L 157.761457 275.279583 
L 158.412068 275.873114 
L 159.713288 266.767252 
L 160.363899 261.669709 
L 161.014509 275.391101 
L 161.665119 272.05701 
L 162.31573 274.903071 
L 162.96634 279.008052 
L 163.61695 275.36903 
L 164.267561 277.851582 
L 164.918171 278.258254 
L 165.568781 274.368404 
L 166.219392 276.416812 
L 166.870002 273.261466 
L 167.520612 276.170153 
L 168.171222 267.188367 
L 168.821833 272.879301 
L 169.472443 273.965783 
L 170.123053 278.527872 
L 171.424274 274.248542 
L 172.074884 270.584573 
L 172.725495 277.720011 
L 173.376105 274.797089 
L 174.026715 270.071441 
L 174.677326 277.689825 
L 175.327936 276.18779 
L 175.978546 278.005839 
L 176.629156 277.355825 
L 177.279767 276.179764 
L 177.930377 275.486494 
L 178.580987 277.40889 
L 179.231598 278.047608 
L 179.882208 277.442186 
L 180.532818 277.265301 
L 181.183429 275.869695 
L 182.484649 269.541381 
L 183.13526 264.736654 
L 183.78587 271.829586 
L 184.43648 275.621759 
L 185.087091 270.086453 
L 185.737701 275.704256 
L 186.388311 276.801833 
L 187.038921 272.437386 
L 187.689532 265.063817 
L 188.340142 269.161599 
L 188.990752 266.225368 
L 189.641363 273.793602 
L 190.291973 269.611391 
L 191.593194 279.745084 
L 192.243804 277.915613 
L 192.894414 276.784591 
L 193.545025 271.625036 
L 194.195635 275.443502 
L 194.846245 272.164804 
L 195.496856 277.471048 
L 196.147466 276.172183 
L 196.798076 275.605164 
L 197.448686 279.266924 
L 198.099297 274.970704 
L 198.749907 276.098605 
L 199.400517 274.138602 
L 200.051128 277.883209 
L 200.701738 278.026203 
L 201.352348 277.775889 
L 202.002959 277.923491 
L 202.653569 276.103807 
L 203.304179 278.092052 
L 203.95479 277.357608 
L 204.6054 276.069322 
L 205.25601 274.282191 
L 205.906621 277.893404 
L 206.557231 275.927368 
L 207.207841 275.164092 
L 207.858451 276.487305 
L 208.509062 271.342503 
L 209.810282 267.634295 
L 210.460893 277.462104 
L 211.111503 271.772062 
L 211.762113 276.989866 
L 212.412724 273.37832 
L 213.063334 277.01246 
L 213.713944 277.585478 
L 215.015165 271.039478 
L 215.665775 273.931097 
L 216.316385 271.190181 
L 216.966996 275.304346 
L 217.617606 273.013483 
L 218.268216 273.531525 
L 218.918827 275.742474 
L 219.569437 274.566098 
L 220.220047 270.788733 
L 220.870658 276.157437 
L 221.521268 266.281406 
L 222.171878 266.620849 
L 222.822489 274.423381 
L 223.473099 271.108223 
L 224.123709 278.451173 
L 224.77432 276.312799 
L 225.42493 274.786921 
L 226.07554 277.960503 
L 226.72615 278.149279 
L 227.376761 274.949745 
L 228.027371 265.614092 
L 228.677981 277.719405 
L 229.328592 277.571951 
L 229.979202 273.862784 
L 230.629812 271.683893 
L 231.280423 255.257858 
L 231.931033 270.647431 
L 232.581643 278.362433 
L 233.232254 276.11778 
L 233.882864 276.564302 
L 234.533474 277.223384 
L 235.184085 277.303502 
L 235.834695 267.060683 
L 236.485305 279.108322 
L 237.135915 275.33577 
L 237.786526 272.758306 
L 238.437136 274.102036 
L 239.087746 270.51945 
L 239.738357 268.4496 
L 240.388967 279.350461 
L 241.039577 275.936436 
L 241.690188 268.09256 
L 242.340798 268.247743 
L 242.991408 273.174506 
L 243.642019 263.634617 
L 244.292629 268.37967 
L 244.943239 266.142373 
L 245.59385 275.052537 
L 246.24446 268.992295 
L 246.89507 276.811765 
L 247.54568 274.422351 
L 248.196291 276.509156 
L 248.846901 275.662933 
L 250.148122 279.320159 
L 250.798732 274.208316 
L 251.449342 275.649049 
L 252.099953 275.324176 
L 252.750563 268.496868 
L 253.401173 274.359634 
L 254.051784 266.073249 
L 254.702394 278.481942 
L 255.353004 278.624936 
L 256.003615 277.755228 
L 256.654225 276.542155 
L 257.304835 276.727215 
L 257.955445 274.514074 
L 258.606056 263.432909 
L 259.256666 266.779153 
L 259.907276 279.365474 
L 260.557887 271.373551 
L 261.208497 274.200586 
L 261.859107 275.698904 
L 262.509718 275.736214 
L 263.160328 273.484574 
L 263.810938 278.5084 
L 264.461549 273.270296 
L 265.112159 276.785034 
L 265.762769 261.659535 
L 266.413379 274.402335 
L 267.06399 272.614636 
L 267.7146 276.351724 
L 268.36521 276.925801 
L 269.015821 271.929979 
L 269.666431 273.764496 
L 270.317041 277.894409 
L 270.967652 276.079133 
L 271.618262 273.217315 
L 272.268872 276.099199 
L 272.919483 279.498806 
L 273.570093 270.727549 
L 274.220703 273.779304 
L 274.871314 277.748815 
L 275.521924 278.444733 
L 276.172534 277.342375 
L 276.823144 275.574127 
L 277.473755 275.320163 
L 278.124365 272.336012 
L 278.774975 272.6932 
L 279.425586 279.034595 
L 280.076196 276.783402 
L 280.726806 275.415294 
L 281.377417 279.151726 
L 282.028027 274.985568 
L 282.678637 259.977858 
L 283.329248 274.758442 
L 283.979858 266.805409 
L 284.630468 273.674688 
L 285.281079 259.406476 
L 285.931689 276.71207 
L 286.582299 279.429979 
L 287.232909 277.516805 
L 287.88352 273.183275 
L 288.53413 279.286545 
L 289.18474 274.845993 
L 289.835351 267.182124 
L 290.485961 272.505762 
L 291.136571 261.833662 
L 291.787182 256.137228 
L 292.437792 278.470794 
L 293.088402 271.394063 
L 293.739013 271.530595 
L 294.389623 266.518183 
L 295.040233 268.988955 
L 295.690844 275.115137 
L 296.341454 261.978125 
L 296.992064 272.44658 
L 297.642674 254.2786 
L 298.293285 276.60787 
L 298.943895 272.463591 
L 299.594505 277.612484 
L 300.245116 277.567046 
L 300.895726 272.657035 
L 301.546336 276.33673 
L 302.196947 274.735972 
L 302.847557 274.439455 
L 303.498167 275.383294 
L 304.148778 274.229557 
L 304.799388 272.626423 
L 305.449998 264.771857 
L 306.100608 273.913557 
L 306.751219 277.255539 
L 307.401829 278.209757 
L 308.052439 272.420441 
L 308.70305 274.897277 
L 309.35366 272.655743 
L 310.00427 262.37302 
L 310.654881 274.324628 
L 311.305491 276.316218 
L 311.956101 277.782412 
L 312.606712 277.600067 
L 313.257322 274.711549 
L 313.907932 276.339852 
L 314.558543 273.939336 
L 315.209153 270.732038 
L 315.859763 275.300565 
L 316.510373 275.801468 
L 317.160984 274.120914 
L 317.811594 275.88114 
L 318.462204 275.256841 
L 319.112815 276.880019 
L 319.763425 273.713991 
L 320.414035 277.953368 
L 321.064646 277.987556 
L 321.715256 274.74551 
L 322.365866 267.449235 
L 323.667087 274.916003 
L 324.317697 269.858138 
L 324.968308 273.233517 
L 325.618918 268.338713 
L 326.269528 270.753116 
L 326.920138 275.141346 
L 327.570749 278.058161 
L 328.221359 262.882634 
L 328.871969 272.537869 
L 329.52258 271.263555 
L 330.17319 276.686487 
L 330.8238 269.285789 
L 331.474411 274.921849 
L 332.125021 275.253422 
L 332.775631 276.115253 
L 333.426242 267.731507 
L 334.076852 273.111778 
L 334.727462 272.36797 
L 335.378073 277.240924 
L 336.028683 275.819592 
L 336.679293 279.668555 
L 337.329903 275.32269 
L 337.980514 272.164181 
L 338.631124 279.484031 
L 339.281734 277.534723 
L 339.932345 278.004661 
L 340.582955 274.28559 
L 341.233565 273.655067 
L 341.884176 278.644111 
L 342.534786 279.051541 
L 343.185396 278.631662 
L 343.836007 275.853642 
L 344.486617 272.236719 
L 345.137227 276.25349 
L 345.787837 277.93018 
L 346.438448 276.43751 
L 347.089058 277.502238 
L 347.739668 276.86248 
L 348.390279 277.733823 
L 349.040889 279.261038 
L 349.691499 277.169575 
L 350.34211 277.926315 
L 350.99272 271.491276 
L 351.64333 276.576345 
L 352.293941 279.596883 
L 352.944551 277.816617 
L 353.595161 278.095619 
L 354.245772 278.877034 
L 354.896382 275.697269 
L 355.546992 276.197006 
L 356.197602 276.874966 
L 356.848213 275.731457 
L 357.498823 279.224732 
L 358.149433 277.396126 
L 358.800044 276.879781 
L 359.450654 276.506072 
L 360.101264 266.230365 
L 360.751875 260.039183 
L 361.402485 276.308637 
L 362.053095 274.714147 
L 362.703706 278.388743 
L 363.354316 272.902787 
L 364.004926 269.244095 
L 364.655537 270.218894 
L 365.306147 269.59296 
L 365.956757 270.935203 
L 366.607367 273.562646 
L 367.257978 273.590111 
L 367.908588 279.388365 
L 369.209809 277.896289 
L 370.511029 272.026241 
L 371.16164 278.24664 
L 371.81225 278.903344 
L 372.46286 275.872816 
L 373.113471 276.624651 
L 373.764081 271.050663 
L 374.414691 267.82976 
L 375.065302 275.413473 
L 375.715912 273.312206 
L 376.366522 275.810604 
L 377.017132 268.392967 
L 377.667743 278.690487 
L 378.318353 275.966164 
L 378.968963 268.808721 
L 379.619574 272.652621 
L 380.270184 275.421091 
L 381.571405 278.753958 
L 382.222015 277.494508 
L 382.872625 274.883153 
L 383.523236 276.951926 
L 384.173846 275.391472 
L 384.824456 278.042108 
L 385.475066 276.202506 
L 386.125677 271.887408 
L 386.776287 274.124184 
L 387.426897 273.969001 
L 388.077508 276.060106 
L 388.728118 273.944781 
L 389.378728 273.297879 
L 390.029339 276.772402 
L 391.330559 269.431534 
L 391.98117 277.748836 
L 392.63178 278.24233 
L 393.28239 274.895193 
L 393.933001 268.879801 
L 394.583611 275.4694 
L 395.234221 274.576801 
L 395.884831 275.276091 
L 396.535442 275.493034 
L 397.186052 270.186787 
L 397.836662 277.023318 
L 398.487273 272.103245 
L 398.487273 272.103245 
" style="fill:none;stroke:#0000ff;stroke-linecap:square;stroke-width:1.5;"/>
   </g>
   <g id="line2d_32">
    <path clip-path="url(#pb60caba57d)" d="M 73.832727 282.659049 
L 74.483338 280.717565 
L 75.133948 281.862394 
L 75.784558 282.186871 
L 76.435169 282.948067 
L 77.085779 280.695543 
L 77.736389 284.706039 
L 78.386999 279.268756 
L 79.03761 279.601745 
L 79.68822 279.706658 
L 80.33883 278.586377 
L 80.989441 278.754975 
L 81.640051 278.774798 
L 82.290661 279.280889 
L 82.941272 280.788934 
L 83.591882 281.048189 
L 84.242492 279.589846 
L 84.893103 284.525043 
L 85.543713 279.168035 
L 86.194323 282.985869 
L 86.844934 282.923516 
L 87.495544 281.591639 
L 88.146154 283.805581 
L 88.796764 282.295458 
L 89.447375 286.818434 
L 90.748595 281.218179 
L 91.399206 286.607812 
L 92.049816 282.164565 
L 92.700426 283.4668 
L 93.351037 282.473014 
L 94.001647 282.573816 
L 94.652257 280.669687 
L 95.302868 284.550478 
L 95.953478 281.708532 
L 96.604088 281.923638 
L 97.254698 283.841284 
L 97.905309 283.854164 
L 98.555919 288.189174 
L 99.206529 284.449965 
L 99.85714 284.039785 
L 100.50775 282.218131 
L 101.15836 284.876515 
L 101.808971 289.943492 
L 102.459581 283.401006 
L 103.110191 281.603326 
L 103.760802 280.568153 
L 104.411412 282.026475 
L 105.062022 281.915472 
L 105.712633 284.671915 
L 106.363243 283.644114 
L 107.013853 289.315216 
L 107.664463 280.646166 
L 108.315074 280.464138 
L 108.965684 280.77317 
L 109.616294 282.856873 
L 110.917515 285.5938 
L 111.568125 282.162533 
L 112.218736 280.493851 
L 112.869346 282.401576 
L 113.519956 278.618023 
L 114.170567 283.107771 
L 114.821177 282.46537 
L 115.471787 284.699595 
L 116.122398 292.870417 
L 116.773008 281.19701 
L 117.423618 277.822192 
L 118.074228 283.200462 
L 118.724839 278.785922 
L 119.375449 281.855337 
L 120.026059 281.255661 
L 120.67667 282.048231 
L 121.32728 290.798241 
L 121.97789 285.129527 
L 122.628501 293.400813 
L 123.279111 280.566498 
L 123.929721 279.626177 
L 124.580332 283.887146 
L 125.230942 279.218086 
L 125.881552 284.886066 
L 126.532163 281.763409 
L 127.182773 283.975449 
L 128.483993 278.901496 
L 129.134604 280.467756 
L 129.785214 283.79299 
L 130.435824 283.441635 
L 131.086435 281.002089 
L 131.737045 279.524053 
L 132.387655 276.927972 
L 133.038266 280.779146 
L 133.688876 282.406018 
L 134.339486 279.033212 
L 135.640707 285.393935 
L 136.291317 282.242312 
L 136.941927 289.450476 
L 138.243148 288.827217 
L 138.893758 280.718245 
L 139.544369 283.857178 
L 140.194979 280.377583 
L 140.845589 284.361504 
L 141.4962 282.467152 
L 142.14681 281.250166 
L 142.79742 281.314103 
L 143.448031 284.850762 
L 144.098641 282.978228 
L 144.749251 282.530616 
L 145.399862 281.32768 
L 146.050472 284.201832 
L 146.701082 283.951929 
L 147.351692 282.483872 
L 148.002303 282.094867 
L 148.652913 279.361314 
L 149.303523 281.536573 
L 149.954134 280.856395 
L 150.604744 282.980536 
L 151.255354 280.565818 
L 152.556575 280.245078 
L 153.207185 283.253891 
L 153.857796 280.711525 
L 154.508406 282.59015 
L 155.159016 285.282909 
L 155.809627 285.24806 
L 156.460237 282.447393 
L 157.110847 283.269955 
L 157.761457 281.492764 
L 158.412068 283.193305 
L 159.062678 282.670192 
L 159.713288 294.762239 
L 160.363899 287.481158 
L 161.014509 283.745318 
L 161.665119 281.808345 
L 162.31573 283.233847 
L 162.96634 283.027987 
L 163.61695 286.552985 
L 164.267561 285.723124 
L 164.918171 280.542035 
L 165.568781 281.781433 
L 166.219392 281.985673 
L 166.870002 282.726774 
L 167.520612 281.24817 
L 168.171222 276.844655 
L 168.821833 277.575833 
L 169.472443 280.910034 
L 170.123053 280.521964 
L 170.773664 279.59365 
L 171.424274 282.677811 
L 172.074884 279.948209 
L 172.725495 282.584651 
L 173.376105 279.653331 
L 174.026715 279.416945 
L 174.677326 280.057617 
L 175.327936 279.315557 
L 175.978546 282.779111 
L 176.629156 284.741855 
L 177.279767 287.319087 
L 177.930377 284.523311 
L 178.580987 280.328116 
L 179.882208 281.644608 
L 180.532818 280.738923 
L 181.183429 282.854584 
L 181.834039 283.783226 
L 182.484649 280.02299 
L 183.13526 284.341674 
L 183.78587 283.794266 
L 184.43648 284.272609 
L 185.087091 286.037056 
L 185.737701 280.637925 
L 186.388311 286.511826 
L 187.038921 280.174531 
L 187.689532 282.671683 
L 188.340142 283.420596 
L 188.990752 280.682209 
L 189.641363 280.452597 
L 190.291973 278.355005 
L 190.942583 280.927746 
L 191.593194 282.881983 
L 192.243804 281.620312 
L 192.894414 281.436165 
L 193.545025 284.789242 
L 194.195635 291.289381 
L 194.846245 281.921897 
L 195.496856 286.072251 
L 196.147466 283.326491 
L 196.798076 281.507374 
L 197.448686 281.615307 
L 198.099297 283.381115 
L 198.749907 282.837267 
L 199.400517 284.943632 
L 200.051128 283.222063 
L 201.352348 281.087754 
L 202.002959 281.415211 
L 202.653569 283.672234 
L 203.304179 281.392803 
L 203.95479 282.110841 
L 204.6054 282.247416 
L 205.25601 287.017693 
L 205.906621 282.392557 
L 206.557231 282.430102 
L 207.207841 284.57085 
L 207.858451 282.338659 
L 208.509062 281.517972 
L 209.159672 281.6306 
L 209.810282 283.94979 
L 210.460893 282.895731 
L 211.111503 286.044305 
L 211.762113 282.522866 
L 212.412724 282.830742 
L 213.063334 282.045722 
L 213.713944 284.910297 
L 214.364555 286.673275 
L 215.015165 279.277089 
L 215.665775 279.698597 
L 216.316385 282.723442 
L 216.966996 279.743905 
L 217.617606 281.322386 
L 218.918827 282.899095 
L 219.569437 281.833583 
L 220.220047 284.406496 
L 220.870658 290.336199 
L 221.521268 281.179561 
L 222.171878 281.248824 
L 222.822489 278.837666 
L 223.473099 277.82289 
L 224.77432 284.74268 
L 225.42493 283.516847 
L 226.07554 281.12001 
L 227.376761 282.837438 
L 228.027371 285.875858 
L 228.677981 282.486227 
L 229.328592 280.914269 
L 229.979202 286.474892 
L 231.280423 273.143992 
L 231.931033 277.656028 
L 232.581643 284.562572 
L 233.232254 279.678243 
L 233.882864 282.67608 
L 234.533474 282.186008 
L 235.184085 283.981879 
L 235.834695 284.467326 
L 236.485305 281.968404 
L 237.135915 282.700997 
L 237.786526 286.363786 
L 238.437136 286.631262 
L 239.738357 278.970081 
L 240.388967 280.634174 
L 241.039577 283.388307 
L 241.690188 281.087229 
L 242.340798 280.329221 
L 242.991408 293.144128 
L 243.642019 282.258575 
L 244.292629 282.149207 
L 244.943239 287.503034 
L 245.59385 281.447699 
L 246.24446 286.14899 
L 246.89507 281.93348 
L 247.54568 281.123739 
L 248.196291 279.51538 
L 248.846901 280.959681 
L 249.497511 280.00832 
L 250.148122 281.651364 
L 250.798732 284.476005 
L 251.449342 281.699407 
L 252.099953 283.086427 
L 253.401173 282.712748 
L 254.051784 289.567117 
L 254.702394 284.141285 
L 255.353004 280.647853 
L 256.003615 281.206693 
L 256.654225 289.307368 
L 257.304835 281.685225 
L 257.955445 292.738813 
L 258.606056 283.258986 
L 259.256666 289.083206 
L 259.907276 282.560941 
L 260.557887 291.674264 
L 261.208497 279.77072 
L 261.859107 285.948602 
L 262.509718 282.322763 
L 263.160328 282.071427 
L 263.810938 281.403587 
L 264.461549 281.466702 
L 265.112159 279.630973 
L 265.762769 275.83156 
L 266.413379 283.806135 
L 267.06399 277.565495 
L 267.7146 280.058779 
L 268.36521 284.253111 
L 269.015821 280.712478 
L 269.666431 284.144657 
L 270.317041 281.033698 
L 271.618262 283.740037 
L 272.268872 280.267556 
L 272.919483 282.044002 
L 273.570093 283.069893 
L 274.220703 280.959257 
L 274.871314 283.516269 
L 275.521924 281.835438 
L 276.172534 281.192294 
L 276.823144 285.765624 
L 277.473755 281.715797 
L 278.124365 281.849699 
L 278.774975 281.675887 
L 279.425586 280.91354 
L 280.076196 280.335419 
L 280.726806 279.958593 
L 281.377417 280.939623 
L 282.028027 281.06111 
L 282.678637 275.698028 
L 283.329248 282.296191 
L 283.979858 279.719501 
L 284.630468 283.322268 
L 285.281079 279.798342 
L 285.931689 279.483324 
L 286.582299 282.350791 
L 287.232909 280.815794 
L 287.88352 288.85367 
L 288.53413 281.672694 
L 289.18474 282.820566 
L 289.835351 276.020223 
L 290.485961 279.270194 
L 291.136571 274.572059 
L 291.787182 274.920137 
L 292.437792 282.777902 
L 293.088402 281.040715 
L 293.739013 285.679613 
L 294.389623 287.444747 
L 295.040233 291.638764 
L 295.690844 279.168708 
L 296.341454 285.250973 
L 296.992064 289.552451 
L 297.642674 286.389586 
L 298.293285 281.615698 
L 298.943895 283.060361 
L 299.594505 281.895604 
L 300.245116 280.374896 
L 300.895726 281.349283 
L 301.546336 279.545223 
L 302.196947 280.90063 
L 302.847557 280.004429 
L 303.498167 281.176966 
L 304.148778 280.433103 
L 304.799388 283.588063 
L 305.449998 279.138865 
L 306.100608 278.757621 
L 306.751219 283.541726 
L 307.401829 285.629846 
L 308.052439 281.779201 
L 308.70305 284.846208 
L 309.35366 282.540823 
L 310.00427 295.488 
L 310.654881 285.065615 
L 311.956101 282.509702 
L 312.606712 279.854167 
L 313.257322 282.894547 
L 313.907932 282.576804 
L 314.558543 280.81171 
L 315.209153 285.857546 
L 315.859763 284.253584 
L 316.510373 286.870651 
L 317.160984 279.675681 
L 318.462204 285.217272 
L 319.112815 282.551853 
L 319.763425 286.757275 
L 320.414035 282.993994 
L 321.064646 282.564746 
L 321.715256 280.707914 
L 322.365866 283.029263 
L 323.016477 287.073628 
L 323.667087 278.840234 
L 324.317697 278.3008 
L 324.968308 282.402151 
L 325.618918 279.453516 
L 326.269528 278.95499 
L 326.920138 280.536602 
L 327.570749 282.772528 
L 328.221359 281.424849 
L 328.871969 278.663652 
L 329.52258 281.231538 
L 330.17319 281.642962 
L 330.8238 278.579018 
L 331.474411 280.662162 
L 332.125021 280.042113 
L 332.775631 279.079538 
L 333.426242 276.181374 
L 334.076852 282.277549 
L 334.727462 279.397436 
L 336.028683 279.293105 
L 336.679293 280.675914 
L 337.329903 282.492555 
L 337.980514 278.730541 
L 338.631124 281.057229 
L 339.281734 281.558123 
L 340.582955 278.942677 
L 341.233565 278.676719 
L 341.884176 282.62036 
L 342.534786 280.185992 
L 343.185396 281.734353 
L 343.836007 284.318032 
L 344.486617 283.163313 
L 345.137227 279.971923 
L 345.787837 281.574142 
L 346.438448 280.157882 
L 347.089058 280.709473 
L 347.739668 280.360946 
L 348.390279 280.343072 
L 349.040889 281.186062 
L 349.691499 283.600944 
L 350.34211 280.060292 
L 350.99272 282.070384 
L 351.64333 283.006688 
L 352.293941 281.084955 
L 352.944551 280.460561 
L 353.595161 283.414722 
L 354.245772 281.474409 
L 354.896382 289.808664 
L 356.197602 280.330705 
L 356.848213 281.532051 
L 357.498823 281.12138 
L 358.149433 286.406094 
L 358.800044 285.481798 
L 359.450654 281.446822 
L 360.101264 279.688043 
L 360.751875 283.780361 
L 361.402485 278.903855 
L 362.053095 279.818636 
L 362.703706 285.799848 
L 363.354316 288.525234 
L 364.004926 278.747009 
L 364.655537 277.935086 
L 365.306147 279.902335 
L 365.956757 282.916932 
L 366.607367 280.55373 
L 367.257978 279.396228 
L 367.908588 282.482155 
L 368.559198 281.018173 
L 369.209809 283.220439 
L 369.860419 283.3623 
L 370.511029 280.289502 
L 371.16164 280.28841 
L 371.81225 279.84199 
L 372.46286 282.250838 
L 373.113471 282.385115 
L 373.764081 279.864239 
L 375.065302 278.948445 
L 375.715912 278.605006 
L 376.366522 278.681324 
L 377.017132 279.836695 
L 377.667743 283.78237 
L 378.318353 286.13949 
L 378.968963 286.790646 
L 379.619574 279.318822 
L 380.270184 281.466072 
L 380.920794 281.41423 
L 381.571405 281.061689 
L 382.222015 281.839558 
L 382.872625 285.119082 
L 383.523236 283.237456 
L 384.173846 285.911501 
L 384.824456 281.450991 
L 385.475066 282.125824 
L 386.125677 289.460914 
L 386.776287 283.348277 
L 387.426897 282.881056 
L 388.077508 283.99228 
L 388.728118 281.235078 
L 390.029339 283.285194 
L 390.679949 280.681082 
L 391.330559 292.435886 
L 391.98117 285.360023 
L 392.63178 280.772237 
L 393.28239 288.499131 
L 393.933001 280.754367 
L 394.583611 283.227936 
L 395.234221 280.050778 
L 395.884831 283.608478 
L 396.535442 283.997074 
L 397.186052 286.960536 
L 397.836662 281.530124 
L 398.487273 285.892093 
L 398.487273 285.892093 
" style="fill:none;stroke:#008000;stroke-dasharray:9.6,2.4,1.5,2.4;stroke-dashoffset:0;stroke-width:1.5;"/>
   </g>
   <g id="line2d_33">
    <path clip-path="url(#pb60caba57d)" d="M 73.832727 274.816165 
L 74.483338 276.958615 
L 75.133948 273.670655 
L 75.784558 274.064717 
L 76.435169 270.114243 
L 77.085779 262.072963 
L 77.736389 259.864908 
L 78.386999 273.845876 
L 79.03761 274.871184 
L 79.68822 273.352976 
L 80.33883 252.958119 
L 80.989441 271.480745 
L 81.640051 274.513449 
L 82.290661 271.365679 
L 82.941272 274.145085 
L 83.591882 262.710574 
L 84.242492 264.868133 
L 84.893103 258.657582 
L 85.543713 268.009213 
L 86.194323 260.986642 
L 86.844934 266.040715 
L 87.495544 264.765993 
L 88.146154 274.74878 
L 88.796764 272.207794 
L 89.447375 259.683679 
L 90.097985 272.51878 
L 90.748595 274.504835 
L 91.399206 263.705797 
L 92.049816 273.907165 
L 92.700426 265.515862 
L 93.351037 273.42094 
L 94.001647 270.581544 
L 94.652257 274.373733 
L 95.302868 267.765051 
L 95.953478 272.742993 
L 96.604088 272.223466 
L 97.905309 268.751516 
L 98.555919 259.89866 
L 99.206529 268.059883 
L 99.85714 269.941137 
L 100.50775 270.618837 
L 101.15836 263.412878 
L 101.808971 250.226951 
L 102.459581 269.580083 
L 103.110191 271.909999 
L 103.760802 270.898407 
L 104.411412 273.357646 
L 105.062022 259.786077 
L 105.712633 264.478902 
L 106.363243 271.972472 
L 107.013853 253.607542 
L 107.664463 253.373946 
L 108.315074 266.638195 
L 108.965684 273.208305 
L 109.616294 273.272827 
L 110.266905 268.617634 
L 110.917515 255.126112 
L 111.568125 269.949347 
L 112.218736 269.41872 
L 112.869346 265.791842 
L 113.519956 230.277348 
L 114.170567 272.232808 
L 114.821177 268.790039 
L 115.471787 268.705485 
L 116.122398 252.27548 
L 116.773008 274.659188 
L 117.423618 248.823635 
L 118.074228 271.349176 
L 118.724839 257.188126 
L 119.375449 274.461653 
L 120.026059 273.45034 
L 120.67667 268.167628 
L 121.32728 258.02032 
L 121.97789 264.063911 
L 122.628501 248.415785 
L 123.279111 273.635009 
L 123.929721 249.270992 
L 124.580332 267.150056 
L 125.230942 264.704031 
L 125.881552 272.413155 
L 126.532163 273.879339 
L 127.833383 272.882179 
L 128.483993 271.542027 
L 129.134604 273.409116 
L 129.785214 272.038236 
L 130.435824 271.428171 
L 131.086435 273.180986 
L 131.737045 236.30564 
L 132.387655 228.939092 
L 133.038266 277.848644 
L 133.688876 266.530268 
L 134.339486 268.293571 
L 134.990097 268.705099 
L 136.291317 262.124103 
L 136.941927 257.381624 
L 137.592538 258.358853 
L 138.243148 240.3604 
L 138.893758 245.545867 
L 139.544369 267.552522 
L 140.194979 274.796048 
L 140.845589 268.409169 
L 141.4962 269.003789 
L 142.14681 275.613883 
L 142.79742 264.794999 
L 143.448031 270.546131 
L 144.098641 268.727061 
L 144.749251 260.319049 
L 145.399862 273.096495 
L 146.050472 265.874101 
L 146.701082 271.521942 
L 147.351692 272.245903 
L 148.002303 265.008951 
L 148.652913 267.087882 
L 149.303523 275.614459 
L 149.954134 274.87326 
L 150.604744 272.248687 
L 151.255354 277.318203 
L 151.905965 276.019429 
L 152.556575 274.14253 
L 153.207185 260.43541 
L 153.857796 272.264266 
L 154.508406 263.832885 
L 155.159016 260.495909 
L 155.809627 265.07983 
L 156.460237 273.434371 
L 157.110847 264.185553 
L 157.761457 269.066403 
L 158.412068 268.552922 
L 159.062678 260.592402 
L 159.713288 238.772265 
L 160.363899 235.858261 
L 161.014509 267.036885 
L 161.665119 262.305674 
L 162.31573 266.572296 
L 162.96634 274.988116 
L 163.61695 264.185075 
L 164.918171 275.974473 
L 165.568781 266.955374 
L 166.219392 270.847951 
L 166.870002 263.796158 
L 167.520612 271.092137 
L 168.171222 257.532078 
L 168.821833 268.182769 
L 169.472443 267.021532 
L 170.123053 276.533781 
L 170.773664 272.854765 
L 171.424274 265.819273 
L 172.074884 261.220937 
L 172.725495 272.855371 
L 173.376105 269.940848 
L 174.026715 260.725936 
L 174.677326 275.322033 
L 175.327936 273.060023 
L 175.978546 273.232567 
L 176.629156 269.969795 
L 177.279767 265.040441 
L 177.930377 266.449678 
L 178.580987 274.489664 
L 179.231598 275.070943 
L 179.882208 273.239764 
L 180.532818 273.791679 
L 181.183429 268.884806 
L 181.834039 262.114803 
L 182.484649 259.059771 
L 183.13526 245.131635 
L 183.78587 259.864907 
L 184.43648 266.970909 
L 185.087091 254.135851 
L 185.737701 270.770586 
L 186.388311 267.091841 
L 187.038921 264.700242 
L 187.689532 247.45595 
L 188.340142 254.902601 
L 188.990752 251.768528 
L 189.641363 267.134608 
L 190.291973 260.867778 
L 191.593194 276.608184 
L 192.894414 272.133016 
L 193.545025 258.46083 
L 194.195635 259.597623 
L 194.846245 262.407712 
L 195.496856 268.869845 
L 196.147466 269.017874 
L 196.798076 269.702953 
L 197.448686 276.918541 
L 198.099297 266.560293 
L 198.749907 269.359943 
L 199.400517 263.333572 
L 200.051128 272.544355 
L 200.701738 273.929986 
L 201.352348 274.464024 
L 202.002959 274.431771 
L 202.653569 268.53538 
L 203.304179 274.791301 
L 203.95479 272.604375 
L 204.6054 269.891228 
L 205.25601 261.546689 
L 205.906621 273.39425 
L 207.207841 265.757335 
L 207.858451 270.635952 
L 208.509062 261.167035 
L 209.159672 257.503889 
L 209.810282 251.3188 
L 210.460893 272.028477 
L 211.111503 257.499818 
L 211.762113 271.456867 
L 212.412724 263.925897 
L 213.063334 271.979198 
L 213.713944 270.260658 
L 214.364555 261.350939 
L 215.015165 262.801867 
L 215.665775 268.163597 
L 216.316385 259.656921 
L 216.966996 270.864788 
L 217.617606 264.704579 
L 218.268216 264.961531 
L 218.918827 268.585853 
L 219.569437 267.298614 
L 220.220047 257.170971 
L 220.870658 261.978676 
L 221.521268 251.383251 
L 222.171878 251.992874 
L 222.822489 270.009096 
L 223.473099 264.393556 
L 224.123709 275.491023 
L 224.77432 267.882918 
L 225.42493 266.056995 
L 226.07554 274.800996 
L 226.72615 274.402672 
L 227.376761 267.062052 
L 228.027371 245.352326 
L 228.677981 272.952583 
L 229.328592 274.229633 
L 229.979202 261.250677 
L 230.629812 263.283601 
L 231.280423 237.371724 
L 231.931033 263.638834 
L 232.581643 272.162294 
L 233.232254 272.557316 
L 233.882864 270.452524 
L 234.533474 272.26076 
L 235.184085 270.625126 
L 235.834695 249.654039 
L 236.485305 276.24824 
L 237.786526 259.152826 
L 238.437136 261.57281 
L 239.087746 258.093161 
L 239.738357 257.929119 
L 240.388967 278.066748 
L 241.039577 268.484564 
L 241.690188 255.097891 
L 242.340798 256.166265 
L 242.991408 253.204883 
L 243.642019 245.010659 
L 244.292629 254.610134 
L 244.943239 244.781711 
L 245.59385 268.657374 
L 246.24446 251.835599 
L 246.89507 271.69005 
L 247.54568 267.720962 
L 248.196291 273.502931 
L 248.846901 270.366185 
L 249.497511 274.788564 
L 250.148122 276.988954 
L 250.798732 263.940626 
L 251.449342 269.598691 
L 252.099953 267.561925 
L 252.750563 254.141901 
L 253.401173 266.00652 
L 254.051784 242.579381 
L 254.702394 272.822599 
L 255.353004 276.602019 
L 256.003615 274.303762 
L 256.654225 263.776941 
L 257.304835 271.769204 
L 257.955445 256.289334 
L 258.606056 243.606832 
L 259.256666 244.475101 
L 259.907276 276.170007 
L 260.557887 251.072838 
L 261.208497 268.630452 
L 261.859107 265.449207 
L 262.509718 269.149664 
L 263.160328 264.897721 
L 263.810938 275.613213 
L 264.461549 265.073891 
L 265.112159 273.939095 
L 265.762769 247.487511 
L 266.413379 264.998536 
L 267.06399 267.663777 
L 267.7146 272.644668 
L 268.36521 269.598492 
L 269.015821 263.14748 
L 269.666431 263.384336 
L 270.317041 274.75512 
L 270.967652 269.791369 
L 271.618262 262.694593 
L 272.268872 271.930843 
L 272.919483 276.953611 
L 273.570093 258.385206 
L 274.220703 266.599351 
L 274.871314 271.981361 
L 275.521924 275.054028 
L 276.172534 273.492455 
L 276.823144 265.38263 
L 277.473755 268.924529 
L 278.124365 262.822325 
L 278.774975 263.710514 
L 279.425586 277.155651 
L 280.076196 273.231384 
L 280.726806 270.871995 
L 281.377417 277.363829 
L 282.028027 268.910026 
L 282.678637 244.257689 
L 283.329248 267.220694 
L 283.979858 253.891318 
L 284.630468 264.027108 
L 285.281079 239.014609 
L 285.931689 273.940815 
L 286.582299 276.509167 
L 287.232909 274.217816 
L 287.88352 257.512881 
L 288.53413 276.900395 
L 289.835351 258.344025 
L 290.485961 265.74133 
L 291.136571 249.095265 
L 291.787182 237.354319 
L 292.437792 274.163685 
L 293.088402 261.747412 
L 293.739013 257.381578 
L 294.389623 245.591619 
L 295.040233 246.339147 
L 295.690844 271.061565 
L 296.341454 238.705276 
L 296.992064 255.340709 
L 297.642674 222.167613 
L 298.293285 271.600041 
L 298.943895 261.866821 
L 299.594505 273.329364 
L 300.245116 274.759196 
L 300.895726 263.964786 
L 301.546336 273.128237 
L 302.196947 268.571314 
L 302.847557 268.874481 
L 303.498167 269.589622 
L 304.148778 268.026011 
L 304.799388 261.664784 
L 305.449998 250.404849 
L 306.100608 269.069493 
L 306.751219 270.969353 
L 307.401829 270.789669 
L 308.052439 263.061681 
L 308.70305 264.948346 
L 309.35366 262.770662 
L 310.00427 229.258041 
L 310.654881 263.58364 
L 311.305491 268.928393 
L 311.956101 273.055121 
L 312.606712 275.345967 
L 313.257322 266.528552 
L 313.907932 270.102899 
L 314.558543 267.066961 
L 315.209153 255.60653 
L 315.859763 266.347545 
L 316.510373 264.732285 
L 317.160984 268.566146 
L 317.811594 269.072469 
L 318.462204 265.29641 
L 319.112815 271.208186 
L 319.763425 260.670708 
L 320.414035 272.912743 
L 321.064646 273.410366 
L 321.715256 268.783106 
L 322.365866 251.869206 
L 323.016477 255.451103 
L 323.667087 270.991773 
L 324.317697 261.415476 
L 324.968308 264.064882 
L 325.618918 257.223909 
L 326.269528 262.551242 
L 326.920138 269.746089 
L 327.570749 273.343795 
L 328.221359 244.340419 
L 328.871969 266.412086 
L 329.52258 261.295573 
L 330.17319 271.730012 
L 330.8238 259.99256 
L 331.474411 269.181536 
L 332.125021 270.464731 
L 332.775631 273.150968 
L 333.426242 259.281641 
L 334.076852 263.946008 
L 334.727462 265.338504 
L 335.378073 275.127562 
L 336.028683 272.346079 
L 336.679293 278.661196 
L 337.329903 268.152825 
L 337.980514 265.597821 
L 338.631124 277.910832 
L 339.281734 273.511322 
L 339.932345 275.800718 
L 340.582955 269.628503 
L 341.233565 268.633415 
L 341.884176 274.667862 
L 342.534786 277.917089 
L 343.185396 275.528972 
L 343.836007 267.389251 
L 344.486617 261.310124 
L 345.137227 272.535058 
L 345.787837 274.286218 
L 346.438448 272.717138 
L 347.089058 274.295002 
L 347.739668 273.364013 
L 348.390279 275.124574 
L 349.040889 277.336015 
L 349.691499 270.738207 
L 350.34211 275.792338 
L 350.99272 260.912167 
L 352.293941 278.10881 
L 352.944551 275.172673 
L 353.595161 272.776517 
L 354.245772 276.279659 
L 354.896382 261.585875 
L 356.197602 273.419226 
L 356.848213 269.930864 
L 357.498823 277.328084 
L 358.149433 268.386159 
L 358.800044 268.277763 
L 359.450654 271.565321 
L 360.751875 236.298005 
L 361.402485 273.713418 
L 362.053095 269.609657 
L 362.703706 270.977637 
L 363.354316 257.280339 
L 364.655537 262.502703 
L 365.306147 259.283584 
L 365.956757 258.953474 
L 366.607367 266.571562 
L 367.257978 267.783993 
L 367.908588 276.294575 
L 368.559198 276.381828 
L 369.209809 272.57214 
L 369.860419 266.58654 
L 370.511029 263.762979 
L 371.16164 276.20487 
L 371.81225 277.964697 
L 372.46286 269.494795 
L 373.113471 270.864188 
L 373.764081 262.237087 
L 374.414691 256.277702 
L 375.065302 271.878501 
L 375.715912 268.019406 
L 376.366522 272.939884 
L 377.017132 256.949239 
L 377.667743 273.598605 
L 378.318353 265.792838 
L 378.968963 250.826796 
L 379.619574 265.98642 
L 381.571405 276.446227 
L 382.222015 273.149459 
L 382.872625 264.647225 
L 383.523236 270.666395 
L 384.173846 264.871442 
L 384.824456 274.633225 
L 385.475066 270.279187 
L 386.125677 254.313903 
L 386.776287 264.90009 
L 387.426897 265.056945 
L 388.077508 268.127932 
L 388.728118 266.654483 
L 389.378728 264.35546 
L 390.029339 270.25961 
L 390.679949 265.726792 
L 391.330559 246.427181 
L 391.98117 270.137649 
L 392.63178 275.712422 
L 393.28239 261.291256 
L 393.933001 257.005234 
L 394.583611 267.710864 
L 395.234221 269.102823 
L 395.884831 266.943704 
L 396.535442 266.988994 
L 397.186052 253.413039 
L 397.836662 272.516513 
L 398.487273 258.314397 
L 398.487273 258.314397 
" style="fill:none;stroke:#008000;stroke-dasharray:9.6,2.4,1.5,2.4;stroke-dashoffset:0;stroke-width:1.5;"/>
   </g>
   <g id="line2d_34">
    <path clip-path="url(#pb60caba57d)" d="M 73.832727 256.896346 
L 74.483338 270.170139 
L 75.133948 255.618019 
L 75.784558 258.932751 
L 76.435169 236.725532 
L 77.085779 243.414454 
L 77.736389 231.121703 
L 78.386999 270.675525 
L 79.03761 271.448467 
L 79.68822 259.720558 
L 80.33883 241.76452 
L 80.989441 269.203962 
L 81.640051 273.053808 
L 82.290661 260.002979 
L 82.941272 253.224872 
L 83.591882 236.413383 
L 84.242492 230.675775 
L 84.893103 237.855217 
L 85.543713 257.386867 
L 86.194323 197.944652 
L 86.844934 222.203141 
L 87.495544 209.449597 
L 88.146154 236.502568 
L 88.796764 256.42069 
L 89.447375 234.62967 
L 90.097985 244.722509 
L 90.748595 268.683712 
L 91.399206 190.155775 
L 92.049816 256.836889 
L 92.700426 249.419619 
L 93.351037 255.959897 
L 94.001647 257.713881 
L 94.652257 268.891812 
L 95.302868 244.796831 
L 95.953478 265.458166 
L 96.604088 249.033148 
L 97.905309 245.391402 
L 98.555919 231.062246 
L 99.206529 221.534249 
L 99.85714 256.197726 
L 100.50775 259.155715 
L 101.15836 245.302216 
L 101.808971 211.798152 
L 102.459581 229.456904 
L 103.110191 251.02496 
L 103.760802 259.586779 
L 104.411412 260.38945 
L 106.363243 232.221659 
L 107.013853 205.83758 
L 107.664463 229.798783 
L 108.315074 244.484681 
L 108.965684 266.305429 
L 109.616294 254.874806 
L 110.266905 237.320103 
L 110.917515 172.259194 
L 111.568125 246.149479 
L 112.218736 248.364256 
L 112.869346 239.356508 
L 113.519956 212.927836 
L 114.170567 259.378679 
L 114.821177 255.261277 
L 115.471787 249.627718 
L 116.122398 179.631872 
L 116.773008 260.879971 
L 117.423618 227.539414 
L 118.074228 258.382773 
L 118.724839 248.795319 
L 119.375449 262.396126 
L 120.026059 267.881042 
L 120.67667 258.278724 
L 121.32728 190.155775 
L 121.97789 241.898298 
L 122.628501 169.509304 
L 123.279111 260.508364 
L 123.929721 220.137007 
L 124.580332 236.963361 
L 125.230942 259.839472 
L 125.881552 218.635716 
L 126.532163 259.155715 
L 127.182773 231.820323 
L 127.833383 253.715393 
L 128.483993 265.755451 
L 129.134604 259.467865 
L 129.785214 258.620602 
L 130.435824 248.795319 
L 131.086435 263.109611 
L 131.737045 199.267572 
L 132.387655 200.962099 
L 133.038266 273.574057 
L 133.688876 239.534879 
L 134.339486 259.720558 
L 134.990097 261.40022 
L 135.640707 248.215613 
L 136.291317 255.291005 
L 136.941927 210.281996 
L 137.592538 223.481468 
L 138.893758 199.668908 
L 139.544369 215.142613 
L 140.194979 262.321805 
L 140.845589 247.130521 
L 141.4962 259.200308 
L 142.14681 266.454072 
L 142.79742 236.443111 
L 143.448031 242.686105 
L 144.098641 258.828701 
L 144.749251 211.664373 
L 145.399862 266.290565 
L 146.050472 237.498474 
L 146.701082 227.569142 
L 147.351692 258.278724 
L 148.002303 240.114586 
L 148.652913 255.291005 
L 149.303523 258.100352 
L 149.954134 267.955363 
L 150.604744 239.802436 
L 151.255354 266.171651 
L 151.905965 268.53507 
L 152.556575 268.386427 
L 153.207185 245.510316 
L 153.857796 261.861013 
L 154.508406 250.757403 
L 155.159016 244.648188 
L 155.809627 215.677726 
L 156.460237 257.63956 
L 157.110847 244.083346 
L 157.761457 253.224872 
L 158.412068 229.798783 
L 159.062678 246.922421 
L 159.713288 97.818931 
L 160.363899 193.307 
L 161.014509 254.280235 
L 161.665119 243.057711 
L 162.31573 208.364506 
L 162.96634 242.240176 
L 163.61695 172.883494 
L 164.267561 214.235892 
L 164.918171 272.637608 
L 165.568781 235.372884 
L 166.219392 260.716464 
L 166.870002 254.934263 
L 167.520612 260.59755 
L 168.171222 252.24383 
L 168.821833 250.727674 
L 169.472443 250.118239 
L 170.123053 270.541746 
L 170.773664 271.136317 
L 171.424274 237.320103 
L 172.074884 227.866428 
L 172.725495 253.447836 
L 173.376105 247.85887 
L 174.026715 249.70204 
L 174.677326 268.951269 
L 175.327936 269.575569 
L 175.978546 258.813837 
L 176.629156 245.465723 
L 177.279767 210.445503 
L 177.930377 243.622553 
L 178.580987 264.551445 
L 179.231598 267.836449 
L 179.882208 259.557051 
L 180.532818 269.501247 
L 181.183429 223.615246 
L 181.834039 243.979296 
L 182.484649 247.472399 
L 183.13526 222.82744 
L 183.78587 239.906486 
L 184.43648 226.602965 
L 185.087091 181.906105 
L 185.737701 243.265811 
L 186.388311 230.125797 
L 187.038921 249.70204 
L 187.689532 210.787382 
L 188.340142 241.957755 
L 188.990752 168.899869 
L 189.641363 232.727044 
L 190.291973 253.105958 
L 190.942583 239.876758 
L 191.593194 254.57752 
L 192.243804 265.666266 
L 192.894414 249.59799 
L 194.195635 198.212209 
L 194.846245 202.641762 
L 195.496856 205.926765 
L 196.147466 248.542627 
L 196.798076 241.184813 
L 197.448686 268.847219 
L 198.099297 255.528834 
L 198.749907 223.808482 
L 199.400517 237.974131 
L 200.051128 235.521526 
L 200.701738 258.308452 
L 201.352348 266.79595 
L 202.002959 260.984021 
L 202.653569 232.147337 
L 203.304179 261.162392 
L 203.95479 258.159809 
L 204.6054 256.762568 
L 205.25601 189.903082 
L 205.906621 250.81686 
L 206.557231 255.573426 
L 207.207841 219.022187 
L 207.858451 253.864035 
L 208.509062 254.518063 
L 209.159672 245.510316 
L 209.810282 210.386046 
L 210.460893 252.630301 
L 211.111503 203.132283 
L 211.762113 259.527322 
L 212.412724 226.632693 
L 213.063334 243.221218 
L 213.713944 238.464652 
L 214.364555 227.732649 
L 215.015165 237.112003 
L 215.665775 244.231989 
L 216.316385 235.358019 
L 216.966996 262.366398 
L 218.268216 240.322686 
L 218.918827 215.677726 
L 219.569437 255.662612 
L 220.220047 166.179708 
L 220.870658 207.740206 
L 221.521268 236.101233 
L 222.171878 234.376978 
L 222.822489 267.271607 
L 223.473099 256.182861 
L 224.123709 263.24339 
L 224.77432 250.876317 
L 225.42493 233.395936 
L 226.07554 262.738004 
L 226.72615 260.211079 
L 227.376761 251.084417 
L 228.027371 210.207675 
L 228.677981 257.520646 
L 229.328592 268.579662 
L 229.979202 232.697315 
L 230.629812 252.897858 
L 231.280423 231.77573 
L 231.931033 250.147968 
L 232.581643 257.921981 
L 233.232254 270.333646 
L 233.882864 262.960968 
L 234.533474 266.840543 
L 235.184085 259.007073 
L 235.834695 222.916626 
L 236.485305 260.017843 
L 237.135915 258.085488 
L 237.786526 239.193001 
L 238.437136 230.586589 
L 239.087746 246.312986 
L 239.738357 239.475422 
L 240.388967 273.633514 
L 241.039577 246.402172 
L 241.690188 243.904975 
L 242.340798 217.045239 
L 242.991408 134.132342 
L 243.642019 166.343215 
L 244.292629 190.988174 
L 245.59385 222.976083 
L 246.24446 186.662672 
L 246.89507 265.636537 
L 247.54568 241.273999 
L 248.196291 265.591944 
L 248.846901 232.727044 
L 249.497511 261.578591 
L 250.148122 270.289053 
L 250.798732 238.851123 
L 251.449342 250.891181 
L 252.099953 234.852634 
L 252.750563 193.663743 
L 253.401173 215.395305 
L 254.051784 73.753678 
L 254.702394 246.788643 
L 255.353004 271.448467 
L 256.003615 259.27463 
L 256.654225 204.574117 
L 257.304835 257.84766 
L 257.955445 190.794939 
L 258.606056 206.967264 
L 259.256666 169.925504 
L 259.907276 253.314057 
L 260.557887 205.599751 
L 261.208497 248.200749 
L 261.859107 218.383023 
L 262.509718 219.9735 
L 263.160328 236.309333 
L 263.810938 268.758034 
L 264.461549 255.142363 
L 265.112159 272.474101 
L 265.762769 230.735232 
L 266.413379 228.743419 
L 267.06399 260.582685 
L 267.7146 267.167557 
L 268.36521 240.352414 
L 269.015821 254.800484 
L 269.666431 252.957315 
L 270.317041 259.527322 
L 270.967652 251.396567 
L 271.618262 221.370742 
L 272.268872 259.408408 
L 272.919483 264.937916 
L 273.570093 242.433412 
L 274.220703 245.584637 
L 274.871314 241.214542 
L 275.521924 268.520205 
L 276.172534 265.071695 
L 276.823144 227.688056 
L 277.473755 247.561585 
L 278.124365 252.808672 
L 278.774975 222.738254 
L 279.425586 272.206544 
L 280.076196 269.010726 
L 280.726806 258.308452 
L 281.377417 273.083536 
L 282.028027 256.539604 
L 282.678637 207.353735 
L 283.329248 251.589802 
L 283.979858 224.655745 
L 284.630468 213.448086 
L 285.281079 208.632062 
L 285.931689 271.760616 
L 286.582299 257.030125 
L 287.232909 257.803067 
L 287.88352 163.727103 
L 288.53413 263.094747 
L 289.835351 224.655745 
L 290.485961 255.930169 
L 291.136571 240.515921 
L 291.787182 230.274439 
L 292.437792 267.672942 
L 293.088402 251.381702 
L 293.739013 226.038122 
L 294.389623 145.042716 
L 295.040233 121.943641 
L 295.690844 259.125987 
L 296.341454 205.168688 
L 296.992064 213.3589 
L 297.642674 160.932621 
L 298.293285 264.685224 
L 298.943895 240.932121 
L 299.594505 267.91077 
L 300.245116 269.471519 
L 300.895726 243.771196 
L 301.546336 266.647307 
L 302.196947 250.742539 
L 302.847557 252.541115 
L 303.498167 242.180719 
L 304.148778 247.026471 
L 304.799388 196.502818 
L 305.449998 201.482349 
L 306.100608 254.711299 
L 306.751219 246.298122 
L 307.401829 223.065268 
L 308.052439 239.133544 
L 308.70305 196.458225 
L 309.35366 240.4416 
L 310.00427 143.437375 
L 310.654881 220.107279 
L 311.305491 244.187396 
L 311.956101 263.540675 
L 312.606712 273.648378 
L 313.257322 231.508174 
L 313.907932 252.006002 
L 314.558543 256.078812 
L 315.209153 187.985592 
L 315.859763 243.369861 
L 316.510373 216.480397 
L 317.160984 244.61846 
L 317.811594 249.850683 
L 318.462204 220.776171 
L 319.112815 247.0562 
L 319.763425 193.886707 
L 320.414035 249.954732 
L 321.064646 257.654424 
L 321.715256 252.868129 
L 322.365866 229.174483 
L 323.016477 233.544579 
L 323.667087 261.236713 
L 324.317697 240.084857 
L 324.968308 248.007513 
L 325.618918 247.918327 
L 326.269528 251.783038 
L 326.920138 256.940939 
L 327.570749 263.169068 
L 328.221359 205.792987 
L 328.871969 261.058342 
L 329.52258 197.424403 
L 330.17319 265.755451 
L 330.8238 240.575378 
L 331.474411 258.204402 
L 332.125021 263.198797 
L 332.775631 271.091724 
L 333.426242 253.700528 
L 334.076852 249.538533 
L 334.727462 258.367909 
L 335.378073 274.005121 
L 336.028683 265.918958 
L 336.679293 275.551005 
L 337.329903 258.665195 
L 337.980514 264.477124 
L 338.631124 269.114776 
L 339.281734 263.614996 
L 339.932345 273.915935 
L 340.582955 264.863595 
L 341.233565 269.203962 
L 341.884176 255.915305 
L 342.534786 274.807792 
L 343.185396 249.746633 
L 343.836007 250.088511 
L 344.486617 247.591314 
L 345.137227 269.040455 
L 345.787837 260.523228 
L 346.438448 267.390521 
L 347.089058 269.367469 
L 347.739668 270.601203 
L 348.390279 265.755451 
L 349.040889 269.382333 
L 349.691499 250.133104 
L 350.34211 273.797021 
L 350.99272 230.467675 
L 351.64333 230.86901 
L 352.293941 271.745752 
L 352.944551 269.575569 
L 353.595161 231.106838 
L 354.245772 256.227454 
L 354.896382 178.44273 
L 355.546992 234.213471 
L 356.197602 270.125547 
L 356.848213 255.885576 
L 357.498823 269.293147 
L 358.149433 190.913853 
L 358.800044 233.262157 
L 359.450654 255.885576 
L 360.101264 213.626457 
L 360.751875 203.08769 
L 361.402485 267.256742 
L 362.053095 243.221218 
L 362.703706 206.996993 
L 363.354316 199.059473 
L 364.004926 251.991137 
L 364.655537 258.026031 
L 365.306147 252.095187 
L 365.956757 244.767102 
L 366.607367 261.771827 
L 367.257978 257.030125 
L 367.908588 255.915305 
L 368.559198 268.891812 
L 369.209809 250.266882 
L 369.860419 248.215613 
L 370.511029 250.593896 
L 371.16164 270.97281 
L 371.81225 276.844196 
L 373.113471 239.609201 
L 373.764081 252.749215 
L 374.414691 245.52518 
L 375.065302 265.562216 
L 375.715912 254.963991 
L 376.366522 268.653984 
L 377.017132 243.399589 
L 377.667743 233.871593 
L 378.318353 232.727044 
L 378.968963 198.152752 
L 379.619574 261.861013 
L 380.270184 252.466794 
L 380.920794 263.406897 
L 381.571405 269.560704 
L 382.222015 264.551445 
L 382.872625 231.627088 
L 383.523236 237.334967 
L 384.173846 233.024329 
L 384.824456 269.96204 
L 385.475066 263.183933 
L 386.125677 196.146076 
L 386.776287 246.684593 
L 388.077508 229.902832 
L 388.728118 248.929098 
L 389.378728 250.534439 
L 390.029339 256.034219 
L 390.679949 253.284329 
L 391.330559 53.568 
L 391.98117 228.579912 
L 392.63178 272.637608 
L 393.28239 200.248614 
L 393.933001 244.053617 
L 394.583611 257.520646 
L 395.234221 264.46226 
L 395.884831 241.586149 
L 396.535442 248.022377 
L 397.186052 230.274439 
L 397.836662 257.907117 
L 398.487273 159.862393 
L 398.487273 159.862393 
" style="fill:none;stroke:#ff0000;stroke-linecap:square;stroke-width:1.5;"/>
   </g>
   <g id="patch_3">
    <path d="M 57.6 307.584 
L 57.6 41.472 
" style="fill:none;stroke:#000000;stroke-linecap:square;stroke-linejoin:miter;stroke-width:0.8;"/>
   </g>
   <g id="patch_4">
    <path d="M 414.72 307.584 
L 414.72 41.472 
" style="fill:none;stroke:#000000;stroke-linecap:square;stroke-linejoin:miter;stroke-width:0.8;"/>
   </g>
   <g id="patch_5">
    <path d="M 57.6 307.584 
L 414.72 307.584 
" style="fill:none;stroke:#000000;stroke-linecap:square;stroke-linejoin:miter;stroke-width:0.8;"/>
   </g>
   <g id="patch_6">
    <path d="M 57.6 41.472 
L 414.72 41.472 
" style="fill:none;stroke:#000000;stroke-linecap:square;stroke-linejoin:miter;stroke-width:0.8;"/>
   </g>
   <g id="text_18">
    <!-- Population's average and best fitness -->
    <g transform="translate(123.529687 35.472)scale(0.12 -0.12)">
     <defs>
      <path d="M 1259 4147 
L 1259 2394 
L 2053 2394 
Q 2494 2394 2734 2622 
Q 2975 2850 2975 3272 
Q 2975 3691 2734 3919 
Q 2494 4147 2053 4147 
L 1259 4147 
z
M 628 4666 
L 2053 4666 
Q 2838 4666 3239 4311 
Q 3641 3956 3641 3272 
Q 3641 2581 3239 2228 
Q 2838 1875 2053 1875 
L 1259 1875 
L 1259 0 
L 628 0 
L 628 4666 
z
" id="DejaVuSans-50" transform="scale(0.015625)"/>
      <path d="M 1159 525 
L 1159 -1331 
L 581 -1331 
L 581 3500 
L 1159 3500 
L 1159 2969 
Q 1341 3281 1617 3432 
Q 1894 3584 2278 3584 
Q 2916 3584 3314 3078 
Q 3713 2572 3713 1747 
Q 3713 922 3314 415 
Q 2916 -91 2278 -91 
Q 1894 -91 1617 61 
Q 1341 213 1159 525 
z
M 3116 1747 
Q 3116 2381 2855 2742 
Q 2594 3103 2138 3103 
Q 1681 3103 1420 2742 
Q 1159 2381 1159 1747 
Q 1159 1113 1420 752 
Q 1681 391 2138 391 
Q 2594 391 2855 752 
Q 3116 1113 3116 1747 
z
" id="DejaVuSans-70" transform="scale(0.015625)"/>
      <path d="M 544 1381 
L 544 3500 
L 1119 3500 
L 1119 1403 
Q 1119 906 1312 657 
Q 1506 409 1894 409 
Q 2359 409 2629 706 
Q 2900 1003 2900 1516 
L 2900 3500 
L 3475 3500 
L 3475 0 
L 2900 0 
L 2900 538 
Q 2691 219 2414 64 
Q 2138 -91 1772 -91 
Q 1169 -91 856 284 
Q 544 659 544 1381 
z
M 1991 3584 
L 1991 3584 
z
" id="DejaVuSans-75" transform="scale(0.015625)"/>
      <path d="M 603 4863 
L 1178 4863 
L 1178 0 
L 603 0 
L 603 4863 
z
" id="DejaVuSans-6c" transform="scale(0.015625)"/>
      <path d="M 1147 4666 
L 1147 2931 
L 616 2931 
L 616 4666 
L 1147 4666 
z
" id="DejaVuSans-27" transform="scale(0.015625)"/>
      <path id="DejaVuSans-20" transform="scale(0.015625)"/>
      <path d="M 191 3500 
L 800 3500 
L 1894 563 
L 2988 3500 
L 3597 3500 
L 2284 0 
L 1503 0 
L 191 3500 
z
" id="DejaVuSans-76" transform="scale(0.015625)"/>
      <path d="M 2906 1791 
Q 2906 2416 2648 2759 
Q 2391 3103 1925 3103 
Q 1463 3103 1205 2759 
Q 947 2416 947 1791 
Q 947 1169 1205 825 
Q 1463 481 1925 481 
Q 2391 481 2648 825 
Q 2906 1169 2906 1791 
z
M 3481 434 
Q 3481 -459 3084 -895 
Q 2688 -1331 1869 -1331 
Q 1566 -1331 1297 -1286 
Q 1028 -1241 775 -1147 
L 775 -588 
Q 1028 -725 1275 -790 
Q 1522 -856 1778 -856 
Q 2344 -856 2625 -561 
Q 2906 -266 2906 331 
L 2906 616 
Q 2728 306 2450 153 
Q 2172 0 1784 0 
Q 1141 0 747 490 
Q 353 981 353 1791 
Q 353 2603 747 3093 
Q 1141 3584 1784 3584 
Q 2172 3584 2450 3431 
Q 2728 3278 2906 2969 
L 2906 3500 
L 3481 3500 
L 3481 434 
z
" id="DejaVuSans-67" transform="scale(0.015625)"/>
      <path d="M 2906 2969 
L 2906 4863 
L 3481 4863 
L 3481 0 
L 2906 0 
L 2906 525 
Q 2725 213 2448 61 
Q 2172 -91 1784 -91 
Q 1150 -91 751 415 
Q 353 922 353 1747 
Q 353 2572 751 3078 
Q 1150 3584 1784 3584 
Q 2172 3584 2448 3432 
Q 2725 3281 2906 2969 
z
M 947 1747 
Q 947 1113 1208 752 
Q 1469 391 1925 391 
Q 2381 391 2643 752 
Q 2906 1113 2906 1747 
Q 2906 2381 2643 2742 
Q 2381 3103 1925 3103 
Q 1469 3103 1208 2742 
Q 947 2381 947 1747 
z
" id="DejaVuSans-64" transform="scale(0.015625)"/>
      <path d="M 3116 1747 
Q 3116 2381 2855 2742 
Q 2594 3103 2138 3103 
Q 1681 3103 1420 2742 
Q 1159 2381 1159 1747 
Q 1159 1113 1420 752 
Q 1681 391 2138 391 
Q 2594 391 2855 752 
Q 3116 1113 3116 1747 
z
M 1159 2969 
Q 1341 3281 1617 3432 
Q 1894 3584 2278 3584 
Q 2916 3584 3314 3078 
Q 3713 2572 3713 1747 
Q 3713 922 3314 415 
Q 2916 -91 2278 -91 
Q 1894 -91 1617 61 
Q 1341 213 1159 525 
L 1159 0 
L 581 0 
L 581 4863 
L 1159 4863 
L 1159 2969 
z
" id="DejaVuSans-62" transform="scale(0.015625)"/>
      <path d="M 2375 4863 
L 2375 4384 
L 1825 4384 
Q 1516 4384 1395 4259 
Q 1275 4134 1275 3809 
L 1275 3500 
L 2222 3500 
L 2222 3053 
L 1275 3053 
L 1275 0 
L 697 0 
L 697 3053 
L 147 3053 
L 147 3500 
L 697 3500 
L 697 3744 
Q 697 4328 969 4595 
Q 1241 4863 1831 4863 
L 2375 4863 
z
" id="DejaVuSans-66" transform="scale(0.015625)"/>
     </defs>
     <use xlink:href="#DejaVuSans-50"/>
     <use x="56.677734" xlink:href="#DejaVuSans-6f"/>
     <use x="117.859375" xlink:href="#DejaVuSans-70"/>
     <use x="181.335938" xlink:href="#DejaVuSans-75"/>
     <use x="244.714844" xlink:href="#DejaVuSans-6c"/>
     <use x="272.498047" xlink:href="#DejaVuSans-61"/>
     <use x="333.777344" xlink:href="#DejaVuSans-74"/>
     <use x="372.986328" xlink:href="#DejaVuSans-69"/>
     <use x="400.769531" xlink:href="#DejaVuSans-6f"/>
     <use x="461.951172" xlink:href="#DejaVuSans-6e"/>
     <use x="525.330078" xlink:href="#DejaVuSans-27"/>
     <use x="552.820312" xlink:href="#DejaVuSans-73"/>
     <use x="604.919922" xlink:href="#DejaVuSans-20"/>
     <use x="636.707031" xlink:href="#DejaVuSans-61"/>
     <use x="697.986328" xlink:href="#DejaVuSans-76"/>
     <use x="757.166016" xlink:href="#DejaVuSans-65"/>
     <use x="818.689453" xlink:href="#DejaVuSans-72"/>
     <use x="859.802734" xlink:href="#DejaVuSans-61"/>
     <use x="921.082031" xlink:href="#DejaVuSans-67"/>
     <use x="984.558594" xlink:href="#DejaVuSans-65"/>
     <use x="1046.082031" xlink:href="#DejaVuSans-20"/>
     <use x="1077.869141" xlink:href="#DejaVuSans-61"/>
     <use x="1139.148438" xlink:href="#DejaVuSans-6e"/>
     <use x="1202.527344" xlink:href="#DejaVuSans-64"/>
     <use x="1266.003906" xlink:href="#DejaVuSans-20"/>
     <use x="1297.791016" xlink:href="#DejaVuSans-62"/>
     <use x="1361.267578" xlink:href="#DejaVuSans-65"/>
     <use x="1422.791016" xlink:href="#DejaVuSans-73"/>
     <use x="1474.890625" xlink:href="#DejaVuSans-74"/>
     <use x="1514.099609" xlink:href="#DejaVuSans-20"/>
     <use x="1545.886719" xlink:href="#DejaVuSans-66"/>
     <use x="1581.091797" xlink:href="#DejaVuSans-69"/>
     <use x="1608.875" xlink:href="#DejaVuSans-74"/>
     <use x="1648.083984" xlink:href="#DejaVuSans-6e"/>
     <use x="1711.462891" xlink:href="#DejaVuSans-65"/>
     <use x="1772.986328" xlink:href="#DejaVuSans-73"/>
     <use x="1825.085938" xlink:href="#DejaVuSans-73"/>
    </g>
   </g>
   <g id="legend_1">
    <g id="patch_7">
     <path d="M 64.6 108.1845 
L 137.540625 108.1845 
Q 139.540625 108.1845 139.540625 106.1845 
L 139.540625 48.472 
Q 139.540625 46.472 137.540625 46.472 
L 64.6 46.472 
Q 62.6 46.472 62.6 48.472 
L 62.6 106.1845 
Q 62.6 108.1845 64.6 108.1845 
z
" style="fill:#ffffff;opacity:0.8;stroke:#cccccc;stroke-linejoin:miter;"/>
    </g>
    <g id="line2d_35">
     <path d="M 66.6 54.570438 
L 86.6 54.570438 
" style="fill:none;stroke:#0000ff;stroke-linecap:square;stroke-width:1.5;"/>
    </g>
    <g id="line2d_36"/>
    <g id="text_19">
     <!-- average -->
     <g transform="translate(94.6 58.070438)scale(0.1 -0.1)">
      <use xlink:href="#DejaVuSans-61"/>
      <use x="61.279297" xlink:href="#DejaVuSans-76"/>
      <use x="120.458984" xlink:href="#DejaVuSans-65"/>
      <use x="181.982422" xlink:href="#DejaVuSans-72"/>
      <use x="223.095703" xlink:href="#DejaVuSans-61"/>
      <use x="284.375" xlink:href="#DejaVuSans-67"/>
      <use x="347.851562" xlink:href="#DejaVuSans-65"/>
     </g>
    </g>
    <g id="line2d_37">
     <path d="M 66.6 69.248563 
L 86.6 69.248563 
" style="fill:none;stroke:#008000;stroke-dasharray:9.6,2.4,1.5,2.4;stroke-dashoffset:0;stroke-width:1.5;"/>
    </g>
    <g id="line2d_38"/>
    <g id="text_20">
     <!-- -1 sd -->
     <g transform="translate(94.6 72.748563)scale(0.1 -0.1)">
      <defs>
       <path d="M 313 2009 
L 1997 2009 
L 1997 1497 
L 313 1497 
L 313 2009 
z
" id="DejaVuSans-2d" transform="scale(0.015625)"/>
      </defs>
      <use xlink:href="#DejaVuSans-2d"/>
      <use x="36.083984" xlink:href="#DejaVuSans-31"/>
      <use x="99.707031" xlink:href="#DejaVuSans-20"/>
      <use x="131.494141" xlink:href="#DejaVuSans-73"/>
      <use x="183.59375" xlink:href="#DejaVuSans-64"/>
     </g>
    </g>
    <g id="line2d_39">
     <path d="M 66.6 83.926688 
L 86.6 83.926688 
" style="fill:none;stroke:#008000;stroke-dasharray:9.6,2.4,1.5,2.4;stroke-dashoffset:0;stroke-width:1.5;"/>
    </g>
    <g id="line2d_40"/>
    <g id="text_21">
     <!-- +1 sd -->
     <g transform="translate(94.6 87.426688)scale(0.1 -0.1)">
      <defs>
       <path d="M 2944 4013 
L 2944 2272 
L 4684 2272 
L 4684 1741 
L 2944 1741 
L 2944 0 
L 2419 0 
L 2419 1741 
L 678 1741 
L 678 2272 
L 2419 2272 
L 2419 4013 
L 2944 4013 
z
" id="DejaVuSans-2b" transform="scale(0.015625)"/>
      </defs>
      <use xlink:href="#DejaVuSans-2b"/>
      <use x="83.789062" xlink:href="#DejaVuSans-31"/>
      <use x="147.412109" xlink:href="#DejaVuSans-20"/>
      <use x="179.199219" xlink:href="#DejaVuSans-73"/>
      <use x="231.298828" xlink:href="#DejaVuSans-64"/>
     </g>
    </g>
    <g id="line2d_41">
     <path d="M 66.6 98.604813 
L 86.6 98.604813 
" style="fill:none;stroke:#ff0000;stroke-linecap:square;stroke-width:1.5;"/>
    </g>
    <g id="line2d_42"/>
    <g id="text_22">
     <!-- best -->
     <g transform="translate(94.6 102.104813)scale(0.1 -0.1)">
      <use xlink:href="#DejaVuSans-62"/>
      <use x="63.476562" xlink:href="#DejaVuSans-65"/>
      <use x="125" xlink:href="#DejaVuSans-73"/>
      <use x="177.099609" xlink:href="#DejaVuSans-74"/>
     </g>
    </g>
   </g>
  </g>
 </g>
 <defs>
  <clipPath id="pb60caba57d">
   <rect height="266.112" width="357.12" x="57.6" y="41.472"/>
  </clipPath>
 </defs>
</svg>
