<?xml version="1.0" encoding="UTF-8" standalone="no"?>
<!DOCTYPE svg PUBLIC "-//W3C//DTD SVG 1.1//EN"
 "http://www.w3.org/Graphics/SVG/1.1/DTD/svg11.dtd">
<!-- Generated by graphviz version 2.48.0 (20210717.1556)
 -->
<!-- Pages: 1 -->
<svg width="305pt" height="106pt"
 viewBox="0.00 0.00 304.50 105.84" xmlns="http://www.w3.org/2000/svg" xmlns:xlink="http://www.w3.org/1999/xlink">
<g id="graph0" class="graph" transform="scale(1 1) rotate(0) translate(4 101.84)">
<polygon fill="white" stroke="transparent" points="-4,4 -4,-101.84 300.5,-101.84 300.5,4 -4,4"/>
<!-- fly.y_mid -->
<g id="node1" class="node">
<title>fly.y_mid</title>
<polygon fill="lightgray" stroke="black" points="53,-97.84 0,-97.84 0,-79.84 53,-79.84 53,-97.84"/>
<text text-anchor="middle" x="26.5" y="-86.64" font-family="Times New Roman,serif" font-size="9.00">fly.y_mid</text>
</g>
<!-- flap -->
<g id="node4" class="node">
<title>flap</title>
<ellipse fill="lightblue" stroke="black" cx="132.5" cy="-21.92" rx="21.84" ry="21.84"/>
<text text-anchor="middle" x="132.5" y="-19.72" font-family="Times New Roman,serif" font-size="9.00">flap</text>
</g>
<!-- fly.y_mid&#45;&gt;flap -->
<g id="edge1" class="edge">
<title>fly.y_mid&#45;&gt;flap</title>
<path fill="none" stroke="green" stroke-width="0.69" d="M39.92,-79.62C56.33,-69.57 84.48,-52.33 105.44,-39.49"/>
<polygon fill="green" stroke="green" stroke-width="0.69" points="107.52,-42.33 114.22,-34.12 103.86,-36.36 107.52,-42.33"/>
</g>
<!-- abs(wasp.y_mid &#45; fly.y_mid) -->
<g id="node2" class="node">
<title>abs(wasp.y_mid &#45; fly.y_mid)</title>
<polygon fill="lightgray" stroke="black" points="194,-97.84 71,-97.84 71,-79.84 194,-79.84 194,-97.84"/>
<text text-anchor="middle" x="132.5" y="-86.64" font-family="Times New Roman,serif" font-size="9.00">abs(wasp.y_mid &#45; fly.y_mid)</text>
</g>
<!-- abs(wasp.y_mid &#45; fly.y_mid)&#45;&gt;flap -->
<g id="edge2" class="edge">
<title>abs(wasp.y_mid &#45; fly.y_mid)&#45;&gt;flap</title>
<path fill="none" stroke="red" stroke-width="0.36" d="M132.5,-79.62C132.5,-73.05 132.5,-63.42 132.5,-53.94"/>
<polygon fill="red" stroke="red" stroke-width="0.36" points="136,-53.88 132.5,-43.88 129,-53.88 136,-53.88"/>
</g>
<!-- wasp.x_mid &#45; fly.x -->
<g id="node3" class="node">
<title>wasp.x_mid &#45; fly.x</title>
<polygon fill="lightgray" stroke="black" points="296.5,-97.84 212.5,-97.84 212.5,-79.84 296.5,-79.84 296.5,-97.84"/>
<text text-anchor="middle" x="254.5" y="-86.64" font-family="Times New Roman,serif" font-size="9.00">wasp.x_mid &#45; fly.x</text>
</g>
<!-- wasp.x_mid &#45; fly.x&#45;&gt;flap -->
<g id="edge3" class="edge">
<title>wasp.x_mid &#45; fly.x&#45;&gt;flap</title>
<path fill="none" stroke="red" stroke-width="1.04" d="M239.05,-79.62C219.35,-69.14 184.93,-50.82 160.55,-37.84"/>
<polygon fill="red" stroke="red" stroke-width="1.04" points="161.9,-34.6 151.42,-32.99 158.61,-40.78 161.9,-34.6"/>
</g>
</g>
</svg>
