<?xml version="1.0" encoding="UTF-8" standalone="no"?>
<!DOCTYPE svg PUBLIC "-//W3C//DTD SVG 1.1//EN"
 "http://www.w3.org/Graphics/SVG/1.1/DTD/svg11.dtd">
<!-- Generated by graphviz version 2.48.0 (20210717.1556)
 -->
<!-- Pages: 1 -->
<svg width="231pt" height="106pt"
 viewBox="0.00 0.00 231.00 105.84" xmlns="http://www.w3.org/2000/svg" xmlns:xlink="http://www.w3.org/1999/xlink">
<g id="graph0" class="graph" transform="scale(1 1) rotate(0) translate(4 101.84)">
<polygon fill="white" stroke="transparent" points="-4,4 -4,-101.84 227,-101.84 227,4 -4,4"/>
<!-- fly.y -->
<g id="node1" class="node">
<title>fly.y</title>
<polygon fill="lightgray" stroke="black" points="35,-97.84 0,-97.84 0,-79.84 35,-79.84 35,-97.84"/>
<text text-anchor="middle" x="17.5" y="-86.64" font-family="Times New Roman,serif" font-size="9.00">fly.y</text>
</g>
<!-- flap -->
<g id="node4" class="node">
<title>flap</title>
<ellipse fill="lightblue" stroke="black" cx="87.5" cy="-21.92" rx="21.84" ry="21.84"/>
<text text-anchor="middle" x="87.5" y="-19.72" font-family="Times New Roman,serif" font-size="9.00">flap</text>
</g>
<!-- fly.y&#45;&gt;flap -->
<g id="edge1" class="edge">
<title>fly.y&#45;&gt;flap</title>
<path fill="none" stroke="green" stroke-width="0.6" d="M26.37,-79.62C35.81,-70.86 51.15,-56.63 64.11,-44.62"/>
<polygon fill="green" stroke="green" stroke-width="0.6" points="66.83,-46.86 71.79,-37.49 62.07,-41.73 66.83,-46.86"/>
</g>
<!-- fly.y &#45; wasp.y -->
<g id="node2" class="node">
<title>fly.y &#45; wasp.y</title>
<polygon fill="lightgray" stroke="black" points="122,-97.84 53,-97.84 53,-79.84 122,-79.84 122,-97.84"/>
<text text-anchor="middle" x="87.5" y="-86.64" font-family="Times New Roman,serif" font-size="9.00">fly.y &#45; wasp.y</text>
</g>
<!-- fly.y &#45; wasp.y&#45;&gt;flap -->
<g id="edge2" class="edge">
<title>fly.y &#45; wasp.y&#45;&gt;flap</title>
<path fill="none" stroke="red" stroke-width="0.46" d="M87.5,-79.62C87.5,-73.05 87.5,-63.42 87.5,-53.94"/>
<polygon fill="red" stroke="red" stroke-width="0.46" points="91,-53.88 87.5,-43.88 84,-53.88 91,-53.88"/>
</g>
<!-- wasp.x_end &#45; fly.x -->
<g id="node3" class="node">
<title>wasp.x_end &#45; fly.x</title>
<polygon fill="lightgray" stroke="black" points="223,-97.84 140,-97.84 140,-79.84 223,-79.84 223,-97.84"/>
<text text-anchor="middle" x="181.5" y="-86.64" font-family="Times New Roman,serif" font-size="9.00">wasp.x_end &#45; fly.x</text>
</g>
<!-- wasp.x_end &#45; fly.x&#45;&gt;flap -->
<g id="edge3" class="edge">
<title>wasp.x_end &#45; fly.x&#45;&gt;flap</title>
<path fill="none" stroke="red" stroke-width="0.44" d="M169.59,-79.62C155.58,-69.94 131.91,-53.59 113.57,-40.93"/>
<polygon fill="red" stroke="red" stroke-width="0.44" points="115.28,-37.85 105.07,-35.05 111.3,-43.61 115.28,-37.85"/>
</g>
</g>
</svg>
