<?xml version="1.0" encoding="utf-8" standalone="no"?>
<!DOCTYPE svg PUBLIC "-//W3C//DTD SVG 1.1//EN"
  "http://www.w3.org/Graphics/SVG/1.1/DTD/svg11.dtd">
<svg height="345.6pt" version="1.1" viewBox="0 0 460.8 345.6" width="460.8pt" xmlns="http://www.w3.org/2000/svg" xmlns:xlink="http://www.w3.org/1999/xlink">
 <metadata>
  <rdf:RDF xmlns:cc="http://creativecommons.org/ns#" xmlns:dc="http://purl.org/dc/elements/1.1/" xmlns:rdf="http://www.w3.org/1999/02/22-rdf-syntax-ns#">
   <cc:Work>
    <dc:type rdf:resource="http://purl.org/dc/dcmitype/StillImage"/>
    <dc:date>2021-07-30T16:51:10.731185</dc:date>
    <dc:format>image/svg+xml</dc:format>
    <dc:creator>
     <cc:Agent>
      <dc:title>Matplotlib v3.4.2, https://matplotlib.org/</dc:title>
     </cc:Agent>
    </dc:creator>
   </cc:Work>
  </rdf:RDF>
 </metadata>
 <defs>
  <style type="text/css">*{stroke-linecap:butt;stroke-linejoin:round;}</style>
 </defs>
 <g id="figure_1">
  <g id="patch_1">
   <path d="M 0 345.6 
L 460.8 345.6 
L 460.8 0 
L 0 0 
z
" style="fill:#ffffff;"/>
  </g>
  <g id="axes_1">
   <g id="patch_2">
    <path d="M 57.6 307.584 
L 414.72 307.584 
L 414.72 41.472 
L 57.6 41.472 
z
" style="fill:#ffffff;"/>
   </g>
   <g id="PolyCollection_1">
    <path clip-path="url(#pb76c559721)" d="M 73.832727 56.653307 
L 73.832727 307.584 
L 77.890909 307.584 
L 81.949091 307.584 
L 86.007273 307.584 
L 90.065455 307.584 
L 94.123636 307.584 
L 98.181818 307.584 
L 102.24 307.584 
L 106.298182 307.584 
L 110.356364 307.584 
L 114.414545 307.584 
L 118.472727 307.584 
L 122.530909 307.584 
L 126.589091 307.584 
L 130.647273 307.584 
L 134.705455 307.584 
L 138.763636 307.584 
L 142.821818 307.584 
L 146.88 307.584 
L 150.938182 307.584 
L 154.996364 307.584 
L 159.054545 307.584 
L 163.112727 307.584 
L 167.170909 307.584 
L 171.229091 307.584 
L 175.287273 307.584 
L 179.345455 307.584 
L 183.403636 307.584 
L 187.461818 307.584 
L 191.52 307.584 
L 195.578182 307.584 
L 199.636364 307.584 
L 203.694545 307.584 
L 207.752727 307.584 
L 211.810909 307.584 
L 215.869091 307.584 
L 219.927273 307.584 
L 223.985455 307.584 
L 228.043636 307.584 
L 232.101818 307.584 
L 236.16 307.584 
L 240.218182 307.584 
L 244.276364 307.584 
L 248.334545 307.584 
L 252.392727 307.584 
L 256.450909 307.584 
L 260.509091 307.584 
L 264.567273 307.584 
L 268.625455 307.584 
L 272.683636 307.584 
L 276.741818 307.584 
L 280.8 307.584 
L 284.858182 307.584 
L 288.916364 307.584 
L 292.974545 307.584 
L 297.032727 307.584 
L 301.090909 307.584 
L 305.149091 307.584 
L 309.207273 307.584 
L 313.265455 307.584 
L 317.323636 307.584 
L 321.381818 307.584 
L 325.44 307.584 
L 329.498182 307.584 
L 333.556364 307.584 
L 337.614545 307.584 
L 341.672727 307.584 
L 345.730909 307.584 
L 349.789091 307.584 
L 353.847273 307.584 
L 357.905455 307.584 
L 361.963636 307.584 
L 366.021818 307.584 
L 370.08 307.584 
L 374.138182 307.584 
L 378.196364 307.584 
L 382.254545 307.584 
L 386.312727 307.584 
L 390.370909 307.584 
L 394.429091 307.584 
L 398.487273 307.584 
L 398.487273 307.584 
L 398.487273 307.584 
L 394.429091 307.584 
L 390.370909 307.584 
L 386.312727 307.584 
L 382.254545 307.584 
L 378.196364 307.584 
L 374.138182 307.584 
L 370.08 307.584 
L 366.021818 307.584 
L 361.963636 307.584 
L 357.905455 307.584 
L 353.847273 307.584 
L 349.789091 307.584 
L 345.730909 307.584 
L 341.672727 307.584 
L 337.614545 307.584 
L 333.556364 307.584 
L 329.498182 307.584 
L 325.44 307.584 
L 321.381818 307.584 
L 317.323636 307.584 
L 313.265455 307.584 
L 309.207273 307.584 
L 305.149091 307.584 
L 301.090909 307.584 
L 297.032727 307.584 
L 292.974545 307.584 
L 288.916364 307.584 
L 284.858182 307.584 
L 280.8 239.832713 
L 276.741818 212.230337 
L 272.683636 207.211723 
L 268.625455 207.211723 
L 264.567273 192.155881 
L 260.509091 209.72103 
L 256.450909 187.137267 
L 252.392727 199.683802 
L 248.334545 207.211723 
L 244.276364 164.553505 
L 240.218182 149.497663 
L 236.16 167.062812 
L 232.101818 222.267564 
L 228.043636 202.193109 
L 223.985455 224.776871 
L 219.927273 244.851327 
L 215.869091 244.851327 
L 211.810909 237.323406 
L 207.752727 244.851327 
L 203.694545 217.24895 
L 199.636364 199.683802 
L 195.578182 207.211723 
L 191.52 224.776871 
L 187.461818 219.758257 
L 183.403636 224.776871 
L 179.345455 219.758257 
L 175.287273 209.72103 
L 171.229091 219.758257 
L 167.170909 227.286178 
L 163.112727 254.888554 
L 159.054545 234.814099 
L 154.996364 224.776871 
L 150.938182 224.776871 
L 146.88 212.230337 
L 142.821818 169.572119 
L 138.763636 172.081426 
L 134.705455 199.683802 
L 130.647273 154.516277 
L 126.589091 179.609347 
L 122.530909 141.969743 
L 118.472727 141.969743 
L 114.414545 81.746376 
L 110.356364 56.653307 
L 106.298182 56.653307 
L 102.24 56.653307 
L 98.181818 56.653307 
L 94.123636 56.653307 
L 90.065455 56.653307 
L 86.007273 56.653307 
L 81.949091 56.653307 
L 77.890909 56.653307 
L 73.832727 56.653307 
z
" style="fill:#1f77b4;"/>
   </g>
   <g id="PolyCollection_2">
    <path clip-path="url(#pb76c559721)" d="M 73.832727 56.653307 
L 73.832727 56.653307 
L 77.890909 56.653307 
L 81.949091 56.653307 
L 86.007273 56.653307 
L 90.065455 56.653307 
L 94.123636 56.653307 
L 98.181818 56.653307 
L 102.24 56.653307 
L 106.298182 56.653307 
L 110.356364 56.653307 
L 114.414545 81.746376 
L 118.472727 141.969743 
L 122.530909 141.969743 
L 126.589091 179.609347 
L 130.647273 154.516277 
L 134.705455 199.683802 
L 138.763636 172.081426 
L 142.821818 169.572119 
L 146.88 212.230337 
L 150.938182 224.776871 
L 154.996364 224.776871 
L 159.054545 234.814099 
L 163.112727 254.888554 
L 167.170909 227.286178 
L 171.229091 219.758257 
L 175.287273 209.72103 
L 179.345455 219.758257 
L 183.403636 224.776871 
L 187.461818 219.758257 
L 191.52 224.776871 
L 195.578182 207.211723 
L 199.636364 199.683802 
L 203.694545 217.24895 
L 207.752727 244.851327 
L 211.810909 237.323406 
L 215.869091 244.851327 
L 219.927273 244.851327 
L 223.985455 224.776871 
L 228.043636 202.193109 
L 232.101818 222.267564 
L 236.16 167.062812 
L 240.218182 149.497663 
L 244.276364 164.553505 
L 248.334545 207.211723 
L 252.392727 199.683802 
L 256.450909 187.137267 
L 260.509091 209.72103 
L 264.567273 192.155881 
L 268.625455 207.211723 
L 272.683636 207.211723 
L 276.741818 212.230337 
L 280.8 239.832713 
L 284.858182 307.584 
L 288.916364 307.584 
L 292.974545 307.584 
L 297.032727 307.584 
L 301.090909 307.584 
L 305.149091 307.584 
L 309.207273 307.584 
L 313.265455 307.584 
L 317.323636 307.584 
L 321.381818 307.584 
L 325.44 307.584 
L 329.498182 307.584 
L 333.556364 307.584 
L 337.614545 307.584 
L 341.672727 307.584 
L 345.730909 307.584 
L 349.789091 307.584 
L 353.847273 307.584 
L 357.905455 307.584 
L 361.963636 307.584 
L 366.021818 307.584 
L 370.08 307.584 
L 374.138182 307.584 
L 378.196364 307.584 
L 382.254545 307.584 
L 386.312727 307.584 
L 390.370909 307.584 
L 394.429091 307.584 
L 398.487273 307.584 
L 398.487273 307.584 
L 398.487273 307.584 
L 394.429091 307.584 
L 390.370909 307.584 
L 386.312727 307.584 
L 382.254545 307.584 
L 378.196364 307.584 
L 374.138182 307.584 
L 370.08 307.584 
L 366.021818 307.584 
L 361.963636 307.584 
L 357.905455 307.584 
L 353.847273 307.584 
L 349.789091 307.584 
L 345.730909 307.584 
L 341.672727 307.584 
L 337.614545 307.584 
L 333.556364 307.584 
L 329.498182 307.584 
L 325.44 307.584 
L 321.381818 307.584 
L 317.323636 307.584 
L 313.265455 307.584 
L 309.207273 307.584 
L 305.149091 307.584 
L 301.090909 307.584 
L 297.032727 307.584 
L 292.974545 307.584 
L 288.916364 307.584 
L 284.858182 307.584 
L 280.8 239.832713 
L 276.741818 212.230337 
L 272.683636 207.211723 
L 268.625455 207.211723 
L 264.567273 192.155881 
L 260.509091 209.72103 
L 256.450909 187.137267 
L 252.392727 199.683802 
L 248.334545 207.211723 
L 244.276364 164.553505 
L 240.218182 149.497663 
L 236.16 167.062812 
L 232.101818 169.572119 
L 228.043636 184.62796 
L 223.985455 169.572119 
L 219.927273 167.062812 
L 215.869091 172.081426 
L 211.810909 159.534891 
L 207.752727 174.590733 
L 203.694545 146.988356 
L 199.636364 134.441822 
L 195.578182 131.932515 
L 191.52 141.969743 
L 187.461818 136.951129 
L 183.403636 146.988356 
L 179.345455 144.47905 
L 175.287273 131.932515 
L 171.229091 129.423208 
L 167.170909 134.441822 
L 163.112727 144.47905 
L 159.054545 144.47905 
L 154.996364 136.951129 
L 150.938182 134.441822 
L 146.88 106.839446 
L 142.821818 74.218455 
L 138.763636 56.653307 
L 134.705455 56.653307 
L 130.647273 56.653307 
L 126.589091 56.653307 
L 122.530909 56.653307 
L 118.472727 56.653307 
L 114.414545 56.653307 
L 110.356364 56.653307 
L 106.298182 56.653307 
L 102.24 56.653307 
L 98.181818 56.653307 
L 94.123636 56.653307 
L 90.065455 56.653307 
L 86.007273 56.653307 
L 81.949091 56.653307 
L 77.890909 56.653307 
L 73.832727 56.653307 
z
" style="fill:#ff7f0e;"/>
   </g>
   <g id="PolyCollection_3">
    <path clip-path="url(#pb76c559721)" d="M 73.832727 56.653307 
L 73.832727 56.653307 
L 77.890909 56.653307 
L 81.949091 56.653307 
L 86.007273 56.653307 
L 90.065455 56.653307 
L 94.123636 56.653307 
L 98.181818 56.653307 
L 102.24 56.653307 
L 106.298182 56.653307 
L 110.356364 56.653307 
L 114.414545 56.653307 
L 118.472727 56.653307 
L 122.530909 56.653307 
L 126.589091 56.653307 
L 130.647273 56.653307 
L 134.705455 56.653307 
L 138.763636 56.653307 
L 142.821818 74.218455 
L 146.88 106.839446 
L 150.938182 134.441822 
L 154.996364 136.951129 
L 159.054545 144.47905 
L 163.112727 144.47905 
L 167.170909 134.441822 
L 171.229091 129.423208 
L 175.287273 131.932515 
L 179.345455 144.47905 
L 183.403636 146.988356 
L 187.461818 136.951129 
L 191.52 141.969743 
L 195.578182 131.932515 
L 199.636364 134.441822 
L 203.694545 146.988356 
L 207.752727 174.590733 
L 211.810909 159.534891 
L 215.869091 172.081426 
L 219.927273 167.062812 
L 223.985455 169.572119 
L 228.043636 184.62796 
L 232.101818 169.572119 
L 236.16 167.062812 
L 240.218182 149.497663 
L 244.276364 164.553505 
L 248.334545 207.211723 
L 252.392727 199.683802 
L 256.450909 187.137267 
L 260.509091 209.72103 
L 264.567273 192.155881 
L 268.625455 207.211723 
L 272.683636 207.211723 
L 276.741818 212.230337 
L 280.8 239.832713 
L 284.858182 307.584 
L 288.916364 307.584 
L 292.974545 307.584 
L 297.032727 307.584 
L 301.090909 307.584 
L 305.149091 307.584 
L 309.207273 307.584 
L 313.265455 307.584 
L 317.323636 307.584 
L 321.381818 307.584 
L 325.44 307.584 
L 329.498182 307.584 
L 333.556364 307.584 
L 337.614545 307.584 
L 341.672727 307.584 
L 345.730909 307.584 
L 349.789091 307.584 
L 353.847273 307.584 
L 357.905455 307.584 
L 361.963636 307.584 
L 366.021818 307.584 
L 370.08 307.584 
L 374.138182 307.584 
L 378.196364 307.584 
L 382.254545 307.584 
L 386.312727 307.584 
L 390.370909 307.584 
L 394.429091 307.584 
L 398.487273 307.584 
L 398.487273 307.584 
L 398.487273 307.584 
L 394.429091 307.584 
L 390.370909 307.584 
L 386.312727 307.584 
L 382.254545 307.584 
L 378.196364 307.584 
L 374.138182 282.490931 
L 370.08 249.869941 
L 366.021818 219.758257 
L 361.963636 229.795485 
L 357.905455 214.739644 
L 353.847273 207.211723 
L 349.789091 212.230337 
L 345.730909 217.24895 
L 341.672727 229.795485 
L 337.614545 212.230337 
L 333.556364 257.397861 
L 329.498182 247.360634 
L 325.44 209.72103 
L 321.381818 254.888554 
L 317.323636 202.193109 
L 313.265455 199.683802 
L 309.207273 197.174495 
L 305.149091 204.702416 
L 301.090909 194.665188 
L 297.032727 184.62796 
L 292.974545 182.118653 
L 288.916364 177.10004 
L 284.858182 152.00697 
L 280.8 106.839446 
L 276.741818 76.727762 
L 272.683636 56.653307 
L 268.625455 56.653307 
L 264.567273 56.653307 
L 260.509091 56.653307 
L 256.450909 56.653307 
L 252.392727 56.653307 
L 248.334545 56.653307 
L 244.276364 56.653307 
L 240.218182 56.653307 
L 236.16 56.653307 
L 232.101818 56.653307 
L 228.043636 56.653307 
L 223.985455 56.653307 
L 219.927273 56.653307 
L 215.869091 56.653307 
L 211.810909 59.162614 
L 207.752727 56.653307 
L 203.694545 59.162614 
L 199.636364 56.653307 
L 195.578182 56.653307 
L 191.52 56.653307 
L 187.461818 54.144 
L 183.403636 56.653307 
L 179.345455 56.653307 
L 175.287273 56.653307 
L 171.229091 56.653307 
L 167.170909 56.653307 
L 163.112727 54.144 
L 159.054545 56.653307 
L 154.996364 56.653307 
L 150.938182 56.653307 
L 146.88 56.653307 
L 142.821818 56.653307 
L 138.763636 56.653307 
L 134.705455 56.653307 
L 130.647273 56.653307 
L 126.589091 56.653307 
L 122.530909 56.653307 
L 118.472727 56.653307 
L 114.414545 56.653307 
L 110.356364 56.653307 
L 106.298182 56.653307 
L 102.24 56.653307 
L 98.181818 56.653307 
L 94.123636 56.653307 
L 90.065455 56.653307 
L 86.007273 56.653307 
L 81.949091 56.653307 
L 77.890909 56.653307 
L 73.832727 56.653307 
z
" style="fill:#2ca02c;"/>
   </g>
   <g id="PolyCollection_4">
    <path clip-path="url(#pb76c559721)" d="M 73.832727 56.653307 
L 73.832727 56.653307 
L 77.890909 56.653307 
L 81.949091 56.653307 
L 86.007273 56.653307 
L 90.065455 56.653307 
L 94.123636 56.653307 
L 98.181818 56.653307 
L 102.24 56.653307 
L 106.298182 56.653307 
L 110.356364 56.653307 
L 114.414545 56.653307 
L 118.472727 56.653307 
L 122.530909 56.653307 
L 126.589091 56.653307 
L 130.647273 56.653307 
L 134.705455 56.653307 
L 138.763636 56.653307 
L 142.821818 56.653307 
L 146.88 56.653307 
L 150.938182 56.653307 
L 154.996364 56.653307 
L 159.054545 56.653307 
L 163.112727 54.144 
L 167.170909 56.653307 
L 171.229091 56.653307 
L 175.287273 56.653307 
L 179.345455 56.653307 
L 183.403636 56.653307 
L 187.461818 54.144 
L 191.52 56.653307 
L 195.578182 56.653307 
L 199.636364 56.653307 
L 203.694545 59.162614 
L 207.752727 56.653307 
L 211.810909 59.162614 
L 215.869091 56.653307 
L 219.927273 56.653307 
L 223.985455 56.653307 
L 228.043636 56.653307 
L 232.101818 56.653307 
L 236.16 56.653307 
L 240.218182 56.653307 
L 244.276364 56.653307 
L 248.334545 56.653307 
L 252.392727 56.653307 
L 256.450909 56.653307 
L 260.509091 56.653307 
L 264.567273 56.653307 
L 268.625455 56.653307 
L 272.683636 56.653307 
L 276.741818 76.727762 
L 280.8 106.839446 
L 284.858182 152.00697 
L 288.916364 177.10004 
L 292.974545 182.118653 
L 297.032727 184.62796 
L 301.090909 194.665188 
L 305.149091 204.702416 
L 309.207273 197.174495 
L 313.265455 199.683802 
L 317.323636 202.193109 
L 321.381818 254.888554 
L 325.44 209.72103 
L 329.498182 247.360634 
L 333.556364 257.397861 
L 337.614545 212.230337 
L 341.672727 229.795485 
L 345.730909 217.24895 
L 349.789091 212.230337 
L 353.847273 207.211723 
L 357.905455 214.739644 
L 361.963636 229.795485 
L 366.021818 219.758257 
L 370.08 249.869941 
L 374.138182 282.490931 
L 378.196364 307.584 
L 382.254545 307.584 
L 386.312727 307.584 
L 390.370909 307.584 
L 394.429091 307.584 
L 398.487273 307.584 
L 398.487273 307.584 
L 398.487273 307.584 
L 394.429091 307.584 
L 390.370909 307.584 
L 386.312727 307.584 
L 382.254545 307.584 
L 378.196364 307.584 
L 374.138182 247.360634 
L 370.08 214.739644 
L 366.021818 184.62796 
L 361.963636 177.10004 
L 357.905455 136.951129 
L 353.847273 169.572119 
L 349.789091 159.534891 
L 345.730909 174.590733 
L 341.672727 179.609347 
L 337.614545 159.534891 
L 333.556364 179.609347 
L 329.498182 157.025584 
L 325.44 126.913901 
L 321.381818 154.516277 
L 317.323636 141.969743 
L 313.265455 131.932515 
L 309.207273 119.38598 
L 305.149091 134.441822 
L 301.090909 94.292911 
L 297.032727 71.709149 
L 292.974545 56.653307 
L 288.916364 56.653307 
L 284.858182 56.653307 
L 280.8 56.653307 
L 276.741818 56.653307 
L 272.683636 56.653307 
L 268.625455 56.653307 
L 264.567273 56.653307 
L 260.509091 56.653307 
L 256.450909 56.653307 
L 252.392727 56.653307 
L 248.334545 56.653307 
L 244.276364 56.653307 
L 240.218182 56.653307 
L 236.16 56.653307 
L 232.101818 56.653307 
L 228.043636 56.653307 
L 223.985455 56.653307 
L 219.927273 56.653307 
L 215.869091 56.653307 
L 211.810909 59.162614 
L 207.752727 56.653307 
L 203.694545 59.162614 
L 199.636364 56.653307 
L 195.578182 56.653307 
L 191.52 56.653307 
L 187.461818 54.144 
L 183.403636 56.653307 
L 179.345455 56.653307 
L 175.287273 56.653307 
L 171.229091 56.653307 
L 167.170909 56.653307 
L 163.112727 54.144 
L 159.054545 56.653307 
L 154.996364 56.653307 
L 150.938182 56.653307 
L 146.88 56.653307 
L 142.821818 56.653307 
L 138.763636 56.653307 
L 134.705455 56.653307 
L 130.647273 56.653307 
L 126.589091 56.653307 
L 122.530909 56.653307 
L 118.472727 56.653307 
L 114.414545 56.653307 
L 110.356364 56.653307 
L 106.298182 56.653307 
L 102.24 56.653307 
L 98.181818 56.653307 
L 94.123636 56.653307 
L 90.065455 56.653307 
L 86.007273 56.653307 
L 81.949091 56.653307 
L 77.890909 56.653307 
L 73.832727 56.653307 
z
" style="fill:#d62728;"/>
   </g>
   <g id="PolyCollection_5">
    <path clip-path="url(#pb76c559721)" d="M 73.832727 56.653307 
L 73.832727 56.653307 
L 77.890909 56.653307 
L 81.949091 56.653307 
L 86.007273 56.653307 
L 90.065455 56.653307 
L 94.123636 56.653307 
L 98.181818 56.653307 
L 102.24 56.653307 
L 106.298182 56.653307 
L 110.356364 56.653307 
L 114.414545 56.653307 
L 118.472727 56.653307 
L 122.530909 56.653307 
L 126.589091 56.653307 
L 130.647273 56.653307 
L 134.705455 56.653307 
L 138.763636 56.653307 
L 142.821818 56.653307 
L 146.88 56.653307 
L 150.938182 56.653307 
L 154.996364 56.653307 
L 159.054545 56.653307 
L 163.112727 54.144 
L 167.170909 56.653307 
L 171.229091 56.653307 
L 175.287273 56.653307 
L 179.345455 56.653307 
L 183.403636 56.653307 
L 187.461818 54.144 
L 191.52 56.653307 
L 195.578182 56.653307 
L 199.636364 56.653307 
L 203.694545 59.162614 
L 207.752727 56.653307 
L 211.810909 59.162614 
L 215.869091 56.653307 
L 219.927273 56.653307 
L 223.985455 56.653307 
L 228.043636 56.653307 
L 232.101818 56.653307 
L 236.16 56.653307 
L 240.218182 56.653307 
L 244.276364 56.653307 
L 248.334545 56.653307 
L 252.392727 56.653307 
L 256.450909 56.653307 
L 260.509091 56.653307 
L 264.567273 56.653307 
L 268.625455 56.653307 
L 272.683636 56.653307 
L 276.741818 56.653307 
L 280.8 56.653307 
L 284.858182 56.653307 
L 288.916364 56.653307 
L 292.974545 56.653307 
L 297.032727 71.709149 
L 301.090909 94.292911 
L 305.149091 134.441822 
L 309.207273 119.38598 
L 313.265455 131.932515 
L 317.323636 141.969743 
L 321.381818 154.516277 
L 325.44 126.913901 
L 329.498182 157.025584 
L 333.556364 179.609347 
L 337.614545 159.534891 
L 341.672727 179.609347 
L 345.730909 174.590733 
L 349.789091 159.534891 
L 353.847273 169.572119 
L 357.905455 136.951129 
L 361.963636 177.10004 
L 366.021818 184.62796 
L 370.08 214.739644 
L 374.138182 247.360634 
L 378.196364 307.584 
L 382.254545 307.584 
L 386.312727 307.584 
L 390.370909 307.584 
L 394.429091 307.584 
L 398.487273 307.584 
L 398.487273 307.584 
L 398.487273 307.584 
L 394.429091 307.584 
L 390.370909 307.584 
L 386.312727 307.584 
L 382.254545 307.584 
L 378.196364 247.360634 
L 374.138182 207.211723 
L 370.08 149.497663 
L 366.021818 114.367366 
L 361.963636 79.237069 
L 357.905455 56.653307 
L 353.847273 56.653307 
L 349.789091 56.653307 
L 345.730909 54.144 
L 341.672727 56.653307 
L 337.614545 56.653307 
L 333.556364 56.653307 
L 329.498182 56.653307 
L 325.44 56.653307 
L 321.381818 56.653307 
L 317.323636 59.162614 
L 313.265455 56.653307 
L 309.207273 59.162614 
L 305.149091 56.653307 
L 301.090909 56.653307 
L 297.032727 56.653307 
L 292.974545 56.653307 
L 288.916364 56.653307 
L 284.858182 56.653307 
L 280.8 56.653307 
L 276.741818 56.653307 
L 272.683636 56.653307 
L 268.625455 56.653307 
L 264.567273 56.653307 
L 260.509091 56.653307 
L 256.450909 56.653307 
L 252.392727 56.653307 
L 248.334545 56.653307 
L 244.276364 56.653307 
L 240.218182 56.653307 
L 236.16 56.653307 
L 232.101818 56.653307 
L 228.043636 56.653307 
L 223.985455 56.653307 
L 219.927273 56.653307 
L 215.869091 56.653307 
L 211.810909 59.162614 
L 207.752727 56.653307 
L 203.694545 59.162614 
L 199.636364 56.653307 
L 195.578182 56.653307 
L 191.52 56.653307 
L 187.461818 54.144 
L 183.403636 56.653307 
L 179.345455 56.653307 
L 175.287273 56.653307 
L 171.229091 56.653307 
L 167.170909 56.653307 
L 163.112727 54.144 
L 159.054545 56.653307 
L 154.996364 56.653307 
L 150.938182 56.653307 
L 146.88 56.653307 
L 142.821818 56.653307 
L 138.763636 56.653307 
L 134.705455 56.653307 
L 130.647273 56.653307 
L 126.589091 56.653307 
L 122.530909 56.653307 
L 118.472727 56.653307 
L 114.414545 56.653307 
L 110.356364 56.653307 
L 106.298182 56.653307 
L 102.24 56.653307 
L 98.181818 56.653307 
L 94.123636 56.653307 
L 90.065455 56.653307 
L 86.007273 56.653307 
L 81.949091 56.653307 
L 77.890909 56.653307 
L 73.832727 56.653307 
z
" style="fill:#9467bd;"/>
   </g>
   <g id="PolyCollection_6">
    <path clip-path="url(#pb76c559721)" d="M 73.832727 56.653307 
L 73.832727 56.653307 
L 77.890909 56.653307 
L 81.949091 56.653307 
L 86.007273 56.653307 
L 90.065455 56.653307 
L 94.123636 56.653307 
L 98.181818 56.653307 
L 102.24 56.653307 
L 106.298182 56.653307 
L 110.356364 56.653307 
L 114.414545 56.653307 
L 118.472727 56.653307 
L 122.530909 56.653307 
L 126.589091 56.653307 
L 130.647273 56.653307 
L 134.705455 56.653307 
L 138.763636 56.653307 
L 142.821818 56.653307 
L 146.88 56.653307 
L 150.938182 56.653307 
L 154.996364 56.653307 
L 159.054545 56.653307 
L 163.112727 54.144 
L 167.170909 56.653307 
L 171.229091 56.653307 
L 175.287273 56.653307 
L 179.345455 56.653307 
L 183.403636 56.653307 
L 187.461818 54.144 
L 191.52 56.653307 
L 195.578182 56.653307 
L 199.636364 56.653307 
L 203.694545 59.162614 
L 207.752727 56.653307 
L 211.810909 59.162614 
L 215.869091 56.653307 
L 219.927273 56.653307 
L 223.985455 56.653307 
L 228.043636 56.653307 
L 232.101818 56.653307 
L 236.16 56.653307 
L 240.218182 56.653307 
L 244.276364 56.653307 
L 248.334545 56.653307 
L 252.392727 56.653307 
L 256.450909 56.653307 
L 260.509091 56.653307 
L 264.567273 56.653307 
L 268.625455 56.653307 
L 272.683636 56.653307 
L 276.741818 56.653307 
L 280.8 56.653307 
L 284.858182 56.653307 
L 288.916364 56.653307 
L 292.974545 56.653307 
L 297.032727 56.653307 
L 301.090909 56.653307 
L 305.149091 56.653307 
L 309.207273 59.162614 
L 313.265455 56.653307 
L 317.323636 59.162614 
L 321.381818 56.653307 
L 325.44 56.653307 
L 329.498182 56.653307 
L 333.556364 56.653307 
L 337.614545 56.653307 
L 341.672727 56.653307 
L 345.730909 54.144 
L 349.789091 56.653307 
L 353.847273 56.653307 
L 357.905455 56.653307 
L 361.963636 79.237069 
L 366.021818 114.367366 
L 370.08 149.497663 
L 374.138182 207.211723 
L 378.196364 247.360634 
L 382.254545 307.584 
L 386.312727 307.584 
L 390.370909 307.584 
L 394.429091 307.584 
L 398.487273 307.584 
L 398.487273 174.590733 
L 398.487273 174.590733 
L 394.429091 149.497663 
L 390.370909 177.10004 
L 386.312727 141.969743 
L 382.254545 154.516277 
L 378.196364 134.441822 
L 374.138182 89.274297 
L 370.08 54.144 
L 366.021818 56.653307 
L 361.963636 56.653307 
L 357.905455 56.653307 
L 353.847273 56.653307 
L 349.789091 56.653307 
L 345.730909 54.144 
L 341.672727 56.653307 
L 337.614545 56.653307 
L 333.556364 56.653307 
L 329.498182 56.653307 
L 325.44 56.653307 
L 321.381818 56.653307 
L 317.323636 59.162614 
L 313.265455 56.653307 
L 309.207273 59.162614 
L 305.149091 56.653307 
L 301.090909 56.653307 
L 297.032727 56.653307 
L 292.974545 56.653307 
L 288.916364 56.653307 
L 284.858182 56.653307 
L 280.8 56.653307 
L 276.741818 56.653307 
L 272.683636 56.653307 
L 268.625455 56.653307 
L 264.567273 56.653307 
L 260.509091 56.653307 
L 256.450909 56.653307 
L 252.392727 56.653307 
L 248.334545 56.653307 
L 244.276364 56.653307 
L 240.218182 56.653307 
L 236.16 56.653307 
L 232.101818 56.653307 
L 228.043636 56.653307 
L 223.985455 56.653307 
L 219.927273 56.653307 
L 215.869091 56.653307 
L 211.810909 59.162614 
L 207.752727 56.653307 
L 203.694545 59.162614 
L 199.636364 56.653307 
L 195.578182 56.653307 
L 191.52 56.653307 
L 187.461818 54.144 
L 183.403636 56.653307 
L 179.345455 56.653307 
L 175.287273 56.653307 
L 171.229091 56.653307 
L 167.170909 56.653307 
L 163.112727 54.144 
L 159.054545 56.653307 
L 154.996364 56.653307 
L 150.938182 56.653307 
L 146.88 56.653307 
L 142.821818 56.653307 
L 138.763636 56.653307 
L 134.705455 56.653307 
L 130.647273 56.653307 
L 126.589091 56.653307 
L 122.530909 56.653307 
L 118.472727 56.653307 
L 114.414545 56.653307 
L 110.356364 56.653307 
L 106.298182 56.653307 
L 102.24 56.653307 
L 98.181818 56.653307 
L 94.123636 56.653307 
L 90.065455 56.653307 
L 86.007273 56.653307 
L 81.949091 56.653307 
L 77.890909 56.653307 
L 73.832727 56.653307 
z
" style="fill:#8c564b;"/>
   </g>
   <g id="PolyCollection_7">
    <path clip-path="url(#pb76c559721)" d="M 73.832727 56.653307 
L 73.832727 56.653307 
L 77.890909 56.653307 
L 81.949091 56.653307 
L 86.007273 56.653307 
L 90.065455 56.653307 
L 94.123636 56.653307 
L 98.181818 56.653307 
L 102.24 56.653307 
L 106.298182 56.653307 
L 110.356364 56.653307 
L 114.414545 56.653307 
L 118.472727 56.653307 
L 122.530909 56.653307 
L 126.589091 56.653307 
L 130.647273 56.653307 
L 134.705455 56.653307 
L 138.763636 56.653307 
L 142.821818 56.653307 
L 146.88 56.653307 
L 150.938182 56.653307 
L 154.996364 56.653307 
L 159.054545 56.653307 
L 163.112727 54.144 
L 167.170909 56.653307 
L 171.229091 56.653307 
L 175.287273 56.653307 
L 179.345455 56.653307 
L 183.403636 56.653307 
L 187.461818 54.144 
L 191.52 56.653307 
L 195.578182 56.653307 
L 199.636364 56.653307 
L 203.694545 59.162614 
L 207.752727 56.653307 
L 211.810909 59.162614 
L 215.869091 56.653307 
L 219.927273 56.653307 
L 223.985455 56.653307 
L 228.043636 56.653307 
L 232.101818 56.653307 
L 236.16 56.653307 
L 240.218182 56.653307 
L 244.276364 56.653307 
L 248.334545 56.653307 
L 252.392727 56.653307 
L 256.450909 56.653307 
L 260.509091 56.653307 
L 264.567273 56.653307 
L 268.625455 56.653307 
L 272.683636 56.653307 
L 276.741818 56.653307 
L 280.8 56.653307 
L 284.858182 56.653307 
L 288.916364 56.653307 
L 292.974545 56.653307 
L 297.032727 56.653307 
L 301.090909 56.653307 
L 305.149091 56.653307 
L 309.207273 59.162614 
L 313.265455 56.653307 
L 317.323636 59.162614 
L 321.381818 56.653307 
L 325.44 56.653307 
L 329.498182 56.653307 
L 333.556364 56.653307 
L 337.614545 56.653307 
L 341.672727 56.653307 
L 345.730909 54.144 
L 349.789091 56.653307 
L 353.847273 56.653307 
L 357.905455 56.653307 
L 361.963636 56.653307 
L 366.021818 56.653307 
L 370.08 54.144 
L 374.138182 89.274297 
L 378.196364 134.441822 
L 382.254545 154.516277 
L 386.312727 141.969743 
L 390.370909 177.10004 
L 394.429091 149.497663 
L 398.487273 174.590733 
L 398.487273 56.653307 
L 398.487273 56.653307 
L 394.429091 56.653307 
L 390.370909 56.653307 
L 386.312727 56.653307 
L 382.254545 56.653307 
L 378.196364 56.653307 
L 374.138182 54.144 
L 370.08 54.144 
L 366.021818 56.653307 
L 361.963636 56.653307 
L 357.905455 56.653307 
L 353.847273 56.653307 
L 349.789091 56.653307 
L 345.730909 54.144 
L 341.672727 56.653307 
L 337.614545 56.653307 
L 333.556364 56.653307 
L 329.498182 56.653307 
L 325.44 56.653307 
L 321.381818 56.653307 
L 317.323636 59.162614 
L 313.265455 56.653307 
L 309.207273 59.162614 
L 305.149091 56.653307 
L 301.090909 56.653307 
L 297.032727 56.653307 
L 292.974545 56.653307 
L 288.916364 56.653307 
L 284.858182 56.653307 
L 280.8 56.653307 
L 276.741818 56.653307 
L 272.683636 56.653307 
L 268.625455 56.653307 
L 264.567273 56.653307 
L 260.509091 56.653307 
L 256.450909 56.653307 
L 252.392727 56.653307 
L 248.334545 56.653307 
L 244.276364 56.653307 
L 240.218182 56.653307 
L 236.16 56.653307 
L 232.101818 56.653307 
L 228.043636 56.653307 
L 223.985455 56.653307 
L 219.927273 56.653307 
L 215.869091 56.653307 
L 211.810909 59.162614 
L 207.752727 56.653307 
L 203.694545 59.162614 
L 199.636364 56.653307 
L 195.578182 56.653307 
L 191.52 56.653307 
L 187.461818 54.144 
L 183.403636 56.653307 
L 179.345455 56.653307 
L 175.287273 56.653307 
L 171.229091 56.653307 
L 167.170909 56.653307 
L 163.112727 54.144 
L 159.054545 56.653307 
L 154.996364 56.653307 
L 150.938182 56.653307 
L 146.88 56.653307 
L 142.821818 56.653307 
L 138.763636 56.653307 
L 134.705455 56.653307 
L 130.647273 56.653307 
L 126.589091 56.653307 
L 122.530909 56.653307 
L 118.472727 56.653307 
L 114.414545 56.653307 
L 110.356364 56.653307 
L 106.298182 56.653307 
L 102.24 56.653307 
L 98.181818 56.653307 
L 94.123636 56.653307 
L 90.065455 56.653307 
L 86.007273 56.653307 
L 81.949091 56.653307 
L 77.890909 56.653307 
L 73.832727 56.653307 
z
" style="fill:#e377c2;"/>
   </g>
   <g id="matplotlib.axis_1">
    <g id="xtick_1">
     <g id="line2d_1">
      <defs>
       <path d="M 0 0 
L 0 3.5 
" id="m8a8de47fd0" style="stroke:#000000;stroke-width:0.8;"/>
      </defs>
      <g>
       <use style="stroke:#000000;stroke-width:0.8;" x="73.832727" xlink:href="#m8a8de47fd0" y="307.584"/>
      </g>
     </g>
     <g id="text_1">
      <!-- 0 -->
      <g transform="translate(70.651477 322.182437)scale(0.1 -0.1)">
       <defs>
        <path d="M 2034 4250 
Q 1547 4250 1301 3770 
Q 1056 3291 1056 2328 
Q 1056 1369 1301 889 
Q 1547 409 2034 409 
Q 2525 409 2770 889 
Q 3016 1369 3016 2328 
Q 3016 3291 2770 3770 
Q 2525 4250 2034 4250 
z
M 2034 4750 
Q 2819 4750 3233 4129 
Q 3647 3509 3647 2328 
Q 3647 1150 3233 529 
Q 2819 -91 2034 -91 
Q 1250 -91 836 529 
Q 422 1150 422 2328 
Q 422 3509 836 4129 
Q 1250 4750 2034 4750 
z
" id="DejaVuSans-30" transform="scale(0.015625)"/>
       </defs>
       <use xlink:href="#DejaVuSans-30"/>
      </g>
     </g>
    </g>
    <g id="xtick_2">
     <g id="line2d_2">
      <g>
       <use style="stroke:#000000;stroke-width:0.8;" x="114.414545" xlink:href="#m8a8de47fd0" y="307.584"/>
      </g>
     </g>
     <g id="text_2">
      <!-- 10 -->
      <g transform="translate(108.052045 322.182437)scale(0.1 -0.1)">
       <defs>
        <path d="M 794 531 
L 1825 531 
L 1825 4091 
L 703 3866 
L 703 4441 
L 1819 4666 
L 2450 4666 
L 2450 531 
L 3481 531 
L 3481 0 
L 794 0 
L 794 531 
z
" id="DejaVuSans-31" transform="scale(0.015625)"/>
       </defs>
       <use xlink:href="#DejaVuSans-31"/>
       <use x="63.623047" xlink:href="#DejaVuSans-30"/>
      </g>
     </g>
    </g>
    <g id="xtick_3">
     <g id="line2d_3">
      <g>
       <use style="stroke:#000000;stroke-width:0.8;" x="154.996364" xlink:href="#m8a8de47fd0" y="307.584"/>
      </g>
     </g>
     <g id="text_3">
      <!-- 20 -->
      <g transform="translate(148.633864 322.182437)scale(0.1 -0.1)">
       <defs>
        <path d="M 1228 531 
L 3431 531 
L 3431 0 
L 469 0 
L 469 531 
Q 828 903 1448 1529 
Q 2069 2156 2228 2338 
Q 2531 2678 2651 2914 
Q 2772 3150 2772 3378 
Q 2772 3750 2511 3984 
Q 2250 4219 1831 4219 
Q 1534 4219 1204 4116 
Q 875 4013 500 3803 
L 500 4441 
Q 881 4594 1212 4672 
Q 1544 4750 1819 4750 
Q 2544 4750 2975 4387 
Q 3406 4025 3406 3419 
Q 3406 3131 3298 2873 
Q 3191 2616 2906 2266 
Q 2828 2175 2409 1742 
Q 1991 1309 1228 531 
z
" id="DejaVuSans-32" transform="scale(0.015625)"/>
       </defs>
       <use xlink:href="#DejaVuSans-32"/>
       <use x="63.623047" xlink:href="#DejaVuSans-30"/>
      </g>
     </g>
    </g>
    <g id="xtick_4">
     <g id="line2d_4">
      <g>
       <use style="stroke:#000000;stroke-width:0.8;" x="195.578182" xlink:href="#m8a8de47fd0" y="307.584"/>
      </g>
     </g>
     <g id="text_4">
      <!-- 30 -->
      <g transform="translate(189.215682 322.182437)scale(0.1 -0.1)">
       <defs>
        <path d="M 2597 2516 
Q 3050 2419 3304 2112 
Q 3559 1806 3559 1356 
Q 3559 666 3084 287 
Q 2609 -91 1734 -91 
Q 1441 -91 1130 -33 
Q 819 25 488 141 
L 488 750 
Q 750 597 1062 519 
Q 1375 441 1716 441 
Q 2309 441 2620 675 
Q 2931 909 2931 1356 
Q 2931 1769 2642 2001 
Q 2353 2234 1838 2234 
L 1294 2234 
L 1294 2753 
L 1863 2753 
Q 2328 2753 2575 2939 
Q 2822 3125 2822 3475 
Q 2822 3834 2567 4026 
Q 2313 4219 1838 4219 
Q 1578 4219 1281 4162 
Q 984 4106 628 3988 
L 628 4550 
Q 988 4650 1302 4700 
Q 1616 4750 1894 4750 
Q 2613 4750 3031 4423 
Q 3450 4097 3450 3541 
Q 3450 3153 3228 2886 
Q 3006 2619 2597 2516 
z
" id="DejaVuSans-33" transform="scale(0.015625)"/>
       </defs>
       <use xlink:href="#DejaVuSans-33"/>
       <use x="63.623047" xlink:href="#DejaVuSans-30"/>
      </g>
     </g>
    </g>
    <g id="xtick_5">
     <g id="line2d_5">
      <g>
       <use style="stroke:#000000;stroke-width:0.8;" x="236.16" xlink:href="#m8a8de47fd0" y="307.584"/>
      </g>
     </g>
     <g id="text_5">
      <!-- 40 -->
      <g transform="translate(229.7975 322.182437)scale(0.1 -0.1)">
       <defs>
        <path d="M 2419 4116 
L 825 1625 
L 2419 1625 
L 2419 4116 
z
M 2253 4666 
L 3047 4666 
L 3047 1625 
L 3713 1625 
L 3713 1100 
L 3047 1100 
L 3047 0 
L 2419 0 
L 2419 1100 
L 313 1100 
L 313 1709 
L 2253 4666 
z
" id="DejaVuSans-34" transform="scale(0.015625)"/>
       </defs>
       <use xlink:href="#DejaVuSans-34"/>
       <use x="63.623047" xlink:href="#DejaVuSans-30"/>
      </g>
     </g>
    </g>
    <g id="xtick_6">
     <g id="line2d_6">
      <g>
       <use style="stroke:#000000;stroke-width:0.8;" x="276.741818" xlink:href="#m8a8de47fd0" y="307.584"/>
      </g>
     </g>
     <g id="text_6">
      <!-- 50 -->
      <g transform="translate(270.379318 322.182437)scale(0.1 -0.1)">
       <defs>
        <path d="M 691 4666 
L 3169 4666 
L 3169 4134 
L 1269 4134 
L 1269 2991 
Q 1406 3038 1543 3061 
Q 1681 3084 1819 3084 
Q 2600 3084 3056 2656 
Q 3513 2228 3513 1497 
Q 3513 744 3044 326 
Q 2575 -91 1722 -91 
Q 1428 -91 1123 -41 
Q 819 9 494 109 
L 494 744 
Q 775 591 1075 516 
Q 1375 441 1709 441 
Q 2250 441 2565 725 
Q 2881 1009 2881 1497 
Q 2881 1984 2565 2268 
Q 2250 2553 1709 2553 
Q 1456 2553 1204 2497 
Q 953 2441 691 2322 
L 691 4666 
z
" id="DejaVuSans-35" transform="scale(0.015625)"/>
       </defs>
       <use xlink:href="#DejaVuSans-35"/>
       <use x="63.623047" xlink:href="#DejaVuSans-30"/>
      </g>
     </g>
    </g>
    <g id="xtick_7">
     <g id="line2d_7">
      <g>
       <use style="stroke:#000000;stroke-width:0.8;" x="317.323636" xlink:href="#m8a8de47fd0" y="307.584"/>
      </g>
     </g>
     <g id="text_7">
      <!-- 60 -->
      <g transform="translate(310.961136 322.182437)scale(0.1 -0.1)">
       <defs>
        <path d="M 2113 2584 
Q 1688 2584 1439 2293 
Q 1191 2003 1191 1497 
Q 1191 994 1439 701 
Q 1688 409 2113 409 
Q 2538 409 2786 701 
Q 3034 994 3034 1497 
Q 3034 2003 2786 2293 
Q 2538 2584 2113 2584 
z
M 3366 4563 
L 3366 3988 
Q 3128 4100 2886 4159 
Q 2644 4219 2406 4219 
Q 1781 4219 1451 3797 
Q 1122 3375 1075 2522 
Q 1259 2794 1537 2939 
Q 1816 3084 2150 3084 
Q 2853 3084 3261 2657 
Q 3669 2231 3669 1497 
Q 3669 778 3244 343 
Q 2819 -91 2113 -91 
Q 1303 -91 875 529 
Q 447 1150 447 2328 
Q 447 3434 972 4092 
Q 1497 4750 2381 4750 
Q 2619 4750 2861 4703 
Q 3103 4656 3366 4563 
z
" id="DejaVuSans-36" transform="scale(0.015625)"/>
       </defs>
       <use xlink:href="#DejaVuSans-36"/>
       <use x="63.623047" xlink:href="#DejaVuSans-30"/>
      </g>
     </g>
    </g>
    <g id="xtick_8">
     <g id="line2d_8">
      <g>
       <use style="stroke:#000000;stroke-width:0.8;" x="357.905455" xlink:href="#m8a8de47fd0" y="307.584"/>
      </g>
     </g>
     <g id="text_8">
      <!-- 70 -->
      <g transform="translate(351.542955 322.182437)scale(0.1 -0.1)">
       <defs>
        <path d="M 525 4666 
L 3525 4666 
L 3525 4397 
L 1831 0 
L 1172 0 
L 2766 4134 
L 525 4134 
L 525 4666 
z
" id="DejaVuSans-37" transform="scale(0.015625)"/>
       </defs>
       <use xlink:href="#DejaVuSans-37"/>
       <use x="63.623047" xlink:href="#DejaVuSans-30"/>
      </g>
     </g>
    </g>
    <g id="xtick_9">
     <g id="line2d_9">
      <g>
       <use style="stroke:#000000;stroke-width:0.8;" x="398.487273" xlink:href="#m8a8de47fd0" y="307.584"/>
      </g>
     </g>
     <g id="text_9">
      <!-- 80 -->
      <g transform="translate(392.124773 322.182437)scale(0.1 -0.1)">
       <defs>
        <path d="M 2034 2216 
Q 1584 2216 1326 1975 
Q 1069 1734 1069 1313 
Q 1069 891 1326 650 
Q 1584 409 2034 409 
Q 2484 409 2743 651 
Q 3003 894 3003 1313 
Q 3003 1734 2745 1975 
Q 2488 2216 2034 2216 
z
M 1403 2484 
Q 997 2584 770 2862 
Q 544 3141 544 3541 
Q 544 4100 942 4425 
Q 1341 4750 2034 4750 
Q 2731 4750 3128 4425 
Q 3525 4100 3525 3541 
Q 3525 3141 3298 2862 
Q 3072 2584 2669 2484 
Q 3125 2378 3379 2068 
Q 3634 1759 3634 1313 
Q 3634 634 3220 271 
Q 2806 -91 2034 -91 
Q 1263 -91 848 271 
Q 434 634 434 1313 
Q 434 1759 690 2068 
Q 947 2378 1403 2484 
z
M 1172 3481 
Q 1172 3119 1398 2916 
Q 1625 2713 2034 2713 
Q 2441 2713 2670 2916 
Q 2900 3119 2900 3481 
Q 2900 3844 2670 4047 
Q 2441 4250 2034 4250 
Q 1625 4250 1398 4047 
Q 1172 3844 1172 3481 
z
" id="DejaVuSans-38" transform="scale(0.015625)"/>
       </defs>
       <use xlink:href="#DejaVuSans-38"/>
       <use x="63.623047" xlink:href="#DejaVuSans-30"/>
      </g>
     </g>
    </g>
    <g id="text_10">
     <!-- Generations -->
     <g transform="translate(205.662344 335.860562)scale(0.1 -0.1)">
      <defs>
       <path d="M 3809 666 
L 3809 1919 
L 2778 1919 
L 2778 2438 
L 4434 2438 
L 4434 434 
Q 4069 175 3628 42 
Q 3188 -91 2688 -91 
Q 1594 -91 976 548 
Q 359 1188 359 2328 
Q 359 3472 976 4111 
Q 1594 4750 2688 4750 
Q 3144 4750 3555 4637 
Q 3966 4525 4313 4306 
L 4313 3634 
Q 3963 3931 3569 4081 
Q 3175 4231 2741 4231 
Q 1884 4231 1454 3753 
Q 1025 3275 1025 2328 
Q 1025 1384 1454 906 
Q 1884 428 2741 428 
Q 3075 428 3337 486 
Q 3600 544 3809 666 
z
" id="DejaVuSans-47" transform="scale(0.015625)"/>
       <path d="M 3597 1894 
L 3597 1613 
L 953 1613 
Q 991 1019 1311 708 
Q 1631 397 2203 397 
Q 2534 397 2845 478 
Q 3156 559 3463 722 
L 3463 178 
Q 3153 47 2828 -22 
Q 2503 -91 2169 -91 
Q 1331 -91 842 396 
Q 353 884 353 1716 
Q 353 2575 817 3079 
Q 1281 3584 2069 3584 
Q 2775 3584 3186 3129 
Q 3597 2675 3597 1894 
z
M 3022 2063 
Q 3016 2534 2758 2815 
Q 2500 3097 2075 3097 
Q 1594 3097 1305 2825 
Q 1016 2553 972 2059 
L 3022 2063 
z
" id="DejaVuSans-65" transform="scale(0.015625)"/>
       <path d="M 3513 2113 
L 3513 0 
L 2938 0 
L 2938 2094 
Q 2938 2591 2744 2837 
Q 2550 3084 2163 3084 
Q 1697 3084 1428 2787 
Q 1159 2491 1159 1978 
L 1159 0 
L 581 0 
L 581 3500 
L 1159 3500 
L 1159 2956 
Q 1366 3272 1645 3428 
Q 1925 3584 2291 3584 
Q 2894 3584 3203 3211 
Q 3513 2838 3513 2113 
z
" id="DejaVuSans-6e" transform="scale(0.015625)"/>
       <path d="M 2631 2963 
Q 2534 3019 2420 3045 
Q 2306 3072 2169 3072 
Q 1681 3072 1420 2755 
Q 1159 2438 1159 1844 
L 1159 0 
L 581 0 
L 581 3500 
L 1159 3500 
L 1159 2956 
Q 1341 3275 1631 3429 
Q 1922 3584 2338 3584 
Q 2397 3584 2469 3576 
Q 2541 3569 2628 3553 
L 2631 2963 
z
" id="DejaVuSans-72" transform="scale(0.015625)"/>
       <path d="M 2194 1759 
Q 1497 1759 1228 1600 
Q 959 1441 959 1056 
Q 959 750 1161 570 
Q 1363 391 1709 391 
Q 2188 391 2477 730 
Q 2766 1069 2766 1631 
L 2766 1759 
L 2194 1759 
z
M 3341 1997 
L 3341 0 
L 2766 0 
L 2766 531 
Q 2569 213 2275 61 
Q 1981 -91 1556 -91 
Q 1019 -91 701 211 
Q 384 513 384 1019 
Q 384 1609 779 1909 
Q 1175 2209 1959 2209 
L 2766 2209 
L 2766 2266 
Q 2766 2663 2505 2880 
Q 2244 3097 1772 3097 
Q 1472 3097 1187 3025 
Q 903 2953 641 2809 
L 641 3341 
Q 956 3463 1253 3523 
Q 1550 3584 1831 3584 
Q 2591 3584 2966 3190 
Q 3341 2797 3341 1997 
z
" id="DejaVuSans-61" transform="scale(0.015625)"/>
       <path d="M 1172 4494 
L 1172 3500 
L 2356 3500 
L 2356 3053 
L 1172 3053 
L 1172 1153 
Q 1172 725 1289 603 
Q 1406 481 1766 481 
L 2356 481 
L 2356 0 
L 1766 0 
Q 1100 0 847 248 
Q 594 497 594 1153 
L 594 3053 
L 172 3053 
L 172 3500 
L 594 3500 
L 594 4494 
L 1172 4494 
z
" id="DejaVuSans-74" transform="scale(0.015625)"/>
       <path d="M 603 3500 
L 1178 3500 
L 1178 0 
L 603 0 
L 603 3500 
z
M 603 4863 
L 1178 4863 
L 1178 4134 
L 603 4134 
L 603 4863 
z
" id="DejaVuSans-69" transform="scale(0.015625)"/>
       <path d="M 1959 3097 
Q 1497 3097 1228 2736 
Q 959 2375 959 1747 
Q 959 1119 1226 758 
Q 1494 397 1959 397 
Q 2419 397 2687 759 
Q 2956 1122 2956 1747 
Q 2956 2369 2687 2733 
Q 2419 3097 1959 3097 
z
M 1959 3584 
Q 2709 3584 3137 3096 
Q 3566 2609 3566 1747 
Q 3566 888 3137 398 
Q 2709 -91 1959 -91 
Q 1206 -91 779 398 
Q 353 888 353 1747 
Q 353 2609 779 3096 
Q 1206 3584 1959 3584 
z
" id="DejaVuSans-6f" transform="scale(0.015625)"/>
       <path d="M 2834 3397 
L 2834 2853 
Q 2591 2978 2328 3040 
Q 2066 3103 1784 3103 
Q 1356 3103 1142 2972 
Q 928 2841 928 2578 
Q 928 2378 1081 2264 
Q 1234 2150 1697 2047 
L 1894 2003 
Q 2506 1872 2764 1633 
Q 3022 1394 3022 966 
Q 3022 478 2636 193 
Q 2250 -91 1575 -91 
Q 1294 -91 989 -36 
Q 684 19 347 128 
L 347 722 
Q 666 556 975 473 
Q 1284 391 1588 391 
Q 1994 391 2212 530 
Q 2431 669 2431 922 
Q 2431 1156 2273 1281 
Q 2116 1406 1581 1522 
L 1381 1569 
Q 847 1681 609 1914 
Q 372 2147 372 2553 
Q 372 3047 722 3315 
Q 1072 3584 1716 3584 
Q 2034 3584 2315 3537 
Q 2597 3491 2834 3397 
z
" id="DejaVuSans-73" transform="scale(0.015625)"/>
      </defs>
      <use xlink:href="#DejaVuSans-47"/>
      <use x="77.490234" xlink:href="#DejaVuSans-65"/>
      <use x="139.013672" xlink:href="#DejaVuSans-6e"/>
      <use x="202.392578" xlink:href="#DejaVuSans-65"/>
      <use x="263.916016" xlink:href="#DejaVuSans-72"/>
      <use x="305.029297" xlink:href="#DejaVuSans-61"/>
      <use x="366.308594" xlink:href="#DejaVuSans-74"/>
      <use x="405.517578" xlink:href="#DejaVuSans-69"/>
      <use x="433.300781" xlink:href="#DejaVuSans-6f"/>
      <use x="494.482422" xlink:href="#DejaVuSans-6e"/>
      <use x="557.861328" xlink:href="#DejaVuSans-73"/>
     </g>
    </g>
   </g>
   <g id="matplotlib.axis_2">
    <g id="ytick_1">
     <g id="line2d_10">
      <defs>
       <path d="M 0 0 
L -3.5 0 
" id="mb00c92b837" style="stroke:#000000;stroke-width:0.8;"/>
      </defs>
      <g>
       <use style="stroke:#000000;stroke-width:0.8;" x="57.6" xlink:href="#mb00c92b837" y="307.584"/>
      </g>
     </g>
     <g id="text_11">
      <!-- 0 -->
      <g transform="translate(44.2375 311.383219)scale(0.1 -0.1)">
       <use xlink:href="#DejaVuSans-30"/>
      </g>
     </g>
    </g>
    <g id="ytick_2">
     <g id="line2d_11">
      <g>
       <use style="stroke:#000000;stroke-width:0.8;" x="57.6" xlink:href="#mb00c92b837" y="257.397861"/>
      </g>
     </g>
     <g id="text_12">
      <!-- 20 -->
      <g transform="translate(37.875 261.19708)scale(0.1 -0.1)">
       <use xlink:href="#DejaVuSans-32"/>
       <use x="63.623047" xlink:href="#DejaVuSans-30"/>
      </g>
     </g>
    </g>
    <g id="ytick_3">
     <g id="line2d_12">
      <g>
       <use style="stroke:#000000;stroke-width:0.8;" x="57.6" xlink:href="#mb00c92b837" y="207.211723"/>
      </g>
     </g>
     <g id="text_13">
      <!-- 40 -->
      <g transform="translate(37.875 211.010942)scale(0.1 -0.1)">
       <use xlink:href="#DejaVuSans-34"/>
       <use x="63.623047" xlink:href="#DejaVuSans-30"/>
      </g>
     </g>
    </g>
    <g id="ytick_4">
     <g id="line2d_13">
      <g>
       <use style="stroke:#000000;stroke-width:0.8;" x="57.6" xlink:href="#mb00c92b837" y="157.025584"/>
      </g>
     </g>
     <g id="text_14">
      <!-- 60 -->
      <g transform="translate(37.875 160.824803)scale(0.1 -0.1)">
       <use xlink:href="#DejaVuSans-36"/>
       <use x="63.623047" xlink:href="#DejaVuSans-30"/>
      </g>
     </g>
    </g>
    <g id="ytick_5">
     <g id="line2d_14">
      <g>
       <use style="stroke:#000000;stroke-width:0.8;" x="57.6" xlink:href="#mb00c92b837" y="106.839446"/>
      </g>
     </g>
     <g id="text_15">
      <!-- 80 -->
      <g transform="translate(37.875 110.638664)scale(0.1 -0.1)">
       <use xlink:href="#DejaVuSans-38"/>
       <use x="63.623047" xlink:href="#DejaVuSans-30"/>
      </g>
     </g>
    </g>
    <g id="ytick_6">
     <g id="line2d_15">
      <g>
       <use style="stroke:#000000;stroke-width:0.8;" x="57.6" xlink:href="#mb00c92b837" y="56.653307"/>
      </g>
     </g>
     <g id="text_16">
      <!-- 100 -->
      <g transform="translate(31.5125 60.452526)scale(0.1 -0.1)">
       <use xlink:href="#DejaVuSans-31"/>
       <use x="63.623047" xlink:href="#DejaVuSans-30"/>
       <use x="127.246094" xlink:href="#DejaVuSans-30"/>
      </g>
     </g>
    </g>
    <g id="text_17">
     <!-- Size per Species -->
     <g transform="translate(25.432812 215.520969)rotate(-90)scale(0.1 -0.1)">
      <defs>
       <path d="M 3425 4513 
L 3425 3897 
Q 3066 4069 2747 4153 
Q 2428 4238 2131 4238 
Q 1616 4238 1336 4038 
Q 1056 3838 1056 3469 
Q 1056 3159 1242 3001 
Q 1428 2844 1947 2747 
L 2328 2669 
Q 3034 2534 3370 2195 
Q 3706 1856 3706 1288 
Q 3706 609 3251 259 
Q 2797 -91 1919 -91 
Q 1588 -91 1214 -16 
Q 841 59 441 206 
L 441 856 
Q 825 641 1194 531 
Q 1563 422 1919 422 
Q 2459 422 2753 634 
Q 3047 847 3047 1241 
Q 3047 1584 2836 1778 
Q 2625 1972 2144 2069 
L 1759 2144 
Q 1053 2284 737 2584 
Q 422 2884 422 3419 
Q 422 4038 858 4394 
Q 1294 4750 2059 4750 
Q 2388 4750 2728 4690 
Q 3069 4631 3425 4513 
z
" id="DejaVuSans-53" transform="scale(0.015625)"/>
       <path d="M 353 3500 
L 3084 3500 
L 3084 2975 
L 922 459 
L 3084 459 
L 3084 0 
L 275 0 
L 275 525 
L 2438 3041 
L 353 3041 
L 353 3500 
z
" id="DejaVuSans-7a" transform="scale(0.015625)"/>
       <path id="DejaVuSans-20" transform="scale(0.015625)"/>
       <path d="M 1159 525 
L 1159 -1331 
L 581 -1331 
L 581 3500 
L 1159 3500 
L 1159 2969 
Q 1341 3281 1617 3432 
Q 1894 3584 2278 3584 
Q 2916 3584 3314 3078 
Q 3713 2572 3713 1747 
Q 3713 922 3314 415 
Q 2916 -91 2278 -91 
Q 1894 -91 1617 61 
Q 1341 213 1159 525 
z
M 3116 1747 
Q 3116 2381 2855 2742 
Q 2594 3103 2138 3103 
Q 1681 3103 1420 2742 
Q 1159 2381 1159 1747 
Q 1159 1113 1420 752 
Q 1681 391 2138 391 
Q 2594 391 2855 752 
Q 3116 1113 3116 1747 
z
" id="DejaVuSans-70" transform="scale(0.015625)"/>
       <path d="M 3122 3366 
L 3122 2828 
Q 2878 2963 2633 3030 
Q 2388 3097 2138 3097 
Q 1578 3097 1268 2742 
Q 959 2388 959 1747 
Q 959 1106 1268 751 
Q 1578 397 2138 397 
Q 2388 397 2633 464 
Q 2878 531 3122 666 
L 3122 134 
Q 2881 22 2623 -34 
Q 2366 -91 2075 -91 
Q 1284 -91 818 406 
Q 353 903 353 1747 
Q 353 2603 823 3093 
Q 1294 3584 2113 3584 
Q 2378 3584 2631 3529 
Q 2884 3475 3122 3366 
z
" id="DejaVuSans-63" transform="scale(0.015625)"/>
      </defs>
      <use xlink:href="#DejaVuSans-53"/>
      <use x="63.476562" xlink:href="#DejaVuSans-69"/>
      <use x="91.259766" xlink:href="#DejaVuSans-7a"/>
      <use x="143.75" xlink:href="#DejaVuSans-65"/>
      <use x="205.273438" xlink:href="#DejaVuSans-20"/>
      <use x="237.060547" xlink:href="#DejaVuSans-70"/>
      <use x="300.537109" xlink:href="#DejaVuSans-65"/>
      <use x="362.060547" xlink:href="#DejaVuSans-72"/>
      <use x="403.173828" xlink:href="#DejaVuSans-20"/>
      <use x="434.960938" xlink:href="#DejaVuSans-53"/>
      <use x="498.4375" xlink:href="#DejaVuSans-70"/>
      <use x="561.914062" xlink:href="#DejaVuSans-65"/>
      <use x="623.4375" xlink:href="#DejaVuSans-63"/>
      <use x="678.417969" xlink:href="#DejaVuSans-69"/>
      <use x="706.201172" xlink:href="#DejaVuSans-65"/>
      <use x="767.724609" xlink:href="#DejaVuSans-73"/>
     </g>
    </g>
   </g>
   <g id="patch_3">
    <path d="M 57.6 307.584 
L 57.6 41.472 
" style="fill:none;stroke:#000000;stroke-linecap:square;stroke-linejoin:miter;stroke-width:0.8;"/>
   </g>
   <g id="patch_4">
    <path d="M 414.72 307.584 
L 414.72 41.472 
" style="fill:none;stroke:#000000;stroke-linecap:square;stroke-linejoin:miter;stroke-width:0.8;"/>
   </g>
   <g id="patch_5">
    <path d="M 57.6 307.584 
L 414.72 307.584 
" style="fill:none;stroke:#000000;stroke-linecap:square;stroke-linejoin:miter;stroke-width:0.8;"/>
   </g>
   <g id="patch_6">
    <path d="M 57.6 41.472 
L 414.72 41.472 
" style="fill:none;stroke:#000000;stroke-linecap:square;stroke-linejoin:miter;stroke-width:0.8;"/>
   </g>
   <g id="text_18">
    <!-- Speciation -->
    <g transform="translate(204.714375 35.472)scale(0.12 -0.12)">
     <use xlink:href="#DejaVuSans-53"/>
     <use x="63.476562" xlink:href="#DejaVuSans-70"/>
     <use x="126.953125" xlink:href="#DejaVuSans-65"/>
     <use x="188.476562" xlink:href="#DejaVuSans-63"/>
     <use x="243.457031" xlink:href="#DejaVuSans-69"/>
     <use x="271.240234" xlink:href="#DejaVuSans-61"/>
     <use x="332.519531" xlink:href="#DejaVuSans-74"/>
     <use x="371.728516" xlink:href="#DejaVuSans-69"/>
     <use x="399.511719" xlink:href="#DejaVuSans-6f"/>
     <use x="460.693359" xlink:href="#DejaVuSans-6e"/>
    </g>
   </g>
  </g>
 </g>
 <defs>
  <clipPath id="pb76c559721">
   <rect height="266.112" width="357.12" x="57.6" y="41.472"/>
  </clipPath>
 </defs>
</svg>
