<?xml version="1.0" encoding="utf-8" standalone="no"?>
<!DOCTYPE svg PUBLIC "-//W3C//DTD SVG 1.1//EN"
  "http://www.w3.org/Graphics/SVG/1.1/DTD/svg11.dtd">
<svg height="345.6pt" version="1.1" viewBox="0 0 460.8 345.6" width="460.8pt" xmlns="http://www.w3.org/2000/svg" xmlns:xlink="http://www.w3.org/1999/xlink">
 <metadata>
  <rdf:RDF xmlns:cc="http://creativecommons.org/ns#" xmlns:dc="http://purl.org/dc/elements/1.1/" xmlns:rdf="http://www.w3.org/1999/02/22-rdf-syntax-ns#">
   <cc:Work>
    <dc:type rdf:resource="http://purl.org/dc/dcmitype/StillImage"/>
    <dc:date>2021-09-04T22:34:51.062610</dc:date>
    <dc:format>image/svg+xml</dc:format>
    <dc:creator>
     <cc:Agent>
      <dc:title>Matplotlib v3.4.2, https://matplotlib.org/</dc:title>
     </cc:Agent>
    </dc:creator>
   </cc:Work>
  </rdf:RDF>
 </metadata>
 <defs>
  <style type="text/css">*{stroke-linecap:butt;stroke-linejoin:round;}</style>
 </defs>
 <g id="figure_1">
  <g id="patch_1">
   <path d="M 0 345.6 
L 460.8 345.6 
L 460.8 0 
L 0 0 
z
" style="fill:#ffffff;"/>
  </g>
  <g id="axes_1">
   <g id="patch_2">
    <path d="M 57.6 307.584 
L 414.72 307.584 
L 414.72 41.472 
L 57.6 41.472 
z
" style="fill:#ffffff;"/>
   </g>
   <g id="matplotlib.axis_1">
    <g id="xtick_1">
     <g id="line2d_1">
      <path clip-path="url(#p7fc35d20d5)" d="M 73.832727 307.584 
L 73.832727 41.472 
" style="fill:none;stroke:#b0b0b0;stroke-linecap:square;stroke-width:0.8;"/>
     </g>
     <g id="line2d_2">
      <defs>
       <path d="M 0 0 
L 0 3.5 
" id="m8bcfbef7aa" style="stroke:#000000;stroke-width:0.8;"/>
      </defs>
      <g>
       <use style="stroke:#000000;stroke-width:0.8;" x="73.832727" xlink:href="#m8bcfbef7aa" y="307.584"/>
      </g>
     </g>
     <g id="text_1">
      <!-- 0 -->
      <g transform="translate(70.651477 322.182437)scale(0.1 -0.1)">
       <defs>
        <path d="M 2034 4250 
Q 1547 4250 1301 3770 
Q 1056 3291 1056 2328 
Q 1056 1369 1301 889 
Q 1547 409 2034 409 
Q 2525 409 2770 889 
Q 3016 1369 3016 2328 
Q 3016 3291 2770 3770 
Q 2525 4250 2034 4250 
z
M 2034 4750 
Q 2819 4750 3233 4129 
Q 3647 3509 3647 2328 
Q 3647 1150 3233 529 
Q 2819 -91 2034 -91 
Q 1250 -91 836 529 
Q 422 1150 422 2328 
Q 422 3509 836 4129 
Q 1250 4750 2034 4750 
z
" id="DejaVuSans-30" transform="scale(0.015625)"/>
       </defs>
       <use xlink:href="#DejaVuSans-30"/>
      </g>
     </g>
    </g>
    <g id="xtick_2">
     <g id="line2d_3">
      <path clip-path="url(#p7fc35d20d5)" d="M 138.893758 307.584 
L 138.893758 41.472 
" style="fill:none;stroke:#b0b0b0;stroke-linecap:square;stroke-width:0.8;"/>
     </g>
     <g id="line2d_4">
      <g>
       <use style="stroke:#000000;stroke-width:0.8;" x="138.893758" xlink:href="#m8bcfbef7aa" y="307.584"/>
      </g>
     </g>
     <g id="text_2">
      <!-- 100 -->
      <g transform="translate(129.350008 322.182437)scale(0.1 -0.1)">
       <defs>
        <path d="M 794 531 
L 1825 531 
L 1825 4091 
L 703 3866 
L 703 4441 
L 1819 4666 
L 2450 4666 
L 2450 531 
L 3481 531 
L 3481 0 
L 794 0 
L 794 531 
z
" id="DejaVuSans-31" transform="scale(0.015625)"/>
       </defs>
       <use xlink:href="#DejaVuSans-31"/>
       <use x="63.623047" xlink:href="#DejaVuSans-30"/>
       <use x="127.246094" xlink:href="#DejaVuSans-30"/>
      </g>
     </g>
    </g>
    <g id="xtick_3">
     <g id="line2d_5">
      <path clip-path="url(#p7fc35d20d5)" d="M 203.95479 307.584 
L 203.95479 41.472 
" style="fill:none;stroke:#b0b0b0;stroke-linecap:square;stroke-width:0.8;"/>
     </g>
     <g id="line2d_6">
      <g>
       <use style="stroke:#000000;stroke-width:0.8;" x="203.95479" xlink:href="#m8bcfbef7aa" y="307.584"/>
      </g>
     </g>
     <g id="text_3">
      <!-- 200 -->
      <g transform="translate(194.41104 322.182437)scale(0.1 -0.1)">
       <defs>
        <path d="M 1228 531 
L 3431 531 
L 3431 0 
L 469 0 
L 469 531 
Q 828 903 1448 1529 
Q 2069 2156 2228 2338 
Q 2531 2678 2651 2914 
Q 2772 3150 2772 3378 
Q 2772 3750 2511 3984 
Q 2250 4219 1831 4219 
Q 1534 4219 1204 4116 
Q 875 4013 500 3803 
L 500 4441 
Q 881 4594 1212 4672 
Q 1544 4750 1819 4750 
Q 2544 4750 2975 4387 
Q 3406 4025 3406 3419 
Q 3406 3131 3298 2873 
Q 3191 2616 2906 2266 
Q 2828 2175 2409 1742 
Q 1991 1309 1228 531 
z
" id="DejaVuSans-32" transform="scale(0.015625)"/>
       </defs>
       <use xlink:href="#DejaVuSans-32"/>
       <use x="63.623047" xlink:href="#DejaVuSans-30"/>
       <use x="127.246094" xlink:href="#DejaVuSans-30"/>
      </g>
     </g>
    </g>
    <g id="xtick_4">
     <g id="line2d_7">
      <path clip-path="url(#p7fc35d20d5)" d="M 269.015821 307.584 
L 269.015821 41.472 
" style="fill:none;stroke:#b0b0b0;stroke-linecap:square;stroke-width:0.8;"/>
     </g>
     <g id="line2d_8">
      <g>
       <use style="stroke:#000000;stroke-width:0.8;" x="269.015821" xlink:href="#m8bcfbef7aa" y="307.584"/>
      </g>
     </g>
     <g id="text_4">
      <!-- 300 -->
      <g transform="translate(259.472071 322.182437)scale(0.1 -0.1)">
       <defs>
        <path d="M 2597 2516 
Q 3050 2419 3304 2112 
Q 3559 1806 3559 1356 
Q 3559 666 3084 287 
Q 2609 -91 1734 -91 
Q 1441 -91 1130 -33 
Q 819 25 488 141 
L 488 750 
Q 750 597 1062 519 
Q 1375 441 1716 441 
Q 2309 441 2620 675 
Q 2931 909 2931 1356 
Q 2931 1769 2642 2001 
Q 2353 2234 1838 2234 
L 1294 2234 
L 1294 2753 
L 1863 2753 
Q 2328 2753 2575 2939 
Q 2822 3125 2822 3475 
Q 2822 3834 2567 4026 
Q 2313 4219 1838 4219 
Q 1578 4219 1281 4162 
Q 984 4106 628 3988 
L 628 4550 
Q 988 4650 1302 4700 
Q 1616 4750 1894 4750 
Q 2613 4750 3031 4423 
Q 3450 4097 3450 3541 
Q 3450 3153 3228 2886 
Q 3006 2619 2597 2516 
z
" id="DejaVuSans-33" transform="scale(0.015625)"/>
       </defs>
       <use xlink:href="#DejaVuSans-33"/>
       <use x="63.623047" xlink:href="#DejaVuSans-30"/>
       <use x="127.246094" xlink:href="#DejaVuSans-30"/>
      </g>
     </g>
    </g>
    <g id="xtick_5">
     <g id="line2d_9">
      <path clip-path="url(#p7fc35d20d5)" d="M 334.076852 307.584 
L 334.076852 41.472 
" style="fill:none;stroke:#b0b0b0;stroke-linecap:square;stroke-width:0.8;"/>
     </g>
     <g id="line2d_10">
      <g>
       <use style="stroke:#000000;stroke-width:0.8;" x="334.076852" xlink:href="#m8bcfbef7aa" y="307.584"/>
      </g>
     </g>
     <g id="text_5">
      <!-- 400 -->
      <g transform="translate(324.533102 322.182437)scale(0.1 -0.1)">
       <defs>
        <path d="M 2419 4116 
L 825 1625 
L 2419 1625 
L 2419 4116 
z
M 2253 4666 
L 3047 4666 
L 3047 1625 
L 3713 1625 
L 3713 1100 
L 3047 1100 
L 3047 0 
L 2419 0 
L 2419 1100 
L 313 1100 
L 313 1709 
L 2253 4666 
z
" id="DejaVuSans-34" transform="scale(0.015625)"/>
       </defs>
       <use xlink:href="#DejaVuSans-34"/>
       <use x="63.623047" xlink:href="#DejaVuSans-30"/>
       <use x="127.246094" xlink:href="#DejaVuSans-30"/>
      </g>
     </g>
    </g>
    <g id="xtick_6">
     <g id="line2d_11">
      <path clip-path="url(#p7fc35d20d5)" d="M 399.137883 307.584 
L 399.137883 41.472 
" style="fill:none;stroke:#b0b0b0;stroke-linecap:square;stroke-width:0.8;"/>
     </g>
     <g id="line2d_12">
      <g>
       <use style="stroke:#000000;stroke-width:0.8;" x="399.137883" xlink:href="#m8bcfbef7aa" y="307.584"/>
      </g>
     </g>
     <g id="text_6">
      <!-- 500 -->
      <g transform="translate(389.594133 322.182437)scale(0.1 -0.1)">
       <defs>
        <path d="M 691 4666 
L 3169 4666 
L 3169 4134 
L 1269 4134 
L 1269 2991 
Q 1406 3038 1543 3061 
Q 1681 3084 1819 3084 
Q 2600 3084 3056 2656 
Q 3513 2228 3513 1497 
Q 3513 744 3044 326 
Q 2575 -91 1722 -91 
Q 1428 -91 1123 -41 
Q 819 9 494 109 
L 494 744 
Q 775 591 1075 516 
Q 1375 441 1709 441 
Q 2250 441 2565 725 
Q 2881 1009 2881 1497 
Q 2881 1984 2565 2268 
Q 2250 2553 1709 2553 
Q 1456 2553 1204 2497 
Q 953 2441 691 2322 
L 691 4666 
z
" id="DejaVuSans-35" transform="scale(0.015625)"/>
       </defs>
       <use xlink:href="#DejaVuSans-35"/>
       <use x="63.623047" xlink:href="#DejaVuSans-30"/>
       <use x="127.246094" xlink:href="#DejaVuSans-30"/>
      </g>
     </g>
    </g>
    <g id="text_7">
     <!-- Generations -->
     <g transform="translate(205.662344 335.860562)scale(0.1 -0.1)">
      <defs>
       <path d="M 3809 666 
L 3809 1919 
L 2778 1919 
L 2778 2438 
L 4434 2438 
L 4434 434 
Q 4069 175 3628 42 
Q 3188 -91 2688 -91 
Q 1594 -91 976 548 
Q 359 1188 359 2328 
Q 359 3472 976 4111 
Q 1594 4750 2688 4750 
Q 3144 4750 3555 4637 
Q 3966 4525 4313 4306 
L 4313 3634 
Q 3963 3931 3569 4081 
Q 3175 4231 2741 4231 
Q 1884 4231 1454 3753 
Q 1025 3275 1025 2328 
Q 1025 1384 1454 906 
Q 1884 428 2741 428 
Q 3075 428 3337 486 
Q 3600 544 3809 666 
z
" id="DejaVuSans-47" transform="scale(0.015625)"/>
       <path d="M 3597 1894 
L 3597 1613 
L 953 1613 
Q 991 1019 1311 708 
Q 1631 397 2203 397 
Q 2534 397 2845 478 
Q 3156 559 3463 722 
L 3463 178 
Q 3153 47 2828 -22 
Q 2503 -91 2169 -91 
Q 1331 -91 842 396 
Q 353 884 353 1716 
Q 353 2575 817 3079 
Q 1281 3584 2069 3584 
Q 2775 3584 3186 3129 
Q 3597 2675 3597 1894 
z
M 3022 2063 
Q 3016 2534 2758 2815 
Q 2500 3097 2075 3097 
Q 1594 3097 1305 2825 
Q 1016 2553 972 2059 
L 3022 2063 
z
" id="DejaVuSans-65" transform="scale(0.015625)"/>
       <path d="M 3513 2113 
L 3513 0 
L 2938 0 
L 2938 2094 
Q 2938 2591 2744 2837 
Q 2550 3084 2163 3084 
Q 1697 3084 1428 2787 
Q 1159 2491 1159 1978 
L 1159 0 
L 581 0 
L 581 3500 
L 1159 3500 
L 1159 2956 
Q 1366 3272 1645 3428 
Q 1925 3584 2291 3584 
Q 2894 3584 3203 3211 
Q 3513 2838 3513 2113 
z
" id="DejaVuSans-6e" transform="scale(0.015625)"/>
       <path d="M 2631 2963 
Q 2534 3019 2420 3045 
Q 2306 3072 2169 3072 
Q 1681 3072 1420 2755 
Q 1159 2438 1159 1844 
L 1159 0 
L 581 0 
L 581 3500 
L 1159 3500 
L 1159 2956 
Q 1341 3275 1631 3429 
Q 1922 3584 2338 3584 
Q 2397 3584 2469 3576 
Q 2541 3569 2628 3553 
L 2631 2963 
z
" id="DejaVuSans-72" transform="scale(0.015625)"/>
       <path d="M 2194 1759 
Q 1497 1759 1228 1600 
Q 959 1441 959 1056 
Q 959 750 1161 570 
Q 1363 391 1709 391 
Q 2188 391 2477 730 
Q 2766 1069 2766 1631 
L 2766 1759 
L 2194 1759 
z
M 3341 1997 
L 3341 0 
L 2766 0 
L 2766 531 
Q 2569 213 2275 61 
Q 1981 -91 1556 -91 
Q 1019 -91 701 211 
Q 384 513 384 1019 
Q 384 1609 779 1909 
Q 1175 2209 1959 2209 
L 2766 2209 
L 2766 2266 
Q 2766 2663 2505 2880 
Q 2244 3097 1772 3097 
Q 1472 3097 1187 3025 
Q 903 2953 641 2809 
L 641 3341 
Q 956 3463 1253 3523 
Q 1550 3584 1831 3584 
Q 2591 3584 2966 3190 
Q 3341 2797 3341 1997 
z
" id="DejaVuSans-61" transform="scale(0.015625)"/>
       <path d="M 1172 4494 
L 1172 3500 
L 2356 3500 
L 2356 3053 
L 1172 3053 
L 1172 1153 
Q 1172 725 1289 603 
Q 1406 481 1766 481 
L 2356 481 
L 2356 0 
L 1766 0 
Q 1100 0 847 248 
Q 594 497 594 1153 
L 594 3053 
L 172 3053 
L 172 3500 
L 594 3500 
L 594 4494 
L 1172 4494 
z
" id="DejaVuSans-74" transform="scale(0.015625)"/>
       <path d="M 603 3500 
L 1178 3500 
L 1178 0 
L 603 0 
L 603 3500 
z
M 603 4863 
L 1178 4863 
L 1178 4134 
L 603 4134 
L 603 4863 
z
" id="DejaVuSans-69" transform="scale(0.015625)"/>
       <path d="M 1959 3097 
Q 1497 3097 1228 2736 
Q 959 2375 959 1747 
Q 959 1119 1226 758 
Q 1494 397 1959 397 
Q 2419 397 2687 759 
Q 2956 1122 2956 1747 
Q 2956 2369 2687 2733 
Q 2419 3097 1959 3097 
z
M 1959 3584 
Q 2709 3584 3137 3096 
Q 3566 2609 3566 1747 
Q 3566 888 3137 398 
Q 2709 -91 1959 -91 
Q 1206 -91 779 398 
Q 353 888 353 1747 
Q 353 2609 779 3096 
Q 1206 3584 1959 3584 
z
" id="DejaVuSans-6f" transform="scale(0.015625)"/>
       <path d="M 2834 3397 
L 2834 2853 
Q 2591 2978 2328 3040 
Q 2066 3103 1784 3103 
Q 1356 3103 1142 2972 
Q 928 2841 928 2578 
Q 928 2378 1081 2264 
Q 1234 2150 1697 2047 
L 1894 2003 
Q 2506 1872 2764 1633 
Q 3022 1394 3022 966 
Q 3022 478 2636 193 
Q 2250 -91 1575 -91 
Q 1294 -91 989 -36 
Q 684 19 347 128 
L 347 722 
Q 666 556 975 473 
Q 1284 391 1588 391 
Q 1994 391 2212 530 
Q 2431 669 2431 922 
Q 2431 1156 2273 1281 
Q 2116 1406 1581 1522 
L 1381 1569 
Q 847 1681 609 1914 
Q 372 2147 372 2553 
Q 372 3047 722 3315 
Q 1072 3584 1716 3584 
Q 2034 3584 2315 3537 
Q 2597 3491 2834 3397 
z
" id="DejaVuSans-73" transform="scale(0.015625)"/>
      </defs>
      <use xlink:href="#DejaVuSans-47"/>
      <use x="77.490234" xlink:href="#DejaVuSans-65"/>
      <use x="139.013672" xlink:href="#DejaVuSans-6e"/>
      <use x="202.392578" xlink:href="#DejaVuSans-65"/>
      <use x="263.916016" xlink:href="#DejaVuSans-72"/>
      <use x="305.029297" xlink:href="#DejaVuSans-61"/>
      <use x="366.308594" xlink:href="#DejaVuSans-74"/>
      <use x="405.517578" xlink:href="#DejaVuSans-69"/>
      <use x="433.300781" xlink:href="#DejaVuSans-6f"/>
      <use x="494.482422" xlink:href="#DejaVuSans-6e"/>
      <use x="557.861328" xlink:href="#DejaVuSans-73"/>
     </g>
    </g>
   </g>
   <g id="matplotlib.axis_2">
    <g id="ytick_1">
     <g id="line2d_13">
      <path clip-path="url(#p7fc35d20d5)" d="M 57.6 273.414355 
L 414.72 273.414355 
" style="fill:none;stroke:#b0b0b0;stroke-linecap:square;stroke-width:0.8;"/>
     </g>
     <g id="line2d_14">
      <defs>
       <path d="M 0 0 
L -3.5 0 
" id="m563215182c" style="stroke:#000000;stroke-width:0.8;"/>
      </defs>
      <g>
       <use style="stroke:#000000;stroke-width:0.8;" x="57.6" xlink:href="#m563215182c" y="273.414355"/>
      </g>
     </g>
     <g id="text_8">
      <!-- 0 -->
      <g transform="translate(44.2375 277.213574)scale(0.1 -0.1)">
       <use xlink:href="#DejaVuSans-30"/>
      </g>
     </g>
    </g>
    <g id="ytick_2">
     <g id="line2d_15">
      <path clip-path="url(#p7fc35d20d5)" d="M 57.6 222.990879 
L 414.72 222.990879 
" style="fill:none;stroke:#b0b0b0;stroke-linecap:square;stroke-width:0.8;"/>
     </g>
     <g id="line2d_16">
      <g>
       <use style="stroke:#000000;stroke-width:0.8;" x="57.6" xlink:href="#m563215182c" y="222.990879"/>
      </g>
     </g>
     <g id="text_9">
      <!-- 50 -->
      <g transform="translate(37.875 226.790098)scale(0.1 -0.1)">
       <use xlink:href="#DejaVuSans-35"/>
       <use x="63.623047" xlink:href="#DejaVuSans-30"/>
      </g>
     </g>
    </g>
    <g id="ytick_3">
     <g id="line2d_17">
      <path clip-path="url(#p7fc35d20d5)" d="M 57.6 172.567403 
L 414.72 172.567403 
" style="fill:none;stroke:#b0b0b0;stroke-linecap:square;stroke-width:0.8;"/>
     </g>
     <g id="line2d_18">
      <g>
       <use style="stroke:#000000;stroke-width:0.8;" x="57.6" xlink:href="#m563215182c" y="172.567403"/>
      </g>
     </g>
     <g id="text_10">
      <!-- 100 -->
      <g transform="translate(31.5125 176.366622)scale(0.1 -0.1)">
       <use xlink:href="#DejaVuSans-31"/>
       <use x="63.623047" xlink:href="#DejaVuSans-30"/>
       <use x="127.246094" xlink:href="#DejaVuSans-30"/>
      </g>
     </g>
    </g>
    <g id="ytick_4">
     <g id="line2d_19">
      <path clip-path="url(#p7fc35d20d5)" d="M 57.6 122.143927 
L 414.72 122.143927 
" style="fill:none;stroke:#b0b0b0;stroke-linecap:square;stroke-width:0.8;"/>
     </g>
     <g id="line2d_20">
      <g>
       <use style="stroke:#000000;stroke-width:0.8;" x="57.6" xlink:href="#m563215182c" y="122.143927"/>
      </g>
     </g>
     <g id="text_11">
      <!-- 150 -->
      <g transform="translate(31.5125 125.943146)scale(0.1 -0.1)">
       <use xlink:href="#DejaVuSans-31"/>
       <use x="63.623047" xlink:href="#DejaVuSans-35"/>
       <use x="127.246094" xlink:href="#DejaVuSans-30"/>
      </g>
     </g>
    </g>
    <g id="ytick_5">
     <g id="line2d_21">
      <path clip-path="url(#p7fc35d20d5)" d="M 57.6 71.720451 
L 414.72 71.720451 
" style="fill:none;stroke:#b0b0b0;stroke-linecap:square;stroke-width:0.8;"/>
     </g>
     <g id="line2d_22">
      <g>
       <use style="stroke:#000000;stroke-width:0.8;" x="57.6" xlink:href="#m563215182c" y="71.720451"/>
      </g>
     </g>
     <g id="text_12">
      <!-- 200 -->
      <g transform="translate(31.5125 75.51967)scale(0.1 -0.1)">
       <use xlink:href="#DejaVuSans-32"/>
       <use x="63.623047" xlink:href="#DejaVuSans-30"/>
       <use x="127.246094" xlink:href="#DejaVuSans-30"/>
      </g>
     </g>
    </g>
    <g id="text_13">
     <!-- Fitness -->
     <g transform="translate(25.432812 191.845187)rotate(-90)scale(0.1 -0.1)">
      <defs>
       <path d="M 628 4666 
L 3309 4666 
L 3309 4134 
L 1259 4134 
L 1259 2759 
L 3109 2759 
L 3109 2228 
L 1259 2228 
L 1259 0 
L 628 0 
L 628 4666 
z
" id="DejaVuSans-46" transform="scale(0.015625)"/>
      </defs>
      <use xlink:href="#DejaVuSans-46"/>
      <use x="50.269531" xlink:href="#DejaVuSans-69"/>
      <use x="78.052734" xlink:href="#DejaVuSans-74"/>
      <use x="117.261719" xlink:href="#DejaVuSans-6e"/>
      <use x="180.640625" xlink:href="#DejaVuSans-65"/>
      <use x="242.164062" xlink:href="#DejaVuSans-73"/>
      <use x="294.263672" xlink:href="#DejaVuSans-73"/>
     </g>
    </g>
   </g>
   <g id="line2d_23">
    <path clip-path="url(#p7fc35d20d5)" d="M 73.832727 265.738893 
L 74.483338 265.1681 
L 75.133948 265.15499 
L 75.784558 265.733851 
L 76.435169 261.783676 
L 77.085779 254.079977 
L 77.736389 248.277244 
L 78.386999 257.261699 
L 79.03761 255.354683 
L 79.68822 251.988871 
L 80.33883 250.659249 
L 80.989441 257.007564 
L 81.640051 242.475519 
L 82.290661 243.517727 
L 82.941272 265.487385 
L 83.591882 264.583756 
L 84.242492 265.475683 
L 84.893103 257.463393 
L 85.543713 240.910374 
L 86.194323 243.879308 
L 86.844934 248.53642 
L 87.495544 261.0959 
L 88.146154 253.9398 
L 88.796764 260.961773 
L 89.447375 252.842585 
L 90.097985 258.888319 
L 90.748595 268.373016 
L 92.049816 253.563641 
L 92.700426 227.565297 
L 93.351037 264.48176 
L 94.001647 249.148561 
L 94.652257 249.732638 
L 95.302868 251.612059 
L 95.953478 268.339736 
L 96.604088 257.103369 
L 97.254698 258.484972 
L 97.905309 246.682923 
L 98.555919 248.871232 
L 99.206529 260.03499 
L 99.85714 261.510381 
L 100.50775 265.863057 
L 101.15836 241.618319 
L 101.808971 243.320616 
L 102.459581 264.91094 
L 103.110191 264.337121 
L 103.760802 263.350838 
L 104.411412 251.042467 
L 105.062022 262.219335 
L 105.712633 246.537634 
L 106.363243 268.544456 
L 107.013853 264.209045 
L 107.664463 265.140871 
L 108.315074 246.032391 
L 108.965684 252.844602 
L 109.616294 268.635218 
L 110.266905 267.780036 
L 110.917515 264.813118 
L 111.568125 262.553138 
L 112.218736 267.431105 
L 112.869346 245.536224 
L 113.519956 234.515669 
L 114.170567 266.015214 
L 114.821177 267.499681 
L 115.471787 266.126146 
L 116.122398 257.140305 
L 116.773008 242.446273 
L 117.423618 257.78106 
L 118.074228 264.768746 
L 118.724839 239.218162 
L 119.375449 265.921426 
L 120.026059 264.458137 
L 120.67667 262.170928 
L 121.32728 235.668349 
L 121.97789 265.749987 
L 122.628501 268.907505 
L 123.279111 266.728202 
L 123.929721 260.182226 
L 124.580332 260.496869 
L 125.230942 246.425694 
L 125.881552 235.998119 
L 126.532163 267.621706 
L 127.182773 250.799426 
L 127.833383 256.932938 
L 128.483993 250.333513 
L 129.134604 228.898493 
L 129.785214 264.537806 
L 130.435824 231.858351 
L 131.086435 265.588631 
L 131.737045 263.515218 
L 132.387655 255.852867 
L 133.038266 259.209053 
L 133.688876 258.504286 
L 134.339486 251.779658 
L 134.990097 267.867773 
L 135.640707 261.324822 
L 136.291317 268.257042 
L 136.941927 265.842766 
L 137.592538 241.137339 
L 138.243148 245.586587 
L 138.893758 268.319567 
L 139.544369 265.465598 
L 140.194979 259.057783 
L 140.845589 268.676565 
L 141.4962 268.456719 
L 142.14681 264.99666 
L 142.79742 251.17861 
L 143.448031 258.717929 
L 144.098641 227.575381 
L 144.749251 258.414379 
L 145.399862 252.398859 
L 146.050472 263.17133 
L 146.701082 263.292346 
L 147.351692 224.314999 
L 148.002303 239.269594 
L 148.652913 260.50292 
L 149.954134 268.131992 
L 150.604744 261.410542 
L 151.255354 266.595084 
L 151.905965 255.86396 
L 152.556575 268.464786 
L 153.207185 257.825433 
L 153.857796 256.830074 
L 154.508406 252.903093 
L 155.159016 253.341778 
L 155.809627 258.572709 
L 156.460237 258.595904 
L 157.110847 225.479782 
L 157.761457 257.325232 
L 158.412068 262.385732 
L 159.062678 264.090046 
L 159.713288 233.752257 
L 160.363899 264.951279 
L 161.014509 243.23893 
L 161.665119 234.017485 
L 162.31573 265.304834 
L 162.96634 264.405361 
L 163.61695 265.148979 
L 164.267561 241.720908 
L 164.918171 252.000167 
L 165.568781 250.530165 
L 166.219392 246.536146 
L 167.520612 257.034214 
L 168.171222 264.524696 
L 168.821833 259.920024 
L 169.472443 259.745559 
L 170.123053 198.545578 
L 170.773664 256.718134 
L 171.424274 268.014001 
L 172.074884 259.983558 
L 172.725495 238.729054 
L 173.376105 260.524097 
L 174.026715 266.971243 
L 174.677326 265.180558 
L 175.327936 261.997258 
L 175.978546 232.792388 
L 176.629156 250.241966 
L 177.279767 243.26515 
L 177.930377 264.525705 
L 178.580987 246.905725 
L 179.231598 261.336924 
L 179.882208 258.530353 
L 180.532818 253.571709 
L 181.183429 256.284492 
L 181.834039 266.753414 
L 182.484649 247.648967 
L 183.13526 257.068072 
L 183.78587 254.834312 
L 184.43648 248.977122 
L 185.087091 252.756865 
L 185.737701 242.185079 
L 186.388311 265.196337 
L 187.038921 256.231043 
L 187.689532 255.828663 
L 188.340142 236.374278 
L 188.990752 249.853482 
L 189.641363 267.011582 
L 190.291973 265.442403 
L 191.593194 224.838395 
L 192.243804 264.58823 
L 192.894414 263.77742 
L 193.545025 223.173412 
L 194.195635 248.673572 
L 194.846245 211.885613 
L 195.496856 252.026733 
L 196.147466 267.983747 
L 196.798076 265.627962 
L 197.448686 259.903889 
L 198.099297 268.353855 
L 198.749907 257.008573 
L 199.400517 238.493072 
L 200.051128 264.730424 
L 200.701738 261.796786 
L 201.352348 242.322231 
L 202.002959 260.756045 
L 202.653569 262.891984 
L 203.304179 243.408353 
L 203.95479 264.019453 
L 205.25601 255.366784 
L 205.906621 247.35046 
L 206.557231 268.137034 
L 207.207841 259.264519 
L 207.858451 264.453095 
L 208.509062 268.042238 
L 209.159672 267.959543 
L 209.810282 260.742935 
L 210.460893 254.922049 
L 211.111503 241.52554 
L 211.762113 247.372647 
L 212.412724 250.163082 
L 213.063334 268.077534 
L 213.713944 267.712468 
L 214.364555 264.467213 
L 215.015165 266.213883 
L 215.665775 252.06203 
L 216.316385 245.825654 
L 216.966996 260.325429 
L 217.617606 241.506379 
L 218.268216 247.203224 
L 218.918827 264.905898 
L 219.569437 253.204626 
L 220.220047 260.595699 
L 220.870658 247.875873 
L 221.521268 254.095104 
L 222.171878 256.655608 
L 222.822489 258.326642 
L 223.473099 238.727037 
L 224.123709 236.01728 
L 224.77432 243.848046 
L 225.42493 267.995848 
L 226.07554 251.082358 
L 226.72615 248.195558 
L 227.376761 254.422857 
L 228.027371 255.418216 
L 228.677981 227.387806 
L 229.328592 238.855113 
L 229.979202 258.061415 
L 230.629812 259.722364 
L 231.280423 267.96156 
L 231.931033 241.550752 
L 232.581643 256.158433 
L 233.232254 201.397649 
L 233.882864 268.054489 
L 234.533474 257.818024 
L 235.184085 268.036869 
L 235.834695 258.271014 
L 236.485305 234.642267 
L 237.135915 247.074965 
L 238.437136 266.030561 
L 239.087746 254.136452 
L 239.738357 268.094933 
L 240.388967 261.307678 
L 241.039577 260.131803 
L 241.690188 268.190483 
L 242.340798 251.315762 
L 242.991408 238.566241 
L 243.642019 235.256894 
L 244.292629 259.959355 
L 244.943239 264.282663 
L 245.59385 265.529132 
L 246.89507 227.214349 
L 247.54568 259.609416 
L 248.196291 261.796786 
L 248.846901 245.329487 
L 249.497511 238.970078 
L 250.148122 251.837141 
L 250.798732 253.034194 
L 251.449342 264.248375 
L 252.099953 256.783684 
L 252.750563 261.303644 
L 253.401173 260.630995 
L 254.702394 248.985189 
L 255.353004 268.273177 
L 256.003615 266.035383 
L 256.654225 268.188466 
L 257.304835 264.468222 
L 258.606056 232.377713 
L 259.256666 259.35629 
L 259.907276 197.098424 
L 260.557887 265.199362 
L 261.208497 249.823227 
L 261.859107 245.846832 
L 262.509718 257.34641 
L 263.160328 260.793359 
L 263.810938 265.151964 
L 264.461549 263.946843 
L 265.112159 264.149545 
L 265.762769 242.904118 
L 266.413379 238.964028 
L 267.06399 236.879521 
L 267.7146 243.583827 
L 268.36521 268.248974 
L 269.015821 260.545275 
L 269.666431 264.681009 
L 270.317041 267.67818 
L 270.967652 262.38069 
L 271.618262 266.98637 
L 272.268872 256.098933 
L 272.919483 249.361348 
L 273.570093 249.283696 
L 274.220703 259.983558 
L 274.871314 259.492433 
L 275.521924 258.676721 
L 276.172534 261.335686 
L 277.473755 246.409558 
L 278.124365 242.190122 
L 278.774975 264.979883 
L 279.425586 250.900018 
L 280.076196 268.156195 
L 280.726806 267.079968 
L 281.377417 266.370046 
L 282.028027 245.219145 
L 282.678637 268.071463 
L 283.329248 261.810965 
L 283.979858 259.757661 
L 284.630468 250.744969 
L 285.281079 246.638481 
L 285.931689 238.083634 
L 286.582299 267.143691 
L 287.232909 256.590058 
L 287.88352 251.093899 
L 288.53413 255.079371 
L 289.18474 260.52914 
L 289.835351 234.35633 
L 290.485961 239.306907 
L 291.136571 243.089676 
L 291.787182 255.162065 
L 292.437792 243.882334 
L 293.088402 253.668522 
L 293.739013 256.138264 
L 294.389623 268.430499 
L 295.690844 266.781651 
L 296.341454 259.930109 
L 296.992064 240.731875 
L 297.642674 249.453119 
L 298.293285 246.134246 
L 298.943895 261.303644 
L 299.594505 266.427678 
L 300.245116 230.840806 
L 300.895726 264.58823 
L 301.546336 236.958182 
L 302.196947 256.304661 
L 302.847557 250.612859 
L 303.498167 240.503961 
L 304.148778 259.934143 
L 304.799388 241.159466 
L 305.449998 267.956518 
L 306.100608 267.846595 
L 306.751219 266.965192 
L 307.401829 268.637604 
L 308.052439 263.749346 
L 308.70305 262.571291 
L 309.35366 263.425464 
L 310.00427 263.622216 
L 310.654881 265.743936 
L 311.305491 259.215903 
L 311.956101 267.149742 
L 312.606712 237.957166 
L 313.257322 242.631831 
L 313.907932 260.468632 
L 314.558543 264.319977 
L 315.209153 253.395226 
L 315.859763 264.639662 
L 316.510373 268.152161 
L 317.160984 265.439378 
L 317.811594 255.858918 
L 318.462204 268.140359 
L 319.112815 266.242239 
L 319.763425 261.222967 
L 320.414035 258.304456 
L 321.064646 233.119947 
L 321.715256 261.39239 
L 322.365866 259.226197 
L 323.016477 260.789325 
L 323.667087 248.4507 
L 324.317697 268.263093 
L 324.968308 263.97508 
L 325.618918 252.562231 
L 326.269528 238.692749 
L 326.920138 261.041442 
L 327.570749 257.87384 
L 328.221359 239.018485 
L 328.871969 212.42111 
L 329.52258 262.443215 
L 330.17319 258.366981 
L 330.8238 259.025512 
L 331.474411 263.885326 
L 332.125021 262.652977 
L 332.775631 264.281655 
L 333.426242 246.014238 
L 334.076852 267.903069 
L 334.727462 260.043058 
L 336.028683 234.206068 
L 336.679293 264.496459 
L 337.329903 246.709074 
L 337.980514 245.391004 
L 338.631124 247.796204 
L 339.281734 251.013221 
L 339.932345 242.926304 
L 340.582955 264.338129 
L 341.233565 231.436811 
L 341.884176 264.703195 
L 342.534786 249.061833 
L 343.185396 260.309293 
L 343.836007 258.686666 
L 344.486617 250.582605 
L 345.137227 268.025094 
L 345.787837 258.653387 
L 346.438448 245.04409 
L 347.089058 219.531829 
L 347.739668 258.650361 
L 348.390279 234.987632 
L 349.040889 267.968619 
L 349.691499 266.594076 
L 350.34211 267.527918 
L 350.99272 265.286091 
L 351.64333 267.132888 
L 352.293941 258.75625 
L 352.944551 225.292206 
L 353.595161 257.968636 
L 354.245772 240.566486 
L 354.896382 264.647729 
L 355.546992 261.197755 
L 356.197602 267.801214 
L 356.848213 248.403302 
L 357.498823 239.600372 
L 358.149433 262.664669 
L 358.800044 263.718929 
L 359.450654 237.686012 
L 360.101264 224.540255 
L 360.751875 245.368716 
L 361.402485 260.788113 
L 362.053095 267.89222 
L 362.703706 262.356487 
L 363.354316 267.436881 
L 364.004926 228.763603 
L 364.655537 267.544859 
L 365.306147 249.686365 
L 365.956757 260.549309 
L 366.607367 247.556597 
L 367.257978 264.904502 
L 367.908588 231.836888 
L 368.559198 264.558159 
L 369.209809 253.960978 
L 369.860419 267.155793 
L 370.511029 258.580777 
L 371.16164 268.158212 
L 371.81225 258.801632 
L 372.46286 268.792539 
L 373.113471 266.124418 
L 373.764081 257.646934 
L 374.414691 260.202396 
L 375.065302 257.32019 
L 375.715912 255.110633 
L 376.366522 241.035424 
L 377.017132 261.164476 
L 377.667743 268.171322 
L 378.318353 265.273989 
L 378.968963 261.666693 
L 379.619574 267.971645 
L 380.270184 264.106181 
L 380.920794 265.506945 
L 381.571405 265.857893 
L 382.222015 257.242538 
L 382.872625 267.963577 
L 383.523236 266.563821 
L 384.173846 267.956518 
L 384.824456 263.083593 
L 385.475066 269.155588 
L 386.776287 258.866174 
L 387.426897 265.137846 
L 388.077508 267.50069 
L 388.728118 265.079354 
L 389.378728 263.5011 
L 390.029339 258.211677 
L 390.679949 266.681812 
L 391.330559 262.722561 
L 391.98117 265.904282 
L 392.63178 259.615466 
L 393.28239 266.963175 
L 393.933001 261.176577 
L 394.583611 259.472264 
L 395.234221 261.472059 
L 395.884831 265.19432 
L 396.535442 265.743936 
L 397.186052 265.83369 
L 397.836662 261.397432 
L 398.487273 261.811913 
L 398.487273 261.811913 
" style="fill:none;stroke:#0000ff;stroke-linecap:square;stroke-width:1.5;"/>
   </g>
   <g id="line2d_24">
    <path clip-path="url(#p7fc35d20d5)" d="M 73.832727 274.723422 
L 74.483338 272.30678 
L 75.133948 272.119894 
L 75.784558 281.362075 
L 76.435169 271.638472 
L 77.085779 268.213296 
L 77.736389 267.578316 
L 78.386999 271.21036 
L 79.03761 268.158153 
L 79.68822 273.485968 
L 80.33883 266.448909 
L 80.989441 266.030765 
L 81.640051 275.246689 
L 82.290661 264.713322 
L 82.941272 269.263322 
L 83.591882 268.392679 
L 84.242492 272.010816 
L 84.893103 268.747369 
L 85.543713 262.406193 
L 86.194323 272.455625 
L 86.844934 266.093824 
L 87.495544 267.285658 
L 88.146154 269.478047 
L 88.796764 267.275992 
L 89.447375 271.491074 
L 90.097985 268.809746 
L 90.748595 270.252804 
L 91.399206 281.884415 
L 92.049816 283.292086 
L 92.700426 265.498171 
L 93.351037 268.124117 
L 94.001647 266.002672 
L 94.652257 270.243741 
L 95.302868 264.783255 
L 96.604088 275.095837 
L 97.254698 272.635218 
L 97.905309 265.873394 
L 98.555919 264.756325 
L 99.206529 265.832489 
L 99.85714 267.541634 
L 100.50775 270.653993 
L 101.15836 268.993912 
L 101.808971 263.133683 
L 102.459581 268.462353 
L 103.110191 268.351551 
L 103.760802 271.480056 
L 104.411412 263.179503 
L 105.062022 268.999723 
L 105.712633 260.995827 
L 106.363243 270.504848 
L 107.013853 269.491387 
L 107.664463 268.717994 
L 108.315074 273.570617 
L 108.965684 265.550385 
L 109.616294 270.666622 
L 110.266905 269.583063 
L 110.917515 279.345625 
L 111.568125 271.364132 
L 112.218736 270.165306 
L 112.869346 270.560916 
L 113.519956 271.147097 
L 114.170567 270.786387 
L 114.821177 270.214183 
L 116.122398 276.993287 
L 116.773008 264.713292 
L 117.423618 273.338388 
L 118.074228 271.860644 
L 118.724839 266.991204 
L 119.375449 271.298971 
L 120.026059 271.045114 
L 120.67667 277.746873 
L 121.32728 270.269223 
L 121.97789 270.321258 
L 122.628501 271.866798 
L 123.279111 270.290099 
L 123.929721 272.09441 
L 124.580332 277.257536 
L 125.881552 260.079463 
L 126.532163 274.39223 
L 127.182773 275.472524 
L 127.833383 275.541724 
L 128.483993 271.809196 
L 129.134604 283.031898 
L 129.785214 268.467474 
L 130.435824 259.762381 
L 131.086435 269.655578 
L 131.737045 275.465014 
L 132.387655 268.551569 
L 133.038266 275.161639 
L 133.688876 275.580311 
L 134.339486 264.755988 
L 134.990097 273.359736 
L 135.640707 274.12175 
L 136.291317 270.264834 
L 136.941927 271.840111 
L 137.592538 279.003876 
L 138.243148 274.064087 
L 138.893758 270.223812 
L 140.194979 272.952908 
L 140.845589 270.775441 
L 141.4962 270.733883 
L 142.14681 270.221495 
L 142.79742 269.447728 
L 143.448031 268.311849 
L 144.098641 263.538876 
L 145.399862 272.542026 
L 146.050472 273.408475 
L 146.701082 270.947775 
L 147.351692 271.842189 
L 148.002303 260.276095 
L 148.652913 266.164494 
L 149.303523 267.66551 
L 149.954134 270.902578 
L 150.604744 272.893069 
L 151.255354 271.533018 
L 151.905965 274.14853 
L 152.556575 270.495779 
L 153.207185 275.924043 
L 153.857796 269.125641 
L 154.508406 266.109169 
L 155.159016 283.170512 
L 155.809627 268.331985 
L 156.460237 268.543675 
L 157.110847 255.679576 
L 157.761457 285.519286 
L 158.412068 269.291216 
L 159.713288 267.114061 
L 160.363899 269.27543 
L 161.014509 273.194405 
L 161.665119 269.727475 
L 162.31573 269.003778 
L 162.96634 268.063139 
L 163.61695 269.372673 
L 164.267561 269.638645 
L 164.918171 268.270547 
L 166.219392 272.781736 
L 166.870002 263.987825 
L 168.171222 268.42601 
L 168.821833 266.72751 
L 169.472443 277.957538 
L 170.123053 258.28628 
L 170.773664 265.693924 
L 171.424274 269.589498 
L 172.074884 272.7119 
L 172.725495 273.026979 
L 173.376105 267.339671 
L 174.026715 269.776344 
L 174.677326 268.90478 
L 175.327936 269.076021 
L 175.978546 272.294687 
L 176.629156 266.532541 
L 177.279767 262.157022 
L 177.930377 268.718998 
L 178.580987 268.269218 
L 179.231598 268.221723 
L 179.882208 283.571921 
L 180.532818 286.544819 
L 181.834039 269.64054 
L 182.484649 273.778844 
L 183.13526 266.732948 
L 183.78587 263.419701 
L 185.087091 265.319908 
L 185.737701 270.36497 
L 186.388311 269.900055 
L 187.038921 268.446393 
L 187.689532 265.353494 
L 188.340142 265.341719 
L 188.990752 264.690105 
L 189.641363 269.894694 
L 190.291973 270.748685 
L 190.942583 284.733866 
L 192.243804 268.174313 
L 192.894414 267.477124 
L 193.545025 257.382249 
L 194.195635 267.975589 
L 194.846245 262.378895 
L 195.496856 269.163261 
L 196.147466 269.720797 
L 196.798076 271.809761 
L 197.448686 272.018109 
L 198.099297 270.205509 
L 198.749907 275.40833 
L 199.400517 262.041089 
L 200.051128 268.881422 
L 200.701738 268.733414 
L 201.352348 262.866385 
L 202.002959 267.700227 
L 202.653569 270.469037 
L 203.304179 260.741432 
L 203.95479 268.047849 
L 204.6054 265.805025 
L 205.25601 264.577937 
L 205.906621 272.138167 
L 206.557231 269.79731 
L 207.207841 272.223895 
L 207.858451 268.045342 
L 208.509062 269.838381 
L 209.159672 269.907905 
L 209.810282 278.098853 
L 210.460893 269.616088 
L 211.111503 268.911819 
L 211.762113 275.656363 
L 212.412724 273.528797 
L 213.063334 269.791557 
L 213.713944 269.444068 
L 214.364555 272.358177 
L 215.015165 270.114796 
L 215.665775 271.991954 
L 216.316385 278.631282 
L 216.966996 266.796194 
L 217.617606 281.466645 
L 218.268216 264.717318 
L 218.918827 268.247103 
L 219.569437 265.870915 
L 220.220047 267.278891 
L 220.870658 276.585472 
L 221.521268 267.724735 
L 222.171878 266.567406 
L 222.822489 266.978981 
L 223.473099 277.169787 
L 224.123709 270.311255 
L 224.77432 273.228954 
L 225.42493 269.66491 
L 226.07554 272.83794 
L 226.72615 269.379397 
L 227.376761 263.330433 
L 228.027371 276.053604 
L 228.677981 260.658877 
L 229.328592 267.335252 
L 229.979202 267.556884 
L 230.629812 273.431875 
L 231.280423 269.731029 
L 231.931033 281.036688 
L 232.581643 270.377373 
L 233.232254 269.122341 
L 233.882864 269.724309 
L 234.533474 269.370692 
L 235.184085 269.853123 
L 235.834695 271.804603 
L 236.485305 280.154681 
L 237.135915 262.102294 
L 237.786526 266.078013 
L 238.437136 271.801148 
L 239.087746 272.14985 
L 239.738357 269.946616 
L 240.388967 276.521626 
L 241.039577 269.171328 
L 241.690188 269.920647 
L 242.340798 285.047117 
L 242.991408 263.011154 
L 243.642019 264.437289 
L 244.943239 267.954306 
L 245.59385 270.591884 
L 246.24446 265.493747 
L 246.89507 255.674454 
L 247.54568 268.832959 
L 248.196291 277.971901 
L 248.846901 263.962776 
L 249.497511 260.375724 
L 250.798732 271.569321 
L 251.449342 268.369671 
L 252.099953 268.150054 
L 252.750563 267.746669 
L 253.401173 267.621691 
L 254.051784 263.865442 
L 254.702394 264.44409 
L 255.353004 270.150935 
L 256.003615 268.94789 
L 256.654225 270.110196 
L 257.304835 271.60212 
L 257.955445 271.0482 
L 258.606056 259.99522 
L 259.256666 265.256604 
L 259.907276 253.628561 
L 260.557887 270.574465 
L 261.208497 265.562586 
L 261.859107 270.522598 
L 262.509718 266.955151 
L 263.160328 274.065181 
L 263.810938 269.412799 
L 264.461549 269.357868 
L 265.112159 270.7553 
L 265.762769 260.78691 
L 266.413379 259.501231 
L 267.06399 264.400546 
L 267.7146 261.5804 
L 268.36521 270.124596 
L 269.015821 269.806923 
L 269.666431 271.665794 
L 270.317041 269.588759 
L 270.967652 274.20065 
L 271.618262 269.98499 
L 272.268872 268.30536 
L 272.919483 265.131261 
L 273.570093 265.725115 
L 274.220703 275.124903 
L 275.521924 267.278937 
L 276.172534 267.697238 
L 276.823144 267.233737 
L 277.473755 280.358098 
L 278.124365 264.472857 
L 278.774975 268.934896 
L 279.425586 272.090764 
L 280.076196 270.145669 
L 280.726806 271.276436 
L 281.377417 269.8503 
L 282.028027 265.689437 
L 282.678637 270.061766 
L 283.329248 270.073847 
L 283.979858 269.300939 
L 284.630468 278.33016 
L 285.281079 271.491207 
L 285.931689 263.213999 
L 286.582299 269.591444 
L 287.232909 267.563189 
L 287.88352 267.458622 
L 288.53413 264.069012 
L 289.18474 266.821179 
L 289.835351 273.916207 
L 290.485961 275.11053 
L 291.136571 272.247778 
L 291.787182 264.263026 
L 292.437792 261.771916 
L 293.088402 271.919636 
L 293.739013 265.202859 
L 294.389623 270.335742 
L 295.040233 269.161542 
L 295.690844 269.280819 
L 296.341454 269.003816 
L 296.992064 270.26824 
L 297.642674 268.57887 
L 298.293285 261.573387 
L 298.943895 274.581164 
L 299.594505 269.262431 
L 300.245116 261.859947 
L 300.895726 268.70875 
L 301.546336 264.839008 
L 302.196947 265.593604 
L 302.847557 269.436561 
L 303.498167 262.021908 
L 304.148778 274.102282 
L 304.799388 289.940525 
L 305.449998 272.497303 
L 306.100608 269.809632 
L 306.751219 271.768311 
L 307.401829 271.044151 
L 308.052439 291.836171 
L 309.35366 271.776315 
L 310.00427 273.378179 
L 310.654881 269.691416 
L 311.305491 268.986107 
L 311.956101 270.346552 
L 312.606712 276.489541 
L 313.257322 269.647467 
L 313.907932 269.445808 
L 314.558543 268.17759 
L 315.209153 278.841211 
L 315.859763 268.556745 
L 317.160984 272.545385 
L 317.811594 284.417342 
L 318.462204 269.981849 
L 319.112815 268.858889 
L 319.763425 269.442122 
L 320.414035 274.376936 
L 321.064646 272.978848 
L 321.715256 267.760287 
L 322.365866 268.203646 
L 323.016477 269.660999 
L 323.667087 267.999254 
L 324.968308 272.588968 
L 325.618918 289.563239 
L 326.269528 289.664669 
L 326.920138 267.332849 
L 327.570749 267.443131 
L 328.871969 295.488 
L 329.52258 268.904905 
L 330.17319 274.77313 
L 330.8238 267.750549 
L 331.474411 271.734362 
L 332.125021 268.672877 
L 332.775631 268.009292 
L 333.426242 287.87821 
L 334.076852 270.319964 
L 334.727462 273.675634 
L 335.378073 278.248403 
L 336.028683 262.974182 
L 336.679293 268.235726 
L 337.329903 270.322786 
L 337.980514 270.71652 
L 338.631124 275.958828 
L 339.932345 269.814711 
L 340.582955 268.199211 
L 341.233565 261.423114 
L 341.884176 270.245591 
L 342.534786 264.19589 
L 343.185396 266.614372 
L 343.836007 268.278997 
L 344.486617 273.989115 
L 345.137227 269.915231 
L 345.787837 270.216277 
L 346.438448 268.515294 
L 347.089058 284.594428 
L 347.739668 271.564175 
L 348.390279 267.328418 
L 349.040889 269.980207 
L 349.691499 270.487516 
L 350.34211 269.382442 
L 350.99272 275.453934 
L 351.64333 270.808647 
L 352.293941 275.098015 
L 352.944551 270.234407 
L 353.595161 267.521666 
L 354.245772 264.019828 
L 354.896382 268.307661 
L 355.546992 273.931711 
L 356.197602 269.425771 
L 356.848213 292.682746 
L 357.498823 274.162888 
L 358.149433 268.856155 
L 358.800044 274.205383 
L 359.450654 277.957826 
L 360.101264 280.040455 
L 360.751875 269.862881 
L 361.402485 273.306854 
L 362.053095 269.558645 
L 362.703706 272.309763 
L 363.354316 269.853675 
L 364.004926 289.701041 
L 364.655537 270.745494 
L 365.306147 275.567582 
L 365.956757 267.367611 
L 366.607367 272.058399 
L 367.257978 268.85042 
L 367.908588 266.240075 
L 368.559198 268.483657 
L 369.209809 264.548827 
L 369.860419 270.36931 
L 370.511029 267.626373 
L 371.16164 269.798101 
L 371.81225 275.83089 
L 372.46286 271.238407 
L 373.113471 272.746241 
L 373.764081 290.43091 
L 374.414691 271.406338 
L 375.065302 271.346461 
L 375.715912 263.926681 
L 376.366522 283.163297 
L 377.017132 267.628418 
L 377.667743 269.911655 
L 378.318353 270.038003 
L 378.968963 268.063483 
L 379.619574 269.755608 
L 380.270184 272.827519 
L 380.920794 269.480804 
L 381.571405 270.000929 
L 382.222015 275.52135 
L 382.872625 270.597146 
L 383.523236 273.174587 
L 384.173846 273.32359 
L 384.824456 271.612805 
L 385.475066 273.686049 
L 386.125677 276.181696 
L 386.776287 277.43012 
L 387.426897 270.136158 
L 388.077508 273.605996 
L 388.728118 270.554543 
L 389.378728 269.477241 
L 390.029339 274.96814 
L 391.330559 268.263071 
L 391.98117 279.297224 
L 392.63178 274.096787 
L 393.28239 273.150848 
L 393.933001 269.85999 
L 394.583611 269.319434 
L 395.234221 272.108924 
L 395.884831 270.089699 
L 396.535442 275.007526 
L 397.186052 270.536685 
L 397.836662 272.196975 
L 398.487273 271.406401 
L 398.487273 271.406401 
" style="fill:none;stroke:#008000;stroke-dasharray:9.6,2.4,1.5,2.4;stroke-dashoffset:0;stroke-width:1.5;"/>
   </g>
   <g id="line2d_25">
    <path clip-path="url(#p7fc35d20d5)" d="M 73.832727 256.754365 
L 74.483338 258.02942 
L 75.133948 258.190085 
L 75.784558 250.105627 
L 76.435169 251.928879 
L 77.736389 228.976172 
L 78.386999 243.313037 
L 79.03761 242.551213 
L 79.68822 230.491774 
L 80.33883 234.869588 
L 80.989441 247.984363 
L 81.640051 209.704348 
L 82.290661 222.322132 
L 82.941272 261.711448 
L 83.591882 260.774834 
L 84.242492 258.94055 
L 84.893103 246.179416 
L 85.543713 219.414555 
L 86.194323 215.302991 
L 86.844934 230.979017 
L 87.495544 254.906141 
L 88.146154 238.401553 
L 88.796764 254.647554 
L 89.447375 234.194097 
L 90.097985 248.966892 
L 90.748595 266.493228 
L 91.399206 239.604206 
L 92.049816 223.835195 
L 92.700426 189.632423 
L 93.351037 260.839402 
L 94.001647 232.294451 
L 94.652257 229.221536 
L 95.302868 238.440863 
L 95.953478 266.441997 
L 96.604088 239.110901 
L 97.254698 244.334726 
L 97.905309 227.492453 
L 98.555919 232.98614 
L 99.206529 254.237491 
L 99.85714 255.479127 
L 100.50775 261.072122 
L 101.15836 214.242726 
L 101.808971 223.507549 
L 102.459581 261.359527 
L 103.110191 260.32269 
L 103.760802 255.221619 
L 104.411412 238.905431 
L 105.062022 255.438946 
L 105.712633 232.079441 
L 106.363243 266.584063 
L 107.013853 258.926704 
L 107.664463 261.563748 
L 108.315074 218.494164 
L 108.965684 240.138819 
L 109.616294 266.603814 
L 110.266905 265.977009 
L 110.917515 250.280612 
L 111.568125 253.742144 
L 112.218736 264.696904 
L 112.869346 220.511531 
L 113.519956 197.884241 
L 114.170567 261.244041 
L 114.821177 264.785179 
L 115.471787 258.661416 
L 116.122398 237.287323 
L 116.773008 220.179254 
L 117.423618 242.223732 
L 118.074228 257.676848 
L 118.724839 211.44512 
L 119.375449 260.543881 
L 120.026059 257.87116 
L 120.67667 246.594984 
L 121.32728 201.067476 
L 121.97789 261.178715 
L 122.628501 265.948211 
L 123.279111 263.166305 
L 123.929721 248.270043 
L 124.580332 243.736202 
L 125.230942 224.587758 
L 125.881552 211.916775 
L 126.532163 260.851182 
L 127.182773 226.126328 
L 127.833383 238.324151 
L 128.483993 228.85783 
L 129.134604 174.765089 
L 129.785214 260.608139 
L 130.435824 203.954322 
L 131.086435 261.521685 
L 132.387655 243.154165 
L 133.038266 243.256468 
L 133.688876 241.428261 
L 134.339486 238.803328 
L 134.990097 262.375809 
L 135.640707 248.527894 
L 136.291317 266.249249 
L 136.941927 259.845421 
L 137.592538 203.270803 
L 138.243148 217.109088 
L 138.893758 266.415322 
L 139.544369 259.273244 
L 140.194979 245.162657 
L 140.845589 266.577689 
L 141.4962 266.179554 
L 142.14681 259.771825 
L 142.79742 232.909493 
L 143.448031 249.124008 
L 144.098641 191.611887 
L 144.749251 248.395615 
L 145.399862 232.255691 
L 146.050472 252.934185 
L 146.701082 255.636918 
L 147.351692 176.78781 
L 148.652913 254.841345 
L 149.303523 260.597276 
L 149.954134 265.361405 
L 150.604744 249.928015 
L 151.255354 261.65715 
L 151.905965 237.57939 
L 152.556575 266.433794 
L 153.207185 239.726823 
L 153.857796 244.534507 
L 154.508406 239.697017 
L 155.159016 223.513043 
L 155.809627 248.813433 
L 156.460237 248.648132 
L 157.110847 195.279988 
L 157.761457 229.131179 
L 158.412068 255.480248 
L 159.062678 259.971231 
L 159.713288 200.390454 
L 160.363899 260.627127 
L 161.014509 213.283455 
L 161.665119 198.307494 
L 162.31573 261.60589 
L 162.96634 260.747582 
L 163.61695 260.925286 
L 164.267561 213.803171 
L 164.918171 235.729787 
L 165.568781 230.458674 
L 166.219392 220.290556 
L 166.870002 239.940591 
L 167.520612 247.905792 
L 168.171222 260.623382 
L 168.821833 253.112538 
L 169.472443 241.53358 
L 170.123053 138.804875 
L 170.773664 247.742343 
L 171.424274 266.438503 
L 172.074884 247.255215 
L 172.725495 204.43113 
L 173.376105 253.708524 
L 174.026715 264.166142 
L 174.677326 261.456336 
L 175.327936 254.918494 
L 175.978546 193.290089 
L 176.629156 233.951392 
L 177.279767 224.373278 
L 177.930377 260.332411 
L 178.580987 225.542232 
L 179.231598 254.452125 
L 179.882208 233.488786 
L 180.532818 220.598598 
L 181.183429 234.213169 
L 181.834039 263.866288 
L 182.484649 221.51909 
L 183.13526 247.403197 
L 183.78587 246.248924 
L 184.43648 233.66097 
L 185.087091 240.193822 
L 185.737701 214.005189 
L 186.388311 260.492618 
L 187.038921 244.015693 
L 187.689532 246.303833 
L 188.340142 207.406837 
L 189.641363 264.12847 
L 190.291973 260.136121 
L 190.942583 204.359964 
L 191.593194 173.373891 
L 192.243804 261.002146 
L 192.894414 260.077716 
L 193.545025 188.964575 
L 194.195635 229.371555 
L 194.846245 161.39233 
L 195.496856 234.890206 
L 196.147466 266.246696 
L 196.798076 259.446162 
L 197.448686 247.789668 
L 198.099297 266.5022 
L 199.400517 214.945056 
L 200.051128 260.579426 
L 200.701738 254.860158 
L 201.352348 221.778077 
L 202.002959 253.811864 
L 202.653569 255.314931 
L 203.304179 226.075273 
L 203.95479 259.991057 
L 204.6054 253.790974 
L 205.25601 246.155632 
L 205.906621 222.562754 
L 206.557231 266.476758 
L 207.207841 246.305143 
L 207.858451 260.860847 
L 208.509062 266.246094 
L 209.159672 266.011181 
L 209.810282 243.387018 
L 210.460893 240.228011 
L 211.111503 214.139261 
L 211.762113 219.08893 
L 212.412724 226.797366 
L 213.063334 266.363511 
L 213.713944 265.980869 
L 214.364555 256.576249 
L 215.015165 262.312969 
L 215.665775 232.132106 
L 216.316385 213.020027 
L 216.966996 253.854664 
L 217.617606 201.546113 
L 218.918827 261.564692 
L 219.569437 240.538337 
L 220.220047 253.912507 
L 220.870658 219.166274 
L 221.521268 240.465474 
L 222.171878 246.743811 
L 222.822489 249.674304 
L 223.473099 200.284288 
L 224.123709 201.723304 
L 224.77432 214.467137 
L 225.42493 266.326787 
L 226.07554 229.326776 
L 226.72615 227.011719 
L 227.376761 245.51528 
L 228.027371 234.782829 
L 228.677981 194.116735 
L 229.328592 210.374974 
L 229.979202 248.565946 
L 230.629812 246.012854 
L 231.280423 266.192091 
L 231.931033 202.064816 
L 232.581643 241.939493 
L 233.232254 133.672958 
L 233.882864 266.384669 
L 234.533474 246.265357 
L 235.184085 266.220616 
L 235.834695 244.737425 
L 236.485305 189.129854 
L 237.135915 232.047635 
L 238.437136 260.259974 
L 239.087746 236.123053 
L 239.738357 266.243249 
L 240.388967 246.093731 
L 241.039577 251.092278 
L 241.690188 266.460318 
L 242.340798 217.584407 
L 242.991408 214.121329 
L 243.642019 206.076499 
L 244.292629 253.622631 
L 244.943239 260.611021 
L 245.59385 260.46638 
L 246.89507 198.754245 
L 247.54568 250.385873 
L 248.196291 245.621671 
L 248.846901 226.696199 
L 249.497511 217.564433 
L 250.148122 238.050991 
L 250.798732 234.499067 
L 251.449342 260.12708 
L 252.099953 245.417315 
L 252.750563 254.86062 
L 253.401173 253.640299 
L 254.051784 246.337671 
L 254.702394 233.526288 
L 255.353004 266.39542 
L 256.003615 263.122877 
L 256.654225 266.266736 
L 257.304835 257.334324 
L 257.955445 223.227147 
L 258.606056 204.760206 
L 259.256666 253.455976 
L 259.907276 140.568287 
L 260.557887 259.824259 
L 261.208497 234.083869 
L 261.859107 221.171067 
L 262.509718 247.737669 
L 263.160328 247.521537 
L 263.810938 260.89113 
L 264.461549 258.535818 
L 265.112159 257.543791 
L 265.762769 225.021326 
L 266.413379 218.426824 
L 267.06399 209.358497 
L 267.7146 225.587254 
L 268.36521 266.373352 
L 269.015821 251.283627 
L 269.666431 257.696223 
L 270.317041 265.767601 
L 270.967652 250.560729 
L 271.618262 263.98775 
L 272.268872 243.892506 
L 272.919483 233.591436 
L 273.570093 232.842277 
L 274.220703 244.842212 
L 274.871314 247.94257 
L 275.521924 250.074506 
L 276.172534 254.974133 
L 276.823144 239.260226 
L 277.473755 212.461018 
L 278.124365 219.907387 
L 278.774975 261.024869 
L 279.425586 229.709272 
L 280.076196 266.166721 
L 280.726806 262.883501 
L 281.377417 262.889791 
L 282.028027 224.748853 
L 282.678637 266.081161 
L 283.329248 253.548082 
L 283.979858 250.214382 
L 284.630468 223.159777 
L 285.281079 221.785755 
L 285.931689 212.953269 
L 286.582299 264.695939 
L 287.232909 245.616927 
L 287.88352 234.729176 
L 288.53413 246.089729 
L 289.18474 254.237101 
L 289.835351 194.796454 
L 290.485961 203.503284 
L 291.136571 213.931575 
L 291.787182 246.061104 
L 292.437792 225.992751 
L 293.088402 235.417408 
L 293.739013 247.073669 
L 294.389623 266.525255 
L 295.040233 265.962871 
L 295.690844 264.282483 
L 296.341454 250.856402 
L 296.992064 211.19551 
L 297.642674 230.327368 
L 298.293285 230.695105 
L 299.594505 263.592925 
L 300.245116 199.821665 
L 300.895726 260.46771 
L 301.546336 209.077355 
L 302.196947 247.015718 
L 303.498167 218.986013 
L 304.148778 245.766003 
L 304.799388 192.378406 
L 305.449998 263.415733 
L 306.100608 265.883558 
L 306.751219 262.162074 
L 307.401829 266.231057 
L 308.052439 235.662521 
L 308.70305 244.179193 
L 309.35366 255.074614 
L 310.00427 253.866253 
L 310.654881 261.796455 
L 311.305491 249.445698 
L 311.956101 263.952933 
L 312.606712 199.424791 
L 313.257322 215.616195 
L 313.907932 251.491455 
L 314.558543 260.462363 
L 315.209153 227.949242 
L 315.859763 260.722579 
L 316.510373 265.645373 
L 317.160984 258.333371 
L 317.811594 227.300493 
L 318.462204 266.298869 
L 319.112815 263.62559 
L 320.414035 242.231976 
L 321.064646 193.261046 
L 321.715256 255.024493 
L 322.365866 250.248749 
L 323.016477 251.917651 
L 323.667087 228.902147 
L 324.317697 266.321079 
L 324.968308 255.361192 
L 325.618918 215.561222 
L 326.269528 187.72083 
L 326.920138 254.750036 
L 327.570749 248.304548 
L 328.221359 197.217096 
L 328.871969 129.35422 
L 329.52258 255.981525 
L 330.17319 241.960832 
L 330.8238 250.300474 
L 331.474411 256.036291 
L 332.125021 256.633076 
L 332.775631 260.554018 
L 333.426242 204.150266 
L 334.076852 265.486174 
L 334.727462 246.410481 
L 335.378073 217.759494 
L 336.028683 205.437955 
L 336.679293 260.757192 
L 337.329903 223.095361 
L 337.980514 220.065488 
L 338.631124 219.633579 
L 339.281734 229.315585 
L 339.932345 216.037898 
L 340.582955 260.477047 
L 341.233565 201.450508 
L 341.884176 259.160799 
L 342.534786 233.927776 
L 343.185396 254.004215 
L 343.836007 249.094335 
L 344.486617 227.176095 
L 345.137227 266.134956 
L 345.787837 247.090496 
L 346.438448 221.572886 
L 347.089058 154.469229 
L 347.739668 245.736548 
L 348.390279 202.646847 
L 349.040889 265.957032 
L 349.691499 262.700635 
L 350.34211 265.673395 
L 350.99272 255.118247 
L 351.64333 263.457128 
L 352.293941 242.414486 
L 352.944551 180.350006 
L 353.595161 248.415605 
L 354.245772 217.113144 
L 354.896382 260.987798 
L 355.546992 248.4638 
L 356.197602 266.176656 
L 356.848213 204.123859 
L 357.498823 205.037856 
L 358.149433 256.473183 
L 358.800044 253.232475 
L 359.450654 197.414197 
L 360.101264 169.040055 
L 360.751875 220.87455 
L 361.402485 248.269371 
L 362.053095 266.225795 
L 362.703706 252.40321 
L 363.354316 265.020087 
L 364.004926 167.826165 
L 364.655537 264.344223 
L 365.306147 223.805148 
L 365.956757 253.731007 
L 366.607367 223.054796 
L 367.257978 260.958584 
L 367.908588 197.433702 
L 368.559198 260.632661 
L 369.209809 243.373128 
L 369.860419 263.942276 
L 370.511029 249.535181 
L 371.16164 266.518322 
L 371.81225 241.772373 
L 372.46286 266.346671 
L 373.113471 259.502595 
L 373.764081 224.862958 
L 374.414691 248.998454 
L 375.065302 243.293919 
L 375.715912 246.294585 
L 376.366522 198.907551 
L 377.017132 254.700533 
L 377.667743 266.430989 
L 378.968963 255.269904 
L 379.619574 266.187682 
L 380.270184 255.384844 
L 380.920794 261.533087 
L 381.571405 261.714856 
L 382.222015 238.963725 
L 382.872625 265.330009 
L 383.523236 259.953056 
L 384.173846 262.589446 
L 384.824456 254.554381 
L 385.475066 264.625127 
L 386.776287 240.302227 
L 387.426897 260.139533 
L 388.077508 261.395383 
L 389.378728 257.524958 
L 390.029339 241.455214 
L 390.679949 261.993283 
L 391.98117 252.511341 
L 392.63178 245.134146 
L 393.28239 260.775503 
L 393.933001 252.493164 
L 394.583611 249.625093 
L 395.234221 250.835194 
L 395.884831 260.29894 
L 396.535442 256.480345 
L 397.186052 261.130694 
L 397.836662 250.597889 
L 398.487273 252.217425 
L 398.487273 252.217425 
" style="fill:none;stroke:#008000;stroke-dasharray:9.6,2.4,1.5,2.4;stroke-dashoffset:0;stroke-width:1.5;"/>
   </g>
   <g id="line2d_26">
    <path clip-path="url(#p7fc35d20d5)" d="M 73.832727 235.19336 
L 74.483338 248.000923 
L 75.133948 213.309572 
L 75.784558 122.849856 
L 76.435169 241.445871 
L 77.085779 234.991666 
L 77.736389 221.982409 
L 78.386999 227.730686 
L 79.03761 238.924697 
L 79.68822 215.528205 
L 80.33883 234.789972 
L 80.989441 246.992454 
L 81.640051 170.046229 
L 82.941272 260.606792 
L 83.591882 260.505945 
L 84.242492 247.395841 
L 84.893103 241.244177 
L 85.543713 221.881563 
L 86.194323 182.853792 
L 86.844934 228.23492 
L 87.495544 253.950893 
L 88.146154 234.386585 
L 88.796764 253.446658 
L 89.447375 221.377328 
L 90.097985 246.992454 
L 90.748595 266.657609 
L 91.399206 173.273332 
L 92.049816 188.904609 
L 92.700426 189.106303 
L 93.351037 260.00171 
L 94.001647 221.276481 
L 94.652257 214.822276 
L 95.302868 234.386585 
L 95.953478 266.657609 
L 96.604088 208.771459 
L 97.254698 227.730686 
L 97.905309 227.629839 
L 98.555919 234.386585 
L 99.206529 253.749199 
L 100.50775 254.455128 
L 101.15836 208.771459 
L 101.808971 209.174847 
L 102.459581 260.00171 
L 103.110191 259.900863 
L 103.760802 247.395841 
L 104.411412 240.739942 
L 105.062022 253.850046 
L 105.712633 234.789972 
L 106.363243 266.657609 
L 107.013853 253.850046 
L 107.664463 260.505945 
L 108.315074 195.661355 
L 108.965684 240.840789 
L 109.616294 266.556762 
L 110.266905 266.455915 
L 110.917515 173.475026 
L 111.568125 247.900076 
L 112.218736 260.909333 
L 112.869346 215.225664 
L 113.519956 189.812232 
L 114.170567 253.850046 
L 114.821177 245.580596 
L 115.471787 213.208725 
L 116.122398 202.11556 
L 116.773008 200.098621 
L 117.423618 195.863049 
L 118.074228 238.924697 
L 118.724839 187.089364 
L 119.375449 247.496688 
L 120.026059 239.025544 
L 120.67667 187.190211 
L 121.32728 167.928443 
L 121.97789 248.505158 
L 122.628501 254.959363 
L 123.279111 251.631413 
L 123.929721 240.840789 
L 124.580332 221.377328 
L 125.230942 221.982409 
L 125.881552 214.822276 
L 126.532163 202.720642 
L 127.182773 208.267224 
L 127.833383 221.377328 
L 128.483993 209.275694 
L 129.134604 111.655844 
L 129.785214 260.00171 
L 130.435824 202.216407 
L 131.086435 260.606792 
L 131.737045 228.638308 
L 132.387655 240.739942 
L 133.038266 228.134074 
L 133.688876 221.780716 
L 134.339486 228.638308 
L 134.990097 222.486644 
L 135.640707 221.982409 
L 136.291317 263.733048 
L 136.941927 234.487431 
L 137.592538 170.046229 
L 138.243148 189.509691 
L 138.893758 266.455915 
L 139.544369 247.294994 
L 140.194979 234.386585 
L 140.845589 266.455915 
L 141.4962 266.355068 
L 142.14681 253.850046 
L 142.79742 215.124817 
L 143.448031 246.891607 
L 144.098641 189.106303 
L 144.749251 246.79076 
L 145.399862 221.377328 
L 146.050472 240.840789 
L 146.701082 246.992454 
L 147.351692 144.027716 
L 148.002303 221.175634 
L 148.652913 253.749199 
L 149.303523 259.396629 
L 149.954134 248.303464 
L 150.604744 227.831533 
L 151.255354 245.278055 
L 151.905965 202.922336 
L 152.556575 266.355068 
L 153.207185 214.923123 
L 153.857796 234.890819 
L 154.508406 219.763777 
L 155.159016 189.610538 
L 155.809627 246.992454 
L 156.460237 246.992454 
L 157.110847 201.913866 
L 157.761457 183.458874 
L 158.412068 253.446658 
L 159.062678 260.00171 
L 159.713288 189.106303 
L 160.363899 260.00171 
L 161.014509 182.652098 
L 161.665119 162.986943 
L 162.31573 260.00171 
L 163.61695 260.00171 
L 164.267561 195.661355 
L 164.918171 234.386585 
L 165.568781 208.368071 
L 166.219392 201.913866 
L 166.870002 241.244177 
L 167.520612 247.395841 
L 168.171222 260.00171 
L 168.821833 254.152587 
L 169.472443 215.124817 
L 170.123053 137.472664 
L 170.773664 246.992454 
L 171.424274 266.657609 
L 172.725495 196.16559 
L 173.376105 253.850046 
L 174.026715 260.909333 
L 174.677326 260.00171 
L 175.327936 254.253434 
L 175.978546 169.945382 
L 176.629156 234.386585 
L 177.279767 227.730686 
L 177.930377 260.00171 
L 178.580987 208.368071 
L 179.231598 254.05174 
L 179.882208 176.197893 
L 180.532818 170.046229 
L 181.183429 208.267224 
L 181.834039 260.808486 
L 182.484649 201.913866 
L 183.13526 247.395841 
L 183.78587 246.992454 
L 184.43648 234.386585 
L 185.087091 241.244177 
L 185.737701 176.500434 
L 186.388311 254.354281 
L 187.038921 241.244177 
L 187.689532 246.992454 
L 188.340142 202.518948 
L 188.990752 234.890819 
L 189.641363 260.808486 
L 190.291973 253.749199 
L 190.942583 157.036973 
L 191.593194 150.582768 
L 192.243804 260.606792 
L 192.894414 260.00171 
L 193.545025 195.762202 
L 194.195635 227.730686 
L 194.846245 163.491177 
L 195.496856 222.28495 
L 196.147466 264.136435 
L 196.798076 233.277268 
L 197.448686 240.840789 
L 198.099297 266.657609 
L 198.749907 222.184103 
L 199.400517 215.124817 
L 200.051128 260.505945 
L 200.701738 254.253434 
L 201.352348 222.184103 
L 202.002959 254.05174 
L 202.653569 196.16559 
L 203.95479 260.00171 
L 204.6054 254.05174 
L 205.25601 246.992454 
L 205.906621 176.802975 
L 206.557231 266.758456 
L 207.207841 233.983197 
L 207.858451 260.00171 
L 208.509062 266.657609 
L 209.159672 266.455915 
L 209.810282 202.720642 
L 210.460893 234.386585 
L 211.762113 169.642841 
L 212.412724 189.711385 
L 213.063334 266.657609 
L 213.713944 266.556762 
L 214.364555 241.445871 
L 215.015165 260.00171 
L 215.665775 190.013926 
L 216.316385 144.632797 
L 216.966996 254.253434 
L 217.617606 163.692871 
L 218.268216 221.478175 
L 218.918827 260.606792 
L 219.569437 241.14333 
L 220.220047 254.253434 
L 220.870658 195.661355 
L 221.521268 234.991666 
L 222.171878 247.597535 
L 222.822489 246.992454 
L 223.473099 170.147076 
L 224.123709 189.307997 
L 224.77432 195.358814 
L 225.42493 266.657609 
L 226.07554 201.913866 
L 226.72615 221.780716 
L 227.376761 247.395841 
L 228.027371 215.528205 
L 228.677981 189.20715 
L 229.328592 202.216407 
L 229.979202 247.395841 
L 230.629812 234.890819 
L 231.280423 264.237282 
L 231.931033 176.601281 
L 232.581643 234.386585 
L 233.232254 124.665101 
L 233.882864 266.657609 
L 234.533474 240.840789 
L 235.184085 266.657609 
L 235.834695 228.23492 
L 236.485305 169.642841 
L 237.135915 234.689125 
L 237.786526 247.698382 
L 238.437136 248.000923 
L 239.087746 221.579022 
L 239.738357 266.556762 
L 240.388967 222.083256 
L 241.039577 247.698382 
L 241.690188 266.758456 
L 242.340798 170.147076 
L 242.991408 215.124817 
L 243.642019 195.762202 
L 244.292629 253.749199 
L 244.943239 260.00171 
L 245.59385 253.850046 
L 246.24446 227.831533 
L 246.89507 195.358814 
L 247.54568 247.698382 
L 248.196291 186.585129 
L 248.846901 227.730686 
L 249.497511 221.377328 
L 250.148122 227.831533 
L 250.798732 221.982409 
L 251.449342 260.00171 
L 252.099953 241.14333 
L 252.750563 254.253434 
L 253.401173 253.749199 
L 254.051784 246.992454 
L 254.702394 234.890819 
L 255.353004 266.556762 
L 256.003615 260.00171 
L 256.654225 263.632201 
L 257.304835 247.395841 
L 257.955445 208.670612 
L 258.606056 208.973153 
L 259.256666 254.152587 
L 259.907276 118.110049 
L 260.557887 253.850046 
L 261.208497 234.386585 
L 261.859107 208.468918 
L 262.509718 246.992454 
L 263.160328 234.386585 
L 263.810938 254.858516 
L 264.461549 232.470492 
L 265.112159 253.850046 
L 265.762769 227.831533 
L 266.413379 221.579022 
L 267.06399 195.358814 
L 267.7146 227.730686 
L 268.36521 266.355068 
L 269.015821 246.79076 
L 269.666431 246.992454 
L 270.317041 258.388159 
L 270.967652 233.983197 
L 271.618262 253.950893 
L 272.268872 240.739942 
L 272.919483 233.781503 
L 273.570093 228.23492 
L 274.220703 228.638308 
L 274.871314 240.639096 
L 276.172534 253.345811 
L 276.823144 228.436614 
L 277.473755 150.683615 
L 278.124365 215.124817 
L 278.774975 260.00171 
L 279.425586 202.216407 
L 280.076196 266.355068 
L 280.726806 248.000923 
L 281.377417 252.034801 
L 282.028027 222.184103 
L 282.678637 260.707639 
L 283.329248 247.799229 
L 284.630468 195.762202 
L 285.281079 209.275694 
L 285.931689 215.225664 
L 286.582299 260.909333 
L 287.232909 241.244177 
L 287.88352 228.134074 
L 288.53413 245.479749 
L 289.18474 253.850046 
L 289.835351 125.572724 
L 290.485961 177.105516 
L 291.136571 201.913866 
L 291.787182 246.992454 
L 292.437792 227.831533 
L 293.088402 201.813019 
L 293.739013 246.992454 
L 294.389623 266.657609 
L 295.040233 266.355068 
L 295.690844 260.00171 
L 296.341454 240.538249 
L 296.992064 202.216407 
L 297.642674 222.083256 
L 298.943895 234.789972 
L 299.594505 260.707639 
L 300.245116 195.762202 
L 300.895726 259.900863 
L 301.546336 195.863049 
L 302.196947 246.992454 
L 302.847557 221.175634 
L 303.498167 221.175634 
L 304.148778 234.386585 
L 304.799388 143.926869 
L 305.449998 227.528992 
L 306.100608 263.733048 
L 306.751219 232.369646 
L 307.401829 263.733048 
L 308.052439 70.006053 
L 308.70305 196.367284 
L 309.35366 246.992454 
L 310.00427 241.345024 
L 310.654881 260.00171 
L 311.305491 246.992454 
L 311.956101 260.00171 
L 312.606712 176.29874 
L 313.257322 208.368071 
L 313.907932 247.395841 
L 314.558543 254.152587 
L 315.209153 202.720642 
L 315.859763 258.993241 
L 316.510373 251.631413 
L 317.160984 241.445871 
L 317.811594 151.389543 
L 318.462204 266.455915 
L 319.112815 259.900863 
L 319.763425 247.799229 
L 320.414035 228.23492 
L 321.064646 163.692871 
L 321.715256 253.345811 
L 322.365866 226.016288 
L 323.016477 246.992454 
L 323.667087 208.771459 
L 324.317697 266.355068 
L 324.968308 238.117922 
L 325.618918 131.119306 
L 326.269528 131.018459 
L 326.920138 253.446658 
L 327.570749 246.891607 
L 328.221359 137.573511 
L 328.871969 53.568 
L 329.52258 254.253434 
L 330.17319 228.436614 
L 330.8238 246.992454 
L 331.474411 246.992454 
L 332.775631 259.800016 
L 333.426242 150.582768 
L 334.076852 252.034801 
L 334.727462 228.23492 
L 335.378073 195.358814 
L 336.028683 202.720642 
L 336.679293 260.00171 
L 337.329903 208.368071 
L 337.980514 189.913079 
L 338.631124 189.711385 
L 339.281734 209.074 
L 339.932345 195.762202 
L 340.582955 259.900863 
L 341.233565 201.813019 
L 341.884176 253.446658 
L 342.534786 233.983197 
L 343.185396 253.345811 
L 343.836007 246.891607 
L 344.486617 214.721429 
L 345.137227 261.01018 
L 345.787837 240.739942 
L 346.438448 208.267224 
L 347.089058 79.485667 
L 347.739668 234.890819 
L 348.390279 189.307997 
L 349.040889 259.194935 
L 349.691499 253.446658 
L 350.34211 259.194935 
L 350.99272 206.048591 
L 351.64333 254.858516 
L 352.293941 221.377328 
L 352.944551 144.22941 
L 353.595161 246.891607 
L 354.245772 209.174847 
L 354.896382 260.00171 
L 355.546992 228.940849 
L 356.197602 266.556762 
L 356.848213 118.210896 
L 358.149433 241.042483 
L 358.800044 234.386585 
L 359.450654 176.601281 
L 360.101264 143.725175 
L 360.751875 215.225664 
L 361.402485 234.386585 
L 362.053095 266.455915 
L 362.703706 240.739942 
L 363.354316 261.01018 
L 364.004926 86.242412 
L 364.655537 260.808486 
L 365.306147 202.11556 
L 365.956757 253.850046 
L 366.607367 202.11556 
L 367.257978 260.00171 
L 367.908588 196.16559 
L 368.559198 260.00171 
L 369.209809 241.244177 
L 369.860419 260.808486 
L 370.511029 246.992454 
L 371.16164 266.455915 
L 371.81225 222.083256 
L 372.46286 258.489006 
L 373.113471 228.537461 
L 373.764081 93.301699 
L 374.414691 196.468131 
L 375.065302 209.37654 
L 375.715912 226.217981 
L 376.366522 118.916825 
L 377.017132 254.152587 
L 377.667743 266.355068 
L 378.318353 253.850046 
L 378.968963 253.345811 
L 379.619574 260.405098 
L 380.270184 241.345024 
L 380.920794 259.497476 
L 381.571405 258.388159 
L 382.222015 189.106303 
L 382.872625 253.950893 
L 383.523236 228.638308 
L 384.173846 253.749199 
L 384.824456 245.378902 
L 385.475066 244.672974 
L 386.125677 211.796867 
L 386.776287 215.931592 
L 387.426897 252.942424 
L 388.077508 253.144118 
L 388.728118 240.840789 
L 389.378728 257.783077 
L 390.029339 210.990092 
L 390.679949 259.497476 
L 391.330559 256.976302 
L 391.98117 219.461236 
L 392.63178 228.335767 
L 393.28239 257.278843 
L 393.933001 246.992454 
L 394.583611 244.874668 
L 395.234221 228.940849 
L 395.884831 260.203404 
L 396.535442 225.209512 
L 397.186052 259.800016 
L 397.836662 244.773821 
L 398.487273 244.975514 
L 398.487273 244.975514 
" style="fill:none;stroke:#ff0000;stroke-linecap:square;stroke-width:1.5;"/>
   </g>
   <g id="patch_3">
    <path d="M 57.6 307.584 
L 57.6 41.472 
" style="fill:none;stroke:#000000;stroke-linecap:square;stroke-linejoin:miter;stroke-width:0.8;"/>
   </g>
   <g id="patch_4">
    <path d="M 414.72 307.584 
L 414.72 41.472 
" style="fill:none;stroke:#000000;stroke-linecap:square;stroke-linejoin:miter;stroke-width:0.8;"/>
   </g>
   <g id="patch_5">
    <path d="M 57.6 307.584 
L 414.72 307.584 
" style="fill:none;stroke:#000000;stroke-linecap:square;stroke-linejoin:miter;stroke-width:0.8;"/>
   </g>
   <g id="patch_6">
    <path d="M 57.6 41.472 
L 414.72 41.472 
" style="fill:none;stroke:#000000;stroke-linecap:square;stroke-linejoin:miter;stroke-width:0.8;"/>
   </g>
   <g id="text_14">
    <!-- Population's average and best fitness -->
    <g transform="translate(123.529687 35.472)scale(0.12 -0.12)">
     <defs>
      <path d="M 1259 4147 
L 1259 2394 
L 2053 2394 
Q 2494 2394 2734 2622 
Q 2975 2850 2975 3272 
Q 2975 3691 2734 3919 
Q 2494 4147 2053 4147 
L 1259 4147 
z
M 628 4666 
L 2053 4666 
Q 2838 4666 3239 4311 
Q 3641 3956 3641 3272 
Q 3641 2581 3239 2228 
Q 2838 1875 2053 1875 
L 1259 1875 
L 1259 0 
L 628 0 
L 628 4666 
z
" id="DejaVuSans-50" transform="scale(0.015625)"/>
      <path d="M 1159 525 
L 1159 -1331 
L 581 -1331 
L 581 3500 
L 1159 3500 
L 1159 2969 
Q 1341 3281 1617 3432 
Q 1894 3584 2278 3584 
Q 2916 3584 3314 3078 
Q 3713 2572 3713 1747 
Q 3713 922 3314 415 
Q 2916 -91 2278 -91 
Q 1894 -91 1617 61 
Q 1341 213 1159 525 
z
M 3116 1747 
Q 3116 2381 2855 2742 
Q 2594 3103 2138 3103 
Q 1681 3103 1420 2742 
Q 1159 2381 1159 1747 
Q 1159 1113 1420 752 
Q 1681 391 2138 391 
Q 2594 391 2855 752 
Q 3116 1113 3116 1747 
z
" id="DejaVuSans-70" transform="scale(0.015625)"/>
      <path d="M 544 1381 
L 544 3500 
L 1119 3500 
L 1119 1403 
Q 1119 906 1312 657 
Q 1506 409 1894 409 
Q 2359 409 2629 706 
Q 2900 1003 2900 1516 
L 2900 3500 
L 3475 3500 
L 3475 0 
L 2900 0 
L 2900 538 
Q 2691 219 2414 64 
Q 2138 -91 1772 -91 
Q 1169 -91 856 284 
Q 544 659 544 1381 
z
M 1991 3584 
L 1991 3584 
z
" id="DejaVuSans-75" transform="scale(0.015625)"/>
      <path d="M 603 4863 
L 1178 4863 
L 1178 0 
L 603 0 
L 603 4863 
z
" id="DejaVuSans-6c" transform="scale(0.015625)"/>
      <path d="M 1147 4666 
L 1147 2931 
L 616 2931 
L 616 4666 
L 1147 4666 
z
" id="DejaVuSans-27" transform="scale(0.015625)"/>
      <path id="DejaVuSans-20" transform="scale(0.015625)"/>
      <path d="M 191 3500 
L 800 3500 
L 1894 563 
L 2988 3500 
L 3597 3500 
L 2284 0 
L 1503 0 
L 191 3500 
z
" id="DejaVuSans-76" transform="scale(0.015625)"/>
      <path d="M 2906 1791 
Q 2906 2416 2648 2759 
Q 2391 3103 1925 3103 
Q 1463 3103 1205 2759 
Q 947 2416 947 1791 
Q 947 1169 1205 825 
Q 1463 481 1925 481 
Q 2391 481 2648 825 
Q 2906 1169 2906 1791 
z
M 3481 434 
Q 3481 -459 3084 -895 
Q 2688 -1331 1869 -1331 
Q 1566 -1331 1297 -1286 
Q 1028 -1241 775 -1147 
L 775 -588 
Q 1028 -725 1275 -790 
Q 1522 -856 1778 -856 
Q 2344 -856 2625 -561 
Q 2906 -266 2906 331 
L 2906 616 
Q 2728 306 2450 153 
Q 2172 0 1784 0 
Q 1141 0 747 490 
Q 353 981 353 1791 
Q 353 2603 747 3093 
Q 1141 3584 1784 3584 
Q 2172 3584 2450 3431 
Q 2728 3278 2906 2969 
L 2906 3500 
L 3481 3500 
L 3481 434 
z
" id="DejaVuSans-67" transform="scale(0.015625)"/>
      <path d="M 2906 2969 
L 2906 4863 
L 3481 4863 
L 3481 0 
L 2906 0 
L 2906 525 
Q 2725 213 2448 61 
Q 2172 -91 1784 -91 
Q 1150 -91 751 415 
Q 353 922 353 1747 
Q 353 2572 751 3078 
Q 1150 3584 1784 3584 
Q 2172 3584 2448 3432 
Q 2725 3281 2906 2969 
z
M 947 1747 
Q 947 1113 1208 752 
Q 1469 391 1925 391 
Q 2381 391 2643 752 
Q 2906 1113 2906 1747 
Q 2906 2381 2643 2742 
Q 2381 3103 1925 3103 
Q 1469 3103 1208 2742 
Q 947 2381 947 1747 
z
" id="DejaVuSans-64" transform="scale(0.015625)"/>
      <path d="M 3116 1747 
Q 3116 2381 2855 2742 
Q 2594 3103 2138 3103 
Q 1681 3103 1420 2742 
Q 1159 2381 1159 1747 
Q 1159 1113 1420 752 
Q 1681 391 2138 391 
Q 2594 391 2855 752 
Q 3116 1113 3116 1747 
z
M 1159 2969 
Q 1341 3281 1617 3432 
Q 1894 3584 2278 3584 
Q 2916 3584 3314 3078 
Q 3713 2572 3713 1747 
Q 3713 922 3314 415 
Q 2916 -91 2278 -91 
Q 1894 -91 1617 61 
Q 1341 213 1159 525 
L 1159 0 
L 581 0 
L 581 4863 
L 1159 4863 
L 1159 2969 
z
" id="DejaVuSans-62" transform="scale(0.015625)"/>
      <path d="M 2375 4863 
L 2375 4384 
L 1825 4384 
Q 1516 4384 1395 4259 
Q 1275 4134 1275 3809 
L 1275 3500 
L 2222 3500 
L 2222 3053 
L 1275 3053 
L 1275 0 
L 697 0 
L 697 3053 
L 147 3053 
L 147 3500 
L 697 3500 
L 697 3744 
Q 697 4328 969 4595 
Q 1241 4863 1831 4863 
L 2375 4863 
z
" id="DejaVuSans-66" transform="scale(0.015625)"/>
     </defs>
     <use xlink:href="#DejaVuSans-50"/>
     <use x="56.677734" xlink:href="#DejaVuSans-6f"/>
     <use x="117.859375" xlink:href="#DejaVuSans-70"/>
     <use x="181.335938" xlink:href="#DejaVuSans-75"/>
     <use x="244.714844" xlink:href="#DejaVuSans-6c"/>
     <use x="272.498047" xlink:href="#DejaVuSans-61"/>
     <use x="333.777344" xlink:href="#DejaVuSans-74"/>
     <use x="372.986328" xlink:href="#DejaVuSans-69"/>
     <use x="400.769531" xlink:href="#DejaVuSans-6f"/>
     <use x="461.951172" xlink:href="#DejaVuSans-6e"/>
     <use x="525.330078" xlink:href="#DejaVuSans-27"/>
     <use x="552.820312" xlink:href="#DejaVuSans-73"/>
     <use x="604.919922" xlink:href="#DejaVuSans-20"/>
     <use x="636.707031" xlink:href="#DejaVuSans-61"/>
     <use x="697.986328" xlink:href="#DejaVuSans-76"/>
     <use x="757.166016" xlink:href="#DejaVuSans-65"/>
     <use x="818.689453" xlink:href="#DejaVuSans-72"/>
     <use x="859.802734" xlink:href="#DejaVuSans-61"/>
     <use x="921.082031" xlink:href="#DejaVuSans-67"/>
     <use x="984.558594" xlink:href="#DejaVuSans-65"/>
     <use x="1046.082031" xlink:href="#DejaVuSans-20"/>
     <use x="1077.869141" xlink:href="#DejaVuSans-61"/>
     <use x="1139.148438" xlink:href="#DejaVuSans-6e"/>
     <use x="1202.527344" xlink:href="#DejaVuSans-64"/>
     <use x="1266.003906" xlink:href="#DejaVuSans-20"/>
     <use x="1297.791016" xlink:href="#DejaVuSans-62"/>
     <use x="1361.267578" xlink:href="#DejaVuSans-65"/>
     <use x="1422.791016" xlink:href="#DejaVuSans-73"/>
     <use x="1474.890625" xlink:href="#DejaVuSans-74"/>
     <use x="1514.099609" xlink:href="#DejaVuSans-20"/>
     <use x="1545.886719" xlink:href="#DejaVuSans-66"/>
     <use x="1581.091797" xlink:href="#DejaVuSans-69"/>
     <use x="1608.875" xlink:href="#DejaVuSans-74"/>
     <use x="1648.083984" xlink:href="#DejaVuSans-6e"/>
     <use x="1711.462891" xlink:href="#DejaVuSans-65"/>
     <use x="1772.986328" xlink:href="#DejaVuSans-73"/>
     <use x="1825.085938" xlink:href="#DejaVuSans-73"/>
    </g>
   </g>
   <g id="legend_1">
    <g id="patch_7">
     <path d="M 64.6 108.1845 
L 137.540625 108.1845 
Q 139.540625 108.1845 139.540625 106.1845 
L 139.540625 48.472 
Q 139.540625 46.472 137.540625 46.472 
L 64.6 46.472 
Q 62.6 46.472 62.6 48.472 
L 62.6 106.1845 
Q 62.6 108.1845 64.6 108.1845 
z
" style="fill:#ffffff;opacity:0.8;stroke:#cccccc;stroke-linejoin:miter;"/>
    </g>
    <g id="line2d_27">
     <path d="M 66.6 54.570438 
L 86.6 54.570438 
" style="fill:none;stroke:#0000ff;stroke-linecap:square;stroke-width:1.5;"/>
    </g>
    <g id="line2d_28"/>
    <g id="text_15">
     <!-- average -->
     <g transform="translate(94.6 58.070438)scale(0.1 -0.1)">
      <use xlink:href="#DejaVuSans-61"/>
      <use x="61.279297" xlink:href="#DejaVuSans-76"/>
      <use x="120.458984" xlink:href="#DejaVuSans-65"/>
      <use x="181.982422" xlink:href="#DejaVuSans-72"/>
      <use x="223.095703" xlink:href="#DejaVuSans-61"/>
      <use x="284.375" xlink:href="#DejaVuSans-67"/>
      <use x="347.851562" xlink:href="#DejaVuSans-65"/>
     </g>
    </g>
    <g id="line2d_29">
     <path d="M 66.6 69.248563 
L 86.6 69.248563 
" style="fill:none;stroke:#008000;stroke-dasharray:9.6,2.4,1.5,2.4;stroke-dashoffset:0;stroke-width:1.5;"/>
    </g>
    <g id="line2d_30"/>
    <g id="text_16">
     <!-- -1 sd -->
     <g transform="translate(94.6 72.748563)scale(0.1 -0.1)">
      <defs>
       <path d="M 313 2009 
L 1997 2009 
L 1997 1497 
L 313 1497 
L 313 2009 
z
" id="DejaVuSans-2d" transform="scale(0.015625)"/>
      </defs>
      <use xlink:href="#DejaVuSans-2d"/>
      <use x="36.083984" xlink:href="#DejaVuSans-31"/>
      <use x="99.707031" xlink:href="#DejaVuSans-20"/>
      <use x="131.494141" xlink:href="#DejaVuSans-73"/>
      <use x="183.59375" xlink:href="#DejaVuSans-64"/>
     </g>
    </g>
    <g id="line2d_31">
     <path d="M 66.6 83.926688 
L 86.6 83.926688 
" style="fill:none;stroke:#008000;stroke-dasharray:9.6,2.4,1.5,2.4;stroke-dashoffset:0;stroke-width:1.5;"/>
    </g>
    <g id="line2d_32"/>
    <g id="text_17">
     <!-- +1 sd -->
     <g transform="translate(94.6 87.426688)scale(0.1 -0.1)">
      <defs>
       <path d="M 2944 4013 
L 2944 2272 
L 4684 2272 
L 4684 1741 
L 2944 1741 
L 2944 0 
L 2419 0 
L 2419 1741 
L 678 1741 
L 678 2272 
L 2419 2272 
L 2419 4013 
L 2944 4013 
z
" id="DejaVuSans-2b" transform="scale(0.015625)"/>
      </defs>
      <use xlink:href="#DejaVuSans-2b"/>
      <use x="83.789062" xlink:href="#DejaVuSans-31"/>
      <use x="147.412109" xlink:href="#DejaVuSans-20"/>
      <use x="179.199219" xlink:href="#DejaVuSans-73"/>
      <use x="231.298828" xlink:href="#DejaVuSans-64"/>
     </g>
    </g>
    <g id="line2d_33">
     <path d="M 66.6 98.604813 
L 86.6 98.604813 
" style="fill:none;stroke:#ff0000;stroke-linecap:square;stroke-width:1.5;"/>
    </g>
    <g id="line2d_34"/>
    <g id="text_18">
     <!-- best -->
     <g transform="translate(94.6 102.104813)scale(0.1 -0.1)">
      <use xlink:href="#DejaVuSans-62"/>
      <use x="63.476562" xlink:href="#DejaVuSans-65"/>
      <use x="125" xlink:href="#DejaVuSans-73"/>
      <use x="177.099609" xlink:href="#DejaVuSans-74"/>
     </g>
    </g>
   </g>
  </g>
 </g>
 <defs>
  <clipPath id="p7fc35d20d5">
   <rect height="266.112" width="357.12" x="57.6" y="41.472"/>
  </clipPath>
 </defs>
</svg>
